%TF.GenerationSoftware,KiCad,Pcbnew,9.0.2*%
%TF.CreationDate,2025-09-29T18:54:28-03:00*%
%TF.ProjectId,Estacao_ControleIrrigacao,45737461-6361-46f5-9f43-6f6e74726f6c,rev?*%
%TF.SameCoordinates,Original*%
%TF.FileFunction,Drillmap*%
%TF.FilePolarity,Positive*%
%FSLAX45Y45*%
G04 Gerber Fmt 4.5, Leading zero omitted, Abs format (unit mm)*
G04 Created by KiCad (PCBNEW 9.0.2) date 2025-09-29 18:54:28*
%MOMM*%
%LPD*%
G01*
G04 APERTURE LIST*
%ADD10C,0.050000*%
%ADD11C,0.200000*%
%ADD12C,0.100000*%
%ADD13C,0.110000*%
%ADD14C,0.130000*%
G04 APERTURE END LIST*
D10*
X11872000Y-9450000D02*
G75*
G02*
X11324000Y-9450000I-274000J0D01*
G01*
X11324000Y-9450000D02*
G75*
G02*
X11872000Y-9450000I274000J0D01*
G01*
X18755000Y-7892716D02*
G75*
G02*
X18207000Y-7892716I-274000J0D01*
G01*
X18207000Y-7892716D02*
G75*
G02*
X18755000Y-7892716I274000J0D01*
G01*
X7950000Y-5950000D02*
X21950000Y-5950000D01*
X21950000Y-12950000D01*
X7950000Y-12950000D01*
X7950000Y-5950000D01*
X9256000Y-7892716D02*
G75*
G02*
X8708000Y-7892716I-274000J0D01*
G01*
X8708000Y-7892716D02*
G75*
G02*
X9256000Y-7892716I274000J0D01*
G01*
X18755000Y-11007285D02*
G75*
G02*
X18207000Y-11007285I-274000J0D01*
G01*
X18207000Y-11007285D02*
G75*
G02*
X18755000Y-11007285I274000J0D01*
G01*
X9256000Y-11007285D02*
G75*
G02*
X8708000Y-11007285I-274000J0D01*
G01*
X8708000Y-11007285D02*
G75*
G02*
X9256000Y-11007285I274000J0D01*
G01*
D11*
D12*
X17917000Y-8594000D02*
X17997000Y-8674000D01*
X17997000Y-8594000D02*
X17917000Y-8674000D01*
X17917000Y-8999000D02*
X17997000Y-9079000D01*
X17997000Y-8999000D02*
X17917000Y-9079000D01*
X17917000Y-9404500D02*
X17997000Y-9484500D01*
X17997000Y-9404500D02*
X17917000Y-9484500D01*
X17917000Y-9804000D02*
X17997000Y-9884000D01*
X17997000Y-9804000D02*
X17917000Y-9884000D01*
X17917000Y-10209000D02*
X17997000Y-10289000D01*
X17997000Y-10209000D02*
X17917000Y-10289000D01*
X18933000Y-8594000D02*
X19013000Y-8674000D01*
X19013000Y-8594000D02*
X18933000Y-8674000D01*
X18933000Y-8999000D02*
X19013000Y-9079000D01*
X19013000Y-8999000D02*
X18933000Y-9079000D01*
X18933000Y-9404500D02*
X19013000Y-9484500D01*
X19013000Y-9404500D02*
X18933000Y-9484500D01*
X18933000Y-9804000D02*
X19013000Y-9884000D01*
X19013000Y-9804000D02*
X18933000Y-9884000D01*
X18933000Y-10209000D02*
X19013000Y-10289000D01*
X19013000Y-10209000D02*
X18933000Y-10289000D01*
X19024500Y-7599000D02*
X19104500Y-7679000D01*
X19104500Y-7599000D02*
X19024500Y-7679000D01*
X19274500Y-7599000D02*
X19354500Y-7679000D01*
X19354500Y-7599000D02*
X19274500Y-7679000D01*
X20672500Y-7599000D02*
X20752500Y-7679000D01*
X20752500Y-7599000D02*
X20672500Y-7679000D01*
X20922500Y-7599000D02*
X21002500Y-7679000D01*
X21002500Y-7599000D02*
X20922500Y-7679000D01*
D13*
X11287250Y-8347750D02*
G75*
G02*
X11177250Y-8347750I-55000J0D01*
G01*
X11177250Y-8347750D02*
G75*
G02*
X11287250Y-8347750I55000J0D01*
G01*
X11287250Y-10649750D02*
G75*
G02*
X11177250Y-10649750I-55000J0D01*
G01*
X11177250Y-10649750D02*
G75*
G02*
X11287250Y-10649750I55000J0D01*
G01*
X11541250Y-8347750D02*
G75*
G02*
X11431250Y-8347750I-55000J0D01*
G01*
X11431250Y-8347750D02*
G75*
G02*
X11541250Y-8347750I55000J0D01*
G01*
X11541250Y-10649750D02*
G75*
G02*
X11431250Y-10649750I-55000J0D01*
G01*
X11431250Y-10649750D02*
G75*
G02*
X11541250Y-10649750I55000J0D01*
G01*
X11795250Y-8347750D02*
G75*
G02*
X11685250Y-8347750I-55000J0D01*
G01*
X11685250Y-8347750D02*
G75*
G02*
X11795250Y-8347750I55000J0D01*
G01*
X11795250Y-10649750D02*
G75*
G02*
X11685250Y-10649750I-55000J0D01*
G01*
X11685250Y-10649750D02*
G75*
G02*
X11795250Y-10649750I55000J0D01*
G01*
X12049250Y-8347750D02*
G75*
G02*
X11939250Y-8347750I-55000J0D01*
G01*
X11939250Y-8347750D02*
G75*
G02*
X12049250Y-8347750I55000J0D01*
G01*
X12049250Y-10649750D02*
G75*
G02*
X11939250Y-10649750I-55000J0D01*
G01*
X11939250Y-10649750D02*
G75*
G02*
X12049250Y-10649750I55000J0D01*
G01*
X12303250Y-8347750D02*
G75*
G02*
X12193250Y-8347750I-55000J0D01*
G01*
X12193250Y-8347750D02*
G75*
G02*
X12303250Y-8347750I55000J0D01*
G01*
X12303250Y-10649750D02*
G75*
G02*
X12193250Y-10649750I-55000J0D01*
G01*
X12193250Y-10649750D02*
G75*
G02*
X12303250Y-10649750I55000J0D01*
G01*
X12557250Y-8347750D02*
G75*
G02*
X12447250Y-8347750I-55000J0D01*
G01*
X12447250Y-8347750D02*
G75*
G02*
X12557250Y-8347750I55000J0D01*
G01*
X12557250Y-10649750D02*
G75*
G02*
X12447250Y-10649750I-55000J0D01*
G01*
X12447250Y-10649750D02*
G75*
G02*
X12557250Y-10649750I55000J0D01*
G01*
X12811250Y-8347750D02*
G75*
G02*
X12701250Y-8347750I-55000J0D01*
G01*
X12701250Y-8347750D02*
G75*
G02*
X12811250Y-8347750I55000J0D01*
G01*
X12811250Y-10649750D02*
G75*
G02*
X12701250Y-10649750I-55000J0D01*
G01*
X12701250Y-10649750D02*
G75*
G02*
X12811250Y-10649750I55000J0D01*
G01*
X13065250Y-8347750D02*
G75*
G02*
X12955250Y-8347750I-55000J0D01*
G01*
X12955250Y-8347750D02*
G75*
G02*
X13065250Y-8347750I55000J0D01*
G01*
X13065250Y-10649750D02*
G75*
G02*
X12955250Y-10649750I-55000J0D01*
G01*
X12955250Y-10649750D02*
G75*
G02*
X13065250Y-10649750I55000J0D01*
G01*
X13319250Y-8347750D02*
G75*
G02*
X13209250Y-8347750I-55000J0D01*
G01*
X13209250Y-8347750D02*
G75*
G02*
X13319250Y-8347750I55000J0D01*
G01*
X13319250Y-10649750D02*
G75*
G02*
X13209250Y-10649750I-55000J0D01*
G01*
X13209250Y-10649750D02*
G75*
G02*
X13319250Y-10649750I55000J0D01*
G01*
X13573250Y-8347750D02*
G75*
G02*
X13463250Y-8347750I-55000J0D01*
G01*
X13463250Y-8347750D02*
G75*
G02*
X13573250Y-8347750I55000J0D01*
G01*
X13573250Y-10649750D02*
G75*
G02*
X13463250Y-10649750I-55000J0D01*
G01*
X13463250Y-10649750D02*
G75*
G02*
X13573250Y-10649750I55000J0D01*
G01*
X13827250Y-8347750D02*
G75*
G02*
X13717250Y-8347750I-55000J0D01*
G01*
X13717250Y-8347750D02*
G75*
G02*
X13827250Y-8347750I55000J0D01*
G01*
X13827250Y-10649750D02*
G75*
G02*
X13717250Y-10649750I-55000J0D01*
G01*
X13717250Y-10649750D02*
G75*
G02*
X13827250Y-10649750I55000J0D01*
G01*
X14081250Y-8347750D02*
G75*
G02*
X13971250Y-8347750I-55000J0D01*
G01*
X13971250Y-8347750D02*
G75*
G02*
X14081250Y-8347750I55000J0D01*
G01*
X14081250Y-10649750D02*
G75*
G02*
X13971250Y-10649750I-55000J0D01*
G01*
X13971250Y-10649750D02*
G75*
G02*
X14081250Y-10649750I55000J0D01*
G01*
X14335250Y-8347750D02*
G75*
G02*
X14225250Y-8347750I-55000J0D01*
G01*
X14225250Y-8347750D02*
G75*
G02*
X14335250Y-8347750I55000J0D01*
G01*
X14335250Y-10649750D02*
G75*
G02*
X14225250Y-10649750I-55000J0D01*
G01*
X14225250Y-10649750D02*
G75*
G02*
X14335250Y-10649750I55000J0D01*
G01*
X14589250Y-8347750D02*
G75*
G02*
X14479250Y-8347750I-55000J0D01*
G01*
X14479250Y-8347750D02*
G75*
G02*
X14589250Y-8347750I55000J0D01*
G01*
X14589250Y-10649750D02*
G75*
G02*
X14479250Y-10649750I-55000J0D01*
G01*
X14479250Y-10649750D02*
G75*
G02*
X14589250Y-10649750I55000J0D01*
G01*
X14843250Y-8347750D02*
G75*
G02*
X14733250Y-8347750I-55000J0D01*
G01*
X14733250Y-8347750D02*
G75*
G02*
X14843250Y-8347750I55000J0D01*
G01*
X14843250Y-10649750D02*
G75*
G02*
X14733250Y-10649750I-55000J0D01*
G01*
X14733250Y-10649750D02*
G75*
G02*
X14843250Y-10649750I55000J0D01*
G01*
X15097250Y-8347750D02*
G75*
G02*
X14987250Y-8347750I-55000J0D01*
G01*
X14987250Y-8347750D02*
G75*
G02*
X15097250Y-8347750I55000J0D01*
G01*
X15097250Y-10649750D02*
G75*
G02*
X14987250Y-10649750I-55000J0D01*
G01*
X14987250Y-10649750D02*
G75*
G02*
X15097250Y-10649750I55000J0D01*
G01*
X15351250Y-8347750D02*
G75*
G02*
X15241250Y-8347750I-55000J0D01*
G01*
X15241250Y-8347750D02*
G75*
G02*
X15351250Y-8347750I55000J0D01*
G01*
X15351250Y-10649750D02*
G75*
G02*
X15241250Y-10649750I-55000J0D01*
G01*
X15241250Y-10649750D02*
G75*
G02*
X15351250Y-10649750I55000J0D01*
G01*
X15605250Y-8347750D02*
G75*
G02*
X15495250Y-8347750I-55000J0D01*
G01*
X15495250Y-8347750D02*
G75*
G02*
X15605250Y-8347750I55000J0D01*
G01*
X15605250Y-10649750D02*
G75*
G02*
X15495250Y-10649750I-55000J0D01*
G01*
X15495250Y-10649750D02*
G75*
G02*
X15605250Y-10649750I55000J0D01*
G01*
X16903625Y-8691500D02*
G75*
G02*
X16793625Y-8691500I-55000J0D01*
G01*
X16793625Y-8691500D02*
G75*
G02*
X16903625Y-8691500I55000J0D01*
G01*
X16903625Y-8945500D02*
G75*
G02*
X16793625Y-8945500I-55000J0D01*
G01*
X16793625Y-8945500D02*
G75*
G02*
X16903625Y-8945500I55000J0D01*
G01*
X16903625Y-9199500D02*
G75*
G02*
X16793625Y-9199500I-55000J0D01*
G01*
X16793625Y-9199500D02*
G75*
G02*
X16903625Y-9199500I55000J0D01*
G01*
X16903625Y-9453500D02*
G75*
G02*
X16793625Y-9453500I-55000J0D01*
G01*
X16793625Y-9453500D02*
G75*
G02*
X16903625Y-9453500I55000J0D01*
G01*
X16903625Y-9707500D02*
G75*
G02*
X16793625Y-9707500I-55000J0D01*
G01*
X16793625Y-9707500D02*
G75*
G02*
X16903625Y-9707500I55000J0D01*
G01*
X16903625Y-9961500D02*
G75*
G02*
X16793625Y-9961500I-55000J0D01*
G01*
X16793625Y-9961500D02*
G75*
G02*
X16903625Y-9961500I55000J0D01*
G01*
X18468500Y-12396000D02*
G75*
G02*
X18358500Y-12396000I-55000J0D01*
G01*
X18358500Y-12396000D02*
G75*
G02*
X18468500Y-12396000I55000J0D01*
G01*
X18722500Y-12396000D02*
G75*
G02*
X18612500Y-12396000I-55000J0D01*
G01*
X18612500Y-12396000D02*
G75*
G02*
X18722500Y-12396000I55000J0D01*
G01*
X18976500Y-12396000D02*
G75*
G02*
X18866500Y-12396000I-55000J0D01*
G01*
X18866500Y-12396000D02*
G75*
G02*
X18976500Y-12396000I55000J0D01*
G01*
X19230500Y-12396000D02*
G75*
G02*
X19120500Y-12396000I-55000J0D01*
G01*
X19120500Y-12396000D02*
G75*
G02*
X19230500Y-12396000I55000J0D01*
G01*
X19484500Y-12396000D02*
G75*
G02*
X19374500Y-12396000I-55000J0D01*
G01*
X19374500Y-12396000D02*
G75*
G02*
X19484500Y-12396000I55000J0D01*
G01*
X19738500Y-12396000D02*
G75*
G02*
X19628500Y-12396000I-55000J0D01*
G01*
X19628500Y-12396000D02*
G75*
G02*
X19738500Y-12396000I55000J0D01*
G01*
D14*
X8983000Y-6818500D02*
X8983000Y-6948500D01*
X8918000Y-6883500D02*
X9048000Y-6883500D01*
X8983000Y-11951500D02*
X8983000Y-12081500D01*
X8918000Y-12016500D02*
X9048000Y-12016500D01*
X9483000Y-6818500D02*
X9483000Y-6948500D01*
X9418000Y-6883500D02*
X9548000Y-6883500D01*
X9483000Y-11951500D02*
X9483000Y-12081500D01*
X9418000Y-12016500D02*
X9548000Y-12016500D01*
X9983000Y-6818500D02*
X9983000Y-6948500D01*
X9918000Y-6883500D02*
X10048000Y-6883500D01*
X9983000Y-11951500D02*
X9983000Y-12081500D01*
X9918000Y-12016500D02*
X10048000Y-12016500D01*
X10483000Y-6818500D02*
X10483000Y-6948500D01*
X10418000Y-6883500D02*
X10548000Y-6883500D01*
X10483000Y-11951500D02*
X10483000Y-12081500D01*
X10418000Y-12016500D02*
X10548000Y-12016500D01*
X10983000Y-6818500D02*
X10983000Y-6948500D01*
X10918000Y-6883500D02*
X11048000Y-6883500D01*
X10983000Y-11951500D02*
X10983000Y-12081500D01*
X10918000Y-12016500D02*
X11048000Y-12016500D01*
X11483000Y-6818500D02*
X11483000Y-6948500D01*
X11418000Y-6883500D02*
X11548000Y-6883500D01*
X11483000Y-11951500D02*
X11483000Y-12081500D01*
X11418000Y-12016500D02*
X11548000Y-12016500D01*
X11983000Y-6818500D02*
X11983000Y-6948500D01*
X11918000Y-6883500D02*
X12048000Y-6883500D01*
X11983000Y-11951500D02*
X11983000Y-12081500D01*
X11918000Y-12016500D02*
X12048000Y-12016500D01*
X12483000Y-6818500D02*
X12483000Y-6948500D01*
X12418000Y-6883500D02*
X12548000Y-6883500D01*
X12483000Y-11951500D02*
X12483000Y-12081500D01*
X12418000Y-12016500D02*
X12548000Y-12016500D01*
X12983000Y-6818500D02*
X12983000Y-6948500D01*
X12918000Y-6883500D02*
X13048000Y-6883500D01*
X12983000Y-11951500D02*
X12983000Y-12081500D01*
X12918000Y-12016500D02*
X13048000Y-12016500D01*
X13637500Y-6818500D02*
X13637500Y-6948500D01*
X13572500Y-6883500D02*
X13702500Y-6883500D01*
X13637500Y-11951500D02*
X13637500Y-12081500D01*
X13572500Y-12016500D02*
X13702500Y-12016500D01*
X14137500Y-6818500D02*
X14137500Y-6948500D01*
X14072500Y-6883500D02*
X14202500Y-6883500D01*
X14137500Y-11951500D02*
X14137500Y-12081500D01*
X14072500Y-12016500D02*
X14202500Y-12016500D01*
X14637500Y-6818500D02*
X14637500Y-6948500D01*
X14572500Y-6883500D02*
X14702500Y-6883500D01*
X14637500Y-11951500D02*
X14637500Y-12081500D01*
X14572500Y-12016500D02*
X14702500Y-12016500D01*
X15137500Y-6818500D02*
X15137500Y-6948500D01*
X15072500Y-6883500D02*
X15202500Y-6883500D01*
X15137500Y-11951500D02*
X15137500Y-12081500D01*
X15072500Y-12016500D02*
X15202500Y-12016500D01*
X15637500Y-6818500D02*
X15637500Y-6948500D01*
X15572500Y-6883500D02*
X15702500Y-6883500D01*
X15637500Y-11951500D02*
X15637500Y-12081500D01*
X15572500Y-12016500D02*
X15702500Y-12016500D01*
X16137500Y-6818500D02*
X16137500Y-6948500D01*
X16072500Y-6883500D02*
X16202500Y-6883500D01*
X16137500Y-11951500D02*
X16137500Y-12081500D01*
X16072500Y-12016500D02*
X16202500Y-12016500D01*
X16637500Y-6818500D02*
X16637500Y-6948500D01*
X16572500Y-6883500D02*
X16702500Y-6883500D01*
X16637500Y-11951500D02*
X16637500Y-12081500D01*
X16572500Y-12016500D02*
X16702500Y-12016500D01*
X17137500Y-6818500D02*
X17137500Y-6948500D01*
X17072500Y-6883500D02*
X17202500Y-6883500D01*
X17137500Y-11951500D02*
X17137500Y-12081500D01*
X17072500Y-12016500D02*
X17202500Y-12016500D01*
X17637500Y-6818500D02*
X17637500Y-6948500D01*
X17572500Y-6883500D02*
X17702500Y-6883500D01*
X17637500Y-11951500D02*
X17637500Y-12081500D01*
X17572500Y-12016500D02*
X17702500Y-12016500D01*
X18292000Y-6818500D02*
X18292000Y-6948500D01*
X18227000Y-6883500D02*
X18357000Y-6883500D01*
X18792000Y-6818500D02*
X18792000Y-6948500D01*
X18727000Y-6883500D02*
X18857000Y-6883500D01*
X19292000Y-6818500D02*
X19292000Y-6948500D01*
X19227000Y-6883500D02*
X19357000Y-6883500D01*
X19942000Y-6818500D02*
X19942000Y-6948500D01*
X19877000Y-6883500D02*
X20007000Y-6883500D01*
X20442000Y-6818500D02*
X20442000Y-6948500D01*
X20377000Y-6883500D02*
X20507000Y-6883500D01*
X20705500Y-8885000D02*
X20705500Y-9015000D01*
X20640500Y-8950000D02*
X20770500Y-8950000D01*
X20705500Y-9385000D02*
X20705500Y-9515000D01*
X20640500Y-9450000D02*
X20770500Y-9450000D01*
X20705500Y-9885000D02*
X20705500Y-10015000D01*
X20640500Y-9950000D02*
X20770500Y-9950000D01*
X20705500Y-10685000D02*
X20705500Y-10815000D01*
X20640500Y-10750000D02*
X20770500Y-10750000D01*
X20705500Y-11185000D02*
X20705500Y-11315000D01*
X20640500Y-11250000D02*
X20770500Y-11250000D01*
X20705500Y-11685000D02*
X20705500Y-11815000D01*
X20640500Y-11750000D02*
X20770500Y-11750000D01*
X20705500Y-12185000D02*
X20705500Y-12315000D01*
X20640500Y-12250000D02*
X20770500Y-12250000D01*
X20942000Y-6818500D02*
X20942000Y-6948500D01*
X20877000Y-6883500D02*
X21007000Y-6883500D01*
D11*
X8208277Y-13263984D02*
X8208277Y-13063984D01*
X8208277Y-13063984D02*
X8255896Y-13063984D01*
X8255896Y-13063984D02*
X8284467Y-13073508D01*
X8284467Y-13073508D02*
X8303515Y-13092555D01*
X8303515Y-13092555D02*
X8313039Y-13111603D01*
X8313039Y-13111603D02*
X8322562Y-13149698D01*
X8322562Y-13149698D02*
X8322562Y-13178269D01*
X8322562Y-13178269D02*
X8313039Y-13216365D01*
X8313039Y-13216365D02*
X8303515Y-13235412D01*
X8303515Y-13235412D02*
X8284467Y-13254460D01*
X8284467Y-13254460D02*
X8255896Y-13263984D01*
X8255896Y-13263984D02*
X8208277Y-13263984D01*
X8408277Y-13263984D02*
X8408277Y-13130650D01*
X8408277Y-13168746D02*
X8417801Y-13149698D01*
X8417801Y-13149698D02*
X8427324Y-13140174D01*
X8427324Y-13140174D02*
X8446372Y-13130650D01*
X8446372Y-13130650D02*
X8465420Y-13130650D01*
X8532086Y-13263984D02*
X8532086Y-13130650D01*
X8532086Y-13063984D02*
X8522563Y-13073508D01*
X8522563Y-13073508D02*
X8532086Y-13083031D01*
X8532086Y-13083031D02*
X8541610Y-13073508D01*
X8541610Y-13073508D02*
X8532086Y-13063984D01*
X8532086Y-13063984D02*
X8532086Y-13083031D01*
X8655896Y-13263984D02*
X8636848Y-13254460D01*
X8636848Y-13254460D02*
X8627324Y-13235412D01*
X8627324Y-13235412D02*
X8627324Y-13063984D01*
X8760658Y-13263984D02*
X8741610Y-13254460D01*
X8741610Y-13254460D02*
X8732086Y-13235412D01*
X8732086Y-13235412D02*
X8732086Y-13063984D01*
X8989229Y-13263984D02*
X8989229Y-13063984D01*
X8989229Y-13063984D02*
X9055896Y-13206841D01*
X9055896Y-13206841D02*
X9122563Y-13063984D01*
X9122563Y-13063984D02*
X9122563Y-13263984D01*
X9303515Y-13263984D02*
X9303515Y-13159222D01*
X9303515Y-13159222D02*
X9293991Y-13140174D01*
X9293991Y-13140174D02*
X9274944Y-13130650D01*
X9274944Y-13130650D02*
X9236848Y-13130650D01*
X9236848Y-13130650D02*
X9217801Y-13140174D01*
X9303515Y-13254460D02*
X9284467Y-13263984D01*
X9284467Y-13263984D02*
X9236848Y-13263984D01*
X9236848Y-13263984D02*
X9217801Y-13254460D01*
X9217801Y-13254460D02*
X9208277Y-13235412D01*
X9208277Y-13235412D02*
X9208277Y-13216365D01*
X9208277Y-13216365D02*
X9217801Y-13197317D01*
X9217801Y-13197317D02*
X9236848Y-13187793D01*
X9236848Y-13187793D02*
X9284467Y-13187793D01*
X9284467Y-13187793D02*
X9303515Y-13178269D01*
X9398753Y-13130650D02*
X9398753Y-13330650D01*
X9398753Y-13140174D02*
X9417801Y-13130650D01*
X9417801Y-13130650D02*
X9455896Y-13130650D01*
X9455896Y-13130650D02*
X9474944Y-13140174D01*
X9474944Y-13140174D02*
X9484467Y-13149698D01*
X9484467Y-13149698D02*
X9493991Y-13168746D01*
X9493991Y-13168746D02*
X9493991Y-13225888D01*
X9493991Y-13225888D02*
X9484467Y-13244936D01*
X9484467Y-13244936D02*
X9474944Y-13254460D01*
X9474944Y-13254460D02*
X9455896Y-13263984D01*
X9455896Y-13263984D02*
X9417801Y-13263984D01*
X9417801Y-13263984D02*
X9398753Y-13254460D01*
X9579705Y-13244936D02*
X9589229Y-13254460D01*
X9589229Y-13254460D02*
X9579705Y-13263984D01*
X9579705Y-13263984D02*
X9570182Y-13254460D01*
X9570182Y-13254460D02*
X9579705Y-13244936D01*
X9579705Y-13244936D02*
X9579705Y-13263984D01*
X9579705Y-13140174D02*
X9589229Y-13149698D01*
X9589229Y-13149698D02*
X9579705Y-13159222D01*
X9579705Y-13159222D02*
X9570182Y-13149698D01*
X9570182Y-13149698D02*
X9579705Y-13140174D01*
X9579705Y-13140174D02*
X9579705Y-13159222D01*
D12*
X7867500Y-13552500D02*
X7947500Y-13632500D01*
X7947500Y-13552500D02*
X7867500Y-13632500D01*
D11*
X8246372Y-13483984D02*
X8265420Y-13483984D01*
X8265420Y-13483984D02*
X8284467Y-13493508D01*
X8284467Y-13493508D02*
X8293991Y-13503031D01*
X8293991Y-13503031D02*
X8303515Y-13522079D01*
X8303515Y-13522079D02*
X8313039Y-13560174D01*
X8313039Y-13560174D02*
X8313039Y-13607793D01*
X8313039Y-13607793D02*
X8303515Y-13645888D01*
X8303515Y-13645888D02*
X8293991Y-13664936D01*
X8293991Y-13664936D02*
X8284467Y-13674460D01*
X8284467Y-13674460D02*
X8265420Y-13683984D01*
X8265420Y-13683984D02*
X8246372Y-13683984D01*
X8246372Y-13683984D02*
X8227324Y-13674460D01*
X8227324Y-13674460D02*
X8217801Y-13664936D01*
X8217801Y-13664936D02*
X8208277Y-13645888D01*
X8208277Y-13645888D02*
X8198753Y-13607793D01*
X8198753Y-13607793D02*
X8198753Y-13560174D01*
X8198753Y-13560174D02*
X8208277Y-13522079D01*
X8208277Y-13522079D02*
X8217801Y-13503031D01*
X8217801Y-13503031D02*
X8227324Y-13493508D01*
X8227324Y-13493508D02*
X8246372Y-13483984D01*
X8398753Y-13664936D02*
X8408277Y-13674460D01*
X8408277Y-13674460D02*
X8398753Y-13683984D01*
X8398753Y-13683984D02*
X8389229Y-13674460D01*
X8389229Y-13674460D02*
X8398753Y-13664936D01*
X8398753Y-13664936D02*
X8398753Y-13683984D01*
X8522563Y-13569698D02*
X8503515Y-13560174D01*
X8503515Y-13560174D02*
X8493991Y-13550650D01*
X8493991Y-13550650D02*
X8484467Y-13531603D01*
X8484467Y-13531603D02*
X8484467Y-13522079D01*
X8484467Y-13522079D02*
X8493991Y-13503031D01*
X8493991Y-13503031D02*
X8503515Y-13493508D01*
X8503515Y-13493508D02*
X8522563Y-13483984D01*
X8522563Y-13483984D02*
X8560658Y-13483984D01*
X8560658Y-13483984D02*
X8579705Y-13493508D01*
X8579705Y-13493508D02*
X8589229Y-13503031D01*
X8589229Y-13503031D02*
X8598753Y-13522079D01*
X8598753Y-13522079D02*
X8598753Y-13531603D01*
X8598753Y-13531603D02*
X8589229Y-13550650D01*
X8589229Y-13550650D02*
X8579705Y-13560174D01*
X8579705Y-13560174D02*
X8560658Y-13569698D01*
X8560658Y-13569698D02*
X8522563Y-13569698D01*
X8522563Y-13569698D02*
X8503515Y-13579222D01*
X8503515Y-13579222D02*
X8493991Y-13588746D01*
X8493991Y-13588746D02*
X8484467Y-13607793D01*
X8484467Y-13607793D02*
X8484467Y-13645888D01*
X8484467Y-13645888D02*
X8493991Y-13664936D01*
X8493991Y-13664936D02*
X8503515Y-13674460D01*
X8503515Y-13674460D02*
X8522563Y-13683984D01*
X8522563Y-13683984D02*
X8560658Y-13683984D01*
X8560658Y-13683984D02*
X8579705Y-13674460D01*
X8579705Y-13674460D02*
X8589229Y-13664936D01*
X8589229Y-13664936D02*
X8598753Y-13645888D01*
X8598753Y-13645888D02*
X8598753Y-13607793D01*
X8598753Y-13607793D02*
X8589229Y-13588746D01*
X8589229Y-13588746D02*
X8579705Y-13579222D01*
X8579705Y-13579222D02*
X8560658Y-13569698D01*
X8722563Y-13483984D02*
X8741610Y-13483984D01*
X8741610Y-13483984D02*
X8760658Y-13493508D01*
X8760658Y-13493508D02*
X8770182Y-13503031D01*
X8770182Y-13503031D02*
X8779705Y-13522079D01*
X8779705Y-13522079D02*
X8789229Y-13560174D01*
X8789229Y-13560174D02*
X8789229Y-13607793D01*
X8789229Y-13607793D02*
X8779705Y-13645888D01*
X8779705Y-13645888D02*
X8770182Y-13664936D01*
X8770182Y-13664936D02*
X8760658Y-13674460D01*
X8760658Y-13674460D02*
X8741610Y-13683984D01*
X8741610Y-13683984D02*
X8722563Y-13683984D01*
X8722563Y-13683984D02*
X8703515Y-13674460D01*
X8703515Y-13674460D02*
X8693991Y-13664936D01*
X8693991Y-13664936D02*
X8684467Y-13645888D01*
X8684467Y-13645888D02*
X8674944Y-13607793D01*
X8674944Y-13607793D02*
X8674944Y-13560174D01*
X8674944Y-13560174D02*
X8684467Y-13522079D01*
X8684467Y-13522079D02*
X8693991Y-13503031D01*
X8693991Y-13503031D02*
X8703515Y-13493508D01*
X8703515Y-13493508D02*
X8722563Y-13483984D01*
X8913039Y-13483984D02*
X8932086Y-13483984D01*
X8932086Y-13483984D02*
X8951134Y-13493508D01*
X8951134Y-13493508D02*
X8960658Y-13503031D01*
X8960658Y-13503031D02*
X8970182Y-13522079D01*
X8970182Y-13522079D02*
X8979705Y-13560174D01*
X8979705Y-13560174D02*
X8979705Y-13607793D01*
X8979705Y-13607793D02*
X8970182Y-13645888D01*
X8970182Y-13645888D02*
X8960658Y-13664936D01*
X8960658Y-13664936D02*
X8951134Y-13674460D01*
X8951134Y-13674460D02*
X8932086Y-13683984D01*
X8932086Y-13683984D02*
X8913039Y-13683984D01*
X8913039Y-13683984D02*
X8893991Y-13674460D01*
X8893991Y-13674460D02*
X8884467Y-13664936D01*
X8884467Y-13664936D02*
X8874944Y-13645888D01*
X8874944Y-13645888D02*
X8865420Y-13607793D01*
X8865420Y-13607793D02*
X8865420Y-13560174D01*
X8865420Y-13560174D02*
X8874944Y-13522079D01*
X8874944Y-13522079D02*
X8884467Y-13503031D01*
X8884467Y-13503031D02*
X8893991Y-13493508D01*
X8893991Y-13493508D02*
X8913039Y-13483984D01*
X9065420Y-13683984D02*
X9065420Y-13550650D01*
X9065420Y-13569698D02*
X9074944Y-13560174D01*
X9074944Y-13560174D02*
X9093991Y-13550650D01*
X9093991Y-13550650D02*
X9122563Y-13550650D01*
X9122563Y-13550650D02*
X9141610Y-13560174D01*
X9141610Y-13560174D02*
X9151134Y-13579222D01*
X9151134Y-13579222D02*
X9151134Y-13683984D01*
X9151134Y-13579222D02*
X9160658Y-13560174D01*
X9160658Y-13560174D02*
X9179705Y-13550650D01*
X9179705Y-13550650D02*
X9208277Y-13550650D01*
X9208277Y-13550650D02*
X9227325Y-13560174D01*
X9227325Y-13560174D02*
X9236848Y-13579222D01*
X9236848Y-13579222D02*
X9236848Y-13683984D01*
X9332086Y-13683984D02*
X9332086Y-13550650D01*
X9332086Y-13569698D02*
X9341610Y-13560174D01*
X9341610Y-13560174D02*
X9360658Y-13550650D01*
X9360658Y-13550650D02*
X9389229Y-13550650D01*
X9389229Y-13550650D02*
X9408277Y-13560174D01*
X9408277Y-13560174D02*
X9417801Y-13579222D01*
X9417801Y-13579222D02*
X9417801Y-13683984D01*
X9417801Y-13579222D02*
X9427325Y-13560174D01*
X9427325Y-13560174D02*
X9446372Y-13550650D01*
X9446372Y-13550650D02*
X9474944Y-13550650D01*
X9474944Y-13550650D02*
X9493991Y-13560174D01*
X9493991Y-13560174D02*
X9503515Y-13579222D01*
X9503515Y-13579222D02*
X9503515Y-13683984D01*
X9893991Y-13474460D02*
X9722563Y-13731603D01*
X10151134Y-13483984D02*
X10170182Y-13483984D01*
X10170182Y-13483984D02*
X10189229Y-13493508D01*
X10189229Y-13493508D02*
X10198753Y-13503031D01*
X10198753Y-13503031D02*
X10208277Y-13522079D01*
X10208277Y-13522079D02*
X10217801Y-13560174D01*
X10217801Y-13560174D02*
X10217801Y-13607793D01*
X10217801Y-13607793D02*
X10208277Y-13645888D01*
X10208277Y-13645888D02*
X10198753Y-13664936D01*
X10198753Y-13664936D02*
X10189229Y-13674460D01*
X10189229Y-13674460D02*
X10170182Y-13683984D01*
X10170182Y-13683984D02*
X10151134Y-13683984D01*
X10151134Y-13683984D02*
X10132087Y-13674460D01*
X10132087Y-13674460D02*
X10122563Y-13664936D01*
X10122563Y-13664936D02*
X10113039Y-13645888D01*
X10113039Y-13645888D02*
X10103515Y-13607793D01*
X10103515Y-13607793D02*
X10103515Y-13560174D01*
X10103515Y-13560174D02*
X10113039Y-13522079D01*
X10113039Y-13522079D02*
X10122563Y-13503031D01*
X10122563Y-13503031D02*
X10132087Y-13493508D01*
X10132087Y-13493508D02*
X10151134Y-13483984D01*
X10303515Y-13664936D02*
X10313039Y-13674460D01*
X10313039Y-13674460D02*
X10303515Y-13683984D01*
X10303515Y-13683984D02*
X10293991Y-13674460D01*
X10293991Y-13674460D02*
X10303515Y-13664936D01*
X10303515Y-13664936D02*
X10303515Y-13683984D01*
X10436848Y-13483984D02*
X10455896Y-13483984D01*
X10455896Y-13483984D02*
X10474944Y-13493508D01*
X10474944Y-13493508D02*
X10484468Y-13503031D01*
X10484468Y-13503031D02*
X10493991Y-13522079D01*
X10493991Y-13522079D02*
X10503515Y-13560174D01*
X10503515Y-13560174D02*
X10503515Y-13607793D01*
X10503515Y-13607793D02*
X10493991Y-13645888D01*
X10493991Y-13645888D02*
X10484468Y-13664936D01*
X10484468Y-13664936D02*
X10474944Y-13674460D01*
X10474944Y-13674460D02*
X10455896Y-13683984D01*
X10455896Y-13683984D02*
X10436848Y-13683984D01*
X10436848Y-13683984D02*
X10417801Y-13674460D01*
X10417801Y-13674460D02*
X10408277Y-13664936D01*
X10408277Y-13664936D02*
X10398753Y-13645888D01*
X10398753Y-13645888D02*
X10389229Y-13607793D01*
X10389229Y-13607793D02*
X10389229Y-13560174D01*
X10389229Y-13560174D02*
X10398753Y-13522079D01*
X10398753Y-13522079D02*
X10408277Y-13503031D01*
X10408277Y-13503031D02*
X10417801Y-13493508D01*
X10417801Y-13493508D02*
X10436848Y-13483984D01*
X10570182Y-13483984D02*
X10693991Y-13483984D01*
X10693991Y-13483984D02*
X10627325Y-13560174D01*
X10627325Y-13560174D02*
X10655896Y-13560174D01*
X10655896Y-13560174D02*
X10674944Y-13569698D01*
X10674944Y-13569698D02*
X10684468Y-13579222D01*
X10684468Y-13579222D02*
X10693991Y-13598269D01*
X10693991Y-13598269D02*
X10693991Y-13645888D01*
X10693991Y-13645888D02*
X10684468Y-13664936D01*
X10684468Y-13664936D02*
X10674944Y-13674460D01*
X10674944Y-13674460D02*
X10655896Y-13683984D01*
X10655896Y-13683984D02*
X10598753Y-13683984D01*
X10598753Y-13683984D02*
X10579706Y-13674460D01*
X10579706Y-13674460D02*
X10570182Y-13664936D01*
X10884468Y-13683984D02*
X10770182Y-13683984D01*
X10827325Y-13683984D02*
X10827325Y-13483984D01*
X10827325Y-13483984D02*
X10808277Y-13512555D01*
X10808277Y-13512555D02*
X10789229Y-13531603D01*
X10789229Y-13531603D02*
X10770182Y-13541127D01*
X11065420Y-13483984D02*
X10970182Y-13483984D01*
X10970182Y-13483984D02*
X10960658Y-13579222D01*
X10960658Y-13579222D02*
X10970182Y-13569698D01*
X10970182Y-13569698D02*
X10989229Y-13560174D01*
X10989229Y-13560174D02*
X11036849Y-13560174D01*
X11036849Y-13560174D02*
X11055896Y-13569698D01*
X11055896Y-13569698D02*
X11065420Y-13579222D01*
X11065420Y-13579222D02*
X11074944Y-13598269D01*
X11074944Y-13598269D02*
X11074944Y-13645888D01*
X11074944Y-13645888D02*
X11065420Y-13664936D01*
X11065420Y-13664936D02*
X11055896Y-13674460D01*
X11055896Y-13674460D02*
X11036849Y-13683984D01*
X11036849Y-13683984D02*
X10989229Y-13683984D01*
X10989229Y-13683984D02*
X10970182Y-13674460D01*
X10970182Y-13674460D02*
X10960658Y-13664936D01*
X11151134Y-13483984D02*
X11151134Y-13522079D01*
X11227325Y-13483984D02*
X11227325Y-13522079D01*
X11522563Y-13760174D02*
X11513039Y-13750650D01*
X11513039Y-13750650D02*
X11493991Y-13722079D01*
X11493991Y-13722079D02*
X11484468Y-13703031D01*
X11484468Y-13703031D02*
X11474944Y-13674460D01*
X11474944Y-13674460D02*
X11465420Y-13626841D01*
X11465420Y-13626841D02*
X11465420Y-13588746D01*
X11465420Y-13588746D02*
X11474944Y-13541127D01*
X11474944Y-13541127D02*
X11484468Y-13512555D01*
X11484468Y-13512555D02*
X11493991Y-13493508D01*
X11493991Y-13493508D02*
X11513039Y-13464936D01*
X11513039Y-13464936D02*
X11522563Y-13455412D01*
X11703515Y-13683984D02*
X11589229Y-13683984D01*
X11646372Y-13683984D02*
X11646372Y-13483984D01*
X11646372Y-13483984D02*
X11627325Y-13512555D01*
X11627325Y-13512555D02*
X11608277Y-13531603D01*
X11608277Y-13531603D02*
X11589229Y-13541127D01*
X11874944Y-13550650D02*
X11874944Y-13683984D01*
X11827325Y-13474460D02*
X11779706Y-13617317D01*
X11779706Y-13617317D02*
X11903515Y-13617317D01*
X12132087Y-13683984D02*
X12132087Y-13483984D01*
X12217801Y-13683984D02*
X12217801Y-13579222D01*
X12217801Y-13579222D02*
X12208277Y-13560174D01*
X12208277Y-13560174D02*
X12189230Y-13550650D01*
X12189230Y-13550650D02*
X12160658Y-13550650D01*
X12160658Y-13550650D02*
X12141610Y-13560174D01*
X12141610Y-13560174D02*
X12132087Y-13569698D01*
X12341610Y-13683984D02*
X12322563Y-13674460D01*
X12322563Y-13674460D02*
X12313039Y-13664936D01*
X12313039Y-13664936D02*
X12303515Y-13645888D01*
X12303515Y-13645888D02*
X12303515Y-13588746D01*
X12303515Y-13588746D02*
X12313039Y-13569698D01*
X12313039Y-13569698D02*
X12322563Y-13560174D01*
X12322563Y-13560174D02*
X12341610Y-13550650D01*
X12341610Y-13550650D02*
X12370182Y-13550650D01*
X12370182Y-13550650D02*
X12389230Y-13560174D01*
X12389230Y-13560174D02*
X12398753Y-13569698D01*
X12398753Y-13569698D02*
X12408277Y-13588746D01*
X12408277Y-13588746D02*
X12408277Y-13645888D01*
X12408277Y-13645888D02*
X12398753Y-13664936D01*
X12398753Y-13664936D02*
X12389230Y-13674460D01*
X12389230Y-13674460D02*
X12370182Y-13683984D01*
X12370182Y-13683984D02*
X12341610Y-13683984D01*
X12522563Y-13683984D02*
X12503515Y-13674460D01*
X12503515Y-13674460D02*
X12493991Y-13655412D01*
X12493991Y-13655412D02*
X12493991Y-13483984D01*
X12674944Y-13674460D02*
X12655896Y-13683984D01*
X12655896Y-13683984D02*
X12617801Y-13683984D01*
X12617801Y-13683984D02*
X12598753Y-13674460D01*
X12598753Y-13674460D02*
X12589230Y-13655412D01*
X12589230Y-13655412D02*
X12589230Y-13579222D01*
X12589230Y-13579222D02*
X12598753Y-13560174D01*
X12598753Y-13560174D02*
X12617801Y-13550650D01*
X12617801Y-13550650D02*
X12655896Y-13550650D01*
X12655896Y-13550650D02*
X12674944Y-13560174D01*
X12674944Y-13560174D02*
X12684468Y-13579222D01*
X12684468Y-13579222D02*
X12684468Y-13598269D01*
X12684468Y-13598269D02*
X12589230Y-13617317D01*
X12760658Y-13674460D02*
X12779706Y-13683984D01*
X12779706Y-13683984D02*
X12817801Y-13683984D01*
X12817801Y-13683984D02*
X12836849Y-13674460D01*
X12836849Y-13674460D02*
X12846372Y-13655412D01*
X12846372Y-13655412D02*
X12846372Y-13645888D01*
X12846372Y-13645888D02*
X12836849Y-13626841D01*
X12836849Y-13626841D02*
X12817801Y-13617317D01*
X12817801Y-13617317D02*
X12789230Y-13617317D01*
X12789230Y-13617317D02*
X12770182Y-13607793D01*
X12770182Y-13607793D02*
X12760658Y-13588746D01*
X12760658Y-13588746D02*
X12760658Y-13579222D01*
X12760658Y-13579222D02*
X12770182Y-13560174D01*
X12770182Y-13560174D02*
X12789230Y-13550650D01*
X12789230Y-13550650D02*
X12817801Y-13550650D01*
X12817801Y-13550650D02*
X12836849Y-13560174D01*
X12913039Y-13760174D02*
X12922563Y-13750650D01*
X12922563Y-13750650D02*
X12941611Y-13722079D01*
X12941611Y-13722079D02*
X12951134Y-13703031D01*
X12951134Y-13703031D02*
X12960658Y-13674460D01*
X12960658Y-13674460D02*
X12970182Y-13626841D01*
X12970182Y-13626841D02*
X12970182Y-13588746D01*
X12970182Y-13588746D02*
X12960658Y-13541127D01*
X12960658Y-13541127D02*
X12951134Y-13512555D01*
X12951134Y-13512555D02*
X12941611Y-13493508D01*
X12941611Y-13493508D02*
X12922563Y-13464936D01*
X12922563Y-13464936D02*
X12913039Y-13455412D01*
D13*
X7947500Y-13856500D02*
G75*
G02*
X7837500Y-13856500I-55000J0D01*
G01*
X7837500Y-13856500D02*
G75*
G02*
X7947500Y-13856500I55000J0D01*
G01*
D11*
X8313039Y-13947984D02*
X8198753Y-13947984D01*
X8255896Y-13947984D02*
X8255896Y-13747984D01*
X8255896Y-13747984D02*
X8236848Y-13776555D01*
X8236848Y-13776555D02*
X8217801Y-13795603D01*
X8217801Y-13795603D02*
X8198753Y-13805127D01*
X8398753Y-13928936D02*
X8408277Y-13938460D01*
X8408277Y-13938460D02*
X8398753Y-13947984D01*
X8398753Y-13947984D02*
X8389229Y-13938460D01*
X8389229Y-13938460D02*
X8398753Y-13928936D01*
X8398753Y-13928936D02*
X8398753Y-13947984D01*
X8598753Y-13947984D02*
X8484467Y-13947984D01*
X8541610Y-13947984D02*
X8541610Y-13747984D01*
X8541610Y-13747984D02*
X8522563Y-13776555D01*
X8522563Y-13776555D02*
X8503515Y-13795603D01*
X8503515Y-13795603D02*
X8484467Y-13805127D01*
X8722563Y-13747984D02*
X8741610Y-13747984D01*
X8741610Y-13747984D02*
X8760658Y-13757508D01*
X8760658Y-13757508D02*
X8770182Y-13767031D01*
X8770182Y-13767031D02*
X8779705Y-13786079D01*
X8779705Y-13786079D02*
X8789229Y-13824174D01*
X8789229Y-13824174D02*
X8789229Y-13871793D01*
X8789229Y-13871793D02*
X8779705Y-13909888D01*
X8779705Y-13909888D02*
X8770182Y-13928936D01*
X8770182Y-13928936D02*
X8760658Y-13938460D01*
X8760658Y-13938460D02*
X8741610Y-13947984D01*
X8741610Y-13947984D02*
X8722563Y-13947984D01*
X8722563Y-13947984D02*
X8703515Y-13938460D01*
X8703515Y-13938460D02*
X8693991Y-13928936D01*
X8693991Y-13928936D02*
X8684467Y-13909888D01*
X8684467Y-13909888D02*
X8674944Y-13871793D01*
X8674944Y-13871793D02*
X8674944Y-13824174D01*
X8674944Y-13824174D02*
X8684467Y-13786079D01*
X8684467Y-13786079D02*
X8693991Y-13767031D01*
X8693991Y-13767031D02*
X8703515Y-13757508D01*
X8703515Y-13757508D02*
X8722563Y-13747984D01*
X8913039Y-13747984D02*
X8932086Y-13747984D01*
X8932086Y-13747984D02*
X8951134Y-13757508D01*
X8951134Y-13757508D02*
X8960658Y-13767031D01*
X8960658Y-13767031D02*
X8970182Y-13786079D01*
X8970182Y-13786079D02*
X8979705Y-13824174D01*
X8979705Y-13824174D02*
X8979705Y-13871793D01*
X8979705Y-13871793D02*
X8970182Y-13909888D01*
X8970182Y-13909888D02*
X8960658Y-13928936D01*
X8960658Y-13928936D02*
X8951134Y-13938460D01*
X8951134Y-13938460D02*
X8932086Y-13947984D01*
X8932086Y-13947984D02*
X8913039Y-13947984D01*
X8913039Y-13947984D02*
X8893991Y-13938460D01*
X8893991Y-13938460D02*
X8884467Y-13928936D01*
X8884467Y-13928936D02*
X8874944Y-13909888D01*
X8874944Y-13909888D02*
X8865420Y-13871793D01*
X8865420Y-13871793D02*
X8865420Y-13824174D01*
X8865420Y-13824174D02*
X8874944Y-13786079D01*
X8874944Y-13786079D02*
X8884467Y-13767031D01*
X8884467Y-13767031D02*
X8893991Y-13757508D01*
X8893991Y-13757508D02*
X8913039Y-13747984D01*
X9065420Y-13947984D02*
X9065420Y-13814650D01*
X9065420Y-13833698D02*
X9074944Y-13824174D01*
X9074944Y-13824174D02*
X9093991Y-13814650D01*
X9093991Y-13814650D02*
X9122563Y-13814650D01*
X9122563Y-13814650D02*
X9141610Y-13824174D01*
X9141610Y-13824174D02*
X9151134Y-13843222D01*
X9151134Y-13843222D02*
X9151134Y-13947984D01*
X9151134Y-13843222D02*
X9160658Y-13824174D01*
X9160658Y-13824174D02*
X9179705Y-13814650D01*
X9179705Y-13814650D02*
X9208277Y-13814650D01*
X9208277Y-13814650D02*
X9227325Y-13824174D01*
X9227325Y-13824174D02*
X9236848Y-13843222D01*
X9236848Y-13843222D02*
X9236848Y-13947984D01*
X9332086Y-13947984D02*
X9332086Y-13814650D01*
X9332086Y-13833698D02*
X9341610Y-13824174D01*
X9341610Y-13824174D02*
X9360658Y-13814650D01*
X9360658Y-13814650D02*
X9389229Y-13814650D01*
X9389229Y-13814650D02*
X9408277Y-13824174D01*
X9408277Y-13824174D02*
X9417801Y-13843222D01*
X9417801Y-13843222D02*
X9417801Y-13947984D01*
X9417801Y-13843222D02*
X9427325Y-13824174D01*
X9427325Y-13824174D02*
X9446372Y-13814650D01*
X9446372Y-13814650D02*
X9474944Y-13814650D01*
X9474944Y-13814650D02*
X9493991Y-13824174D01*
X9493991Y-13824174D02*
X9503515Y-13843222D01*
X9503515Y-13843222D02*
X9503515Y-13947984D01*
X9893991Y-13738460D02*
X9722563Y-13995603D01*
X10151134Y-13747984D02*
X10170182Y-13747984D01*
X10170182Y-13747984D02*
X10189229Y-13757508D01*
X10189229Y-13757508D02*
X10198753Y-13767031D01*
X10198753Y-13767031D02*
X10208277Y-13786079D01*
X10208277Y-13786079D02*
X10217801Y-13824174D01*
X10217801Y-13824174D02*
X10217801Y-13871793D01*
X10217801Y-13871793D02*
X10208277Y-13909888D01*
X10208277Y-13909888D02*
X10198753Y-13928936D01*
X10198753Y-13928936D02*
X10189229Y-13938460D01*
X10189229Y-13938460D02*
X10170182Y-13947984D01*
X10170182Y-13947984D02*
X10151134Y-13947984D01*
X10151134Y-13947984D02*
X10132087Y-13938460D01*
X10132087Y-13938460D02*
X10122563Y-13928936D01*
X10122563Y-13928936D02*
X10113039Y-13909888D01*
X10113039Y-13909888D02*
X10103515Y-13871793D01*
X10103515Y-13871793D02*
X10103515Y-13824174D01*
X10103515Y-13824174D02*
X10113039Y-13786079D01*
X10113039Y-13786079D02*
X10122563Y-13767031D01*
X10122563Y-13767031D02*
X10132087Y-13757508D01*
X10132087Y-13757508D02*
X10151134Y-13747984D01*
X10303515Y-13928936D02*
X10313039Y-13938460D01*
X10313039Y-13938460D02*
X10303515Y-13947984D01*
X10303515Y-13947984D02*
X10293991Y-13938460D01*
X10293991Y-13938460D02*
X10303515Y-13928936D01*
X10303515Y-13928936D02*
X10303515Y-13947984D01*
X10436848Y-13747984D02*
X10455896Y-13747984D01*
X10455896Y-13747984D02*
X10474944Y-13757508D01*
X10474944Y-13757508D02*
X10484468Y-13767031D01*
X10484468Y-13767031D02*
X10493991Y-13786079D01*
X10493991Y-13786079D02*
X10503515Y-13824174D01*
X10503515Y-13824174D02*
X10503515Y-13871793D01*
X10503515Y-13871793D02*
X10493991Y-13909888D01*
X10493991Y-13909888D02*
X10484468Y-13928936D01*
X10484468Y-13928936D02*
X10474944Y-13938460D01*
X10474944Y-13938460D02*
X10455896Y-13947984D01*
X10455896Y-13947984D02*
X10436848Y-13947984D01*
X10436848Y-13947984D02*
X10417801Y-13938460D01*
X10417801Y-13938460D02*
X10408277Y-13928936D01*
X10408277Y-13928936D02*
X10398753Y-13909888D01*
X10398753Y-13909888D02*
X10389229Y-13871793D01*
X10389229Y-13871793D02*
X10389229Y-13824174D01*
X10389229Y-13824174D02*
X10398753Y-13786079D01*
X10398753Y-13786079D02*
X10408277Y-13767031D01*
X10408277Y-13767031D02*
X10417801Y-13757508D01*
X10417801Y-13757508D02*
X10436848Y-13747984D01*
X10674944Y-13814650D02*
X10674944Y-13947984D01*
X10627325Y-13738460D02*
X10579706Y-13881317D01*
X10579706Y-13881317D02*
X10703515Y-13881317D01*
X10760658Y-13747984D02*
X10884468Y-13747984D01*
X10884468Y-13747984D02*
X10817801Y-13824174D01*
X10817801Y-13824174D02*
X10846372Y-13824174D01*
X10846372Y-13824174D02*
X10865420Y-13833698D01*
X10865420Y-13833698D02*
X10874944Y-13843222D01*
X10874944Y-13843222D02*
X10884468Y-13862269D01*
X10884468Y-13862269D02*
X10884468Y-13909888D01*
X10884468Y-13909888D02*
X10874944Y-13928936D01*
X10874944Y-13928936D02*
X10865420Y-13938460D01*
X10865420Y-13938460D02*
X10846372Y-13947984D01*
X10846372Y-13947984D02*
X10789229Y-13947984D01*
X10789229Y-13947984D02*
X10770182Y-13938460D01*
X10770182Y-13938460D02*
X10760658Y-13928936D01*
X10951134Y-13747984D02*
X11074944Y-13747984D01*
X11074944Y-13747984D02*
X11008277Y-13824174D01*
X11008277Y-13824174D02*
X11036849Y-13824174D01*
X11036849Y-13824174D02*
X11055896Y-13833698D01*
X11055896Y-13833698D02*
X11065420Y-13843222D01*
X11065420Y-13843222D02*
X11074944Y-13862269D01*
X11074944Y-13862269D02*
X11074944Y-13909888D01*
X11074944Y-13909888D02*
X11065420Y-13928936D01*
X11065420Y-13928936D02*
X11055896Y-13938460D01*
X11055896Y-13938460D02*
X11036849Y-13947984D01*
X11036849Y-13947984D02*
X10979706Y-13947984D01*
X10979706Y-13947984D02*
X10960658Y-13938460D01*
X10960658Y-13938460D02*
X10951134Y-13928936D01*
X11151134Y-13747984D02*
X11151134Y-13786079D01*
X11227325Y-13747984D02*
X11227325Y-13786079D01*
X11522563Y-14024174D02*
X11513039Y-14014650D01*
X11513039Y-14014650D02*
X11493991Y-13986079D01*
X11493991Y-13986079D02*
X11484468Y-13967031D01*
X11484468Y-13967031D02*
X11474944Y-13938460D01*
X11474944Y-13938460D02*
X11465420Y-13890841D01*
X11465420Y-13890841D02*
X11465420Y-13852746D01*
X11465420Y-13852746D02*
X11474944Y-13805127D01*
X11474944Y-13805127D02*
X11484468Y-13776555D01*
X11484468Y-13776555D02*
X11493991Y-13757508D01*
X11493991Y-13757508D02*
X11513039Y-13728936D01*
X11513039Y-13728936D02*
X11522563Y-13719412D01*
X11684468Y-13814650D02*
X11684468Y-13947984D01*
X11636848Y-13738460D02*
X11589229Y-13881317D01*
X11589229Y-13881317D02*
X11713039Y-13881317D01*
X11817801Y-13833698D02*
X11798753Y-13824174D01*
X11798753Y-13824174D02*
X11789229Y-13814650D01*
X11789229Y-13814650D02*
X11779706Y-13795603D01*
X11779706Y-13795603D02*
X11779706Y-13786079D01*
X11779706Y-13786079D02*
X11789229Y-13767031D01*
X11789229Y-13767031D02*
X11798753Y-13757508D01*
X11798753Y-13757508D02*
X11817801Y-13747984D01*
X11817801Y-13747984D02*
X11855896Y-13747984D01*
X11855896Y-13747984D02*
X11874944Y-13757508D01*
X11874944Y-13757508D02*
X11884468Y-13767031D01*
X11884468Y-13767031D02*
X11893991Y-13786079D01*
X11893991Y-13786079D02*
X11893991Y-13795603D01*
X11893991Y-13795603D02*
X11884468Y-13814650D01*
X11884468Y-13814650D02*
X11874944Y-13824174D01*
X11874944Y-13824174D02*
X11855896Y-13833698D01*
X11855896Y-13833698D02*
X11817801Y-13833698D01*
X11817801Y-13833698D02*
X11798753Y-13843222D01*
X11798753Y-13843222D02*
X11789229Y-13852746D01*
X11789229Y-13852746D02*
X11779706Y-13871793D01*
X11779706Y-13871793D02*
X11779706Y-13909888D01*
X11779706Y-13909888D02*
X11789229Y-13928936D01*
X11789229Y-13928936D02*
X11798753Y-13938460D01*
X11798753Y-13938460D02*
X11817801Y-13947984D01*
X11817801Y-13947984D02*
X11855896Y-13947984D01*
X11855896Y-13947984D02*
X11874944Y-13938460D01*
X11874944Y-13938460D02*
X11884468Y-13928936D01*
X11884468Y-13928936D02*
X11893991Y-13909888D01*
X11893991Y-13909888D02*
X11893991Y-13871793D01*
X11893991Y-13871793D02*
X11884468Y-13852746D01*
X11884468Y-13852746D02*
X11874944Y-13843222D01*
X11874944Y-13843222D02*
X11855896Y-13833698D01*
X12132087Y-13947984D02*
X12132087Y-13747984D01*
X12217801Y-13947984D02*
X12217801Y-13843222D01*
X12217801Y-13843222D02*
X12208277Y-13824174D01*
X12208277Y-13824174D02*
X12189230Y-13814650D01*
X12189230Y-13814650D02*
X12160658Y-13814650D01*
X12160658Y-13814650D02*
X12141610Y-13824174D01*
X12141610Y-13824174D02*
X12132087Y-13833698D01*
X12341610Y-13947984D02*
X12322563Y-13938460D01*
X12322563Y-13938460D02*
X12313039Y-13928936D01*
X12313039Y-13928936D02*
X12303515Y-13909888D01*
X12303515Y-13909888D02*
X12303515Y-13852746D01*
X12303515Y-13852746D02*
X12313039Y-13833698D01*
X12313039Y-13833698D02*
X12322563Y-13824174D01*
X12322563Y-13824174D02*
X12341610Y-13814650D01*
X12341610Y-13814650D02*
X12370182Y-13814650D01*
X12370182Y-13814650D02*
X12389230Y-13824174D01*
X12389230Y-13824174D02*
X12398753Y-13833698D01*
X12398753Y-13833698D02*
X12408277Y-13852746D01*
X12408277Y-13852746D02*
X12408277Y-13909888D01*
X12408277Y-13909888D02*
X12398753Y-13928936D01*
X12398753Y-13928936D02*
X12389230Y-13938460D01*
X12389230Y-13938460D02*
X12370182Y-13947984D01*
X12370182Y-13947984D02*
X12341610Y-13947984D01*
X12522563Y-13947984D02*
X12503515Y-13938460D01*
X12503515Y-13938460D02*
X12493991Y-13919412D01*
X12493991Y-13919412D02*
X12493991Y-13747984D01*
X12674944Y-13938460D02*
X12655896Y-13947984D01*
X12655896Y-13947984D02*
X12617801Y-13947984D01*
X12617801Y-13947984D02*
X12598753Y-13938460D01*
X12598753Y-13938460D02*
X12589230Y-13919412D01*
X12589230Y-13919412D02*
X12589230Y-13843222D01*
X12589230Y-13843222D02*
X12598753Y-13824174D01*
X12598753Y-13824174D02*
X12617801Y-13814650D01*
X12617801Y-13814650D02*
X12655896Y-13814650D01*
X12655896Y-13814650D02*
X12674944Y-13824174D01*
X12674944Y-13824174D02*
X12684468Y-13843222D01*
X12684468Y-13843222D02*
X12684468Y-13862269D01*
X12684468Y-13862269D02*
X12589230Y-13881317D01*
X12760658Y-13938460D02*
X12779706Y-13947984D01*
X12779706Y-13947984D02*
X12817801Y-13947984D01*
X12817801Y-13947984D02*
X12836849Y-13938460D01*
X12836849Y-13938460D02*
X12846372Y-13919412D01*
X12846372Y-13919412D02*
X12846372Y-13909888D01*
X12846372Y-13909888D02*
X12836849Y-13890841D01*
X12836849Y-13890841D02*
X12817801Y-13881317D01*
X12817801Y-13881317D02*
X12789230Y-13881317D01*
X12789230Y-13881317D02*
X12770182Y-13871793D01*
X12770182Y-13871793D02*
X12760658Y-13852746D01*
X12760658Y-13852746D02*
X12760658Y-13843222D01*
X12760658Y-13843222D02*
X12770182Y-13824174D01*
X12770182Y-13824174D02*
X12789230Y-13814650D01*
X12789230Y-13814650D02*
X12817801Y-13814650D01*
X12817801Y-13814650D02*
X12836849Y-13824174D01*
X12913039Y-14024174D02*
X12922563Y-14014650D01*
X12922563Y-14014650D02*
X12941611Y-13986079D01*
X12941611Y-13986079D02*
X12951134Y-13967031D01*
X12951134Y-13967031D02*
X12960658Y-13938460D01*
X12960658Y-13938460D02*
X12970182Y-13890841D01*
X12970182Y-13890841D02*
X12970182Y-13852746D01*
X12970182Y-13852746D02*
X12960658Y-13805127D01*
X12960658Y-13805127D02*
X12951134Y-13776555D01*
X12951134Y-13776555D02*
X12941611Y-13757508D01*
X12941611Y-13757508D02*
X12922563Y-13728936D01*
X12922563Y-13728936D02*
X12913039Y-13719412D01*
D14*
X7882500Y-14055500D02*
X7882500Y-14185500D01*
X7817500Y-14120500D02*
X7947500Y-14120500D01*
D11*
X8313039Y-14211984D02*
X8198753Y-14211984D01*
X8255896Y-14211984D02*
X8255896Y-14011984D01*
X8255896Y-14011984D02*
X8236848Y-14040555D01*
X8236848Y-14040555D02*
X8217801Y-14059603D01*
X8217801Y-14059603D02*
X8198753Y-14069127D01*
X8398753Y-14192936D02*
X8408277Y-14202460D01*
X8408277Y-14202460D02*
X8398753Y-14211984D01*
X8398753Y-14211984D02*
X8389229Y-14202460D01*
X8389229Y-14202460D02*
X8398753Y-14192936D01*
X8398753Y-14192936D02*
X8398753Y-14211984D01*
X8474944Y-14011984D02*
X8598753Y-14011984D01*
X8598753Y-14011984D02*
X8532086Y-14088174D01*
X8532086Y-14088174D02*
X8560658Y-14088174D01*
X8560658Y-14088174D02*
X8579705Y-14097698D01*
X8579705Y-14097698D02*
X8589229Y-14107222D01*
X8589229Y-14107222D02*
X8598753Y-14126269D01*
X8598753Y-14126269D02*
X8598753Y-14173888D01*
X8598753Y-14173888D02*
X8589229Y-14192936D01*
X8589229Y-14192936D02*
X8579705Y-14202460D01*
X8579705Y-14202460D02*
X8560658Y-14211984D01*
X8560658Y-14211984D02*
X8503515Y-14211984D01*
X8503515Y-14211984D02*
X8484467Y-14202460D01*
X8484467Y-14202460D02*
X8474944Y-14192936D01*
X8722563Y-14011984D02*
X8741610Y-14011984D01*
X8741610Y-14011984D02*
X8760658Y-14021508D01*
X8760658Y-14021508D02*
X8770182Y-14031031D01*
X8770182Y-14031031D02*
X8779705Y-14050079D01*
X8779705Y-14050079D02*
X8789229Y-14088174D01*
X8789229Y-14088174D02*
X8789229Y-14135793D01*
X8789229Y-14135793D02*
X8779705Y-14173888D01*
X8779705Y-14173888D02*
X8770182Y-14192936D01*
X8770182Y-14192936D02*
X8760658Y-14202460D01*
X8760658Y-14202460D02*
X8741610Y-14211984D01*
X8741610Y-14211984D02*
X8722563Y-14211984D01*
X8722563Y-14211984D02*
X8703515Y-14202460D01*
X8703515Y-14202460D02*
X8693991Y-14192936D01*
X8693991Y-14192936D02*
X8684467Y-14173888D01*
X8684467Y-14173888D02*
X8674944Y-14135793D01*
X8674944Y-14135793D02*
X8674944Y-14088174D01*
X8674944Y-14088174D02*
X8684467Y-14050079D01*
X8684467Y-14050079D02*
X8693991Y-14031031D01*
X8693991Y-14031031D02*
X8703515Y-14021508D01*
X8703515Y-14021508D02*
X8722563Y-14011984D01*
X8913039Y-14011984D02*
X8932086Y-14011984D01*
X8932086Y-14011984D02*
X8951134Y-14021508D01*
X8951134Y-14021508D02*
X8960658Y-14031031D01*
X8960658Y-14031031D02*
X8970182Y-14050079D01*
X8970182Y-14050079D02*
X8979705Y-14088174D01*
X8979705Y-14088174D02*
X8979705Y-14135793D01*
X8979705Y-14135793D02*
X8970182Y-14173888D01*
X8970182Y-14173888D02*
X8960658Y-14192936D01*
X8960658Y-14192936D02*
X8951134Y-14202460D01*
X8951134Y-14202460D02*
X8932086Y-14211984D01*
X8932086Y-14211984D02*
X8913039Y-14211984D01*
X8913039Y-14211984D02*
X8893991Y-14202460D01*
X8893991Y-14202460D02*
X8884467Y-14192936D01*
X8884467Y-14192936D02*
X8874944Y-14173888D01*
X8874944Y-14173888D02*
X8865420Y-14135793D01*
X8865420Y-14135793D02*
X8865420Y-14088174D01*
X8865420Y-14088174D02*
X8874944Y-14050079D01*
X8874944Y-14050079D02*
X8884467Y-14031031D01*
X8884467Y-14031031D02*
X8893991Y-14021508D01*
X8893991Y-14021508D02*
X8913039Y-14011984D01*
X9065420Y-14211984D02*
X9065420Y-14078650D01*
X9065420Y-14097698D02*
X9074944Y-14088174D01*
X9074944Y-14088174D02*
X9093991Y-14078650D01*
X9093991Y-14078650D02*
X9122563Y-14078650D01*
X9122563Y-14078650D02*
X9141610Y-14088174D01*
X9141610Y-14088174D02*
X9151134Y-14107222D01*
X9151134Y-14107222D02*
X9151134Y-14211984D01*
X9151134Y-14107222D02*
X9160658Y-14088174D01*
X9160658Y-14088174D02*
X9179705Y-14078650D01*
X9179705Y-14078650D02*
X9208277Y-14078650D01*
X9208277Y-14078650D02*
X9227325Y-14088174D01*
X9227325Y-14088174D02*
X9236848Y-14107222D01*
X9236848Y-14107222D02*
X9236848Y-14211984D01*
X9332086Y-14211984D02*
X9332086Y-14078650D01*
X9332086Y-14097698D02*
X9341610Y-14088174D01*
X9341610Y-14088174D02*
X9360658Y-14078650D01*
X9360658Y-14078650D02*
X9389229Y-14078650D01*
X9389229Y-14078650D02*
X9408277Y-14088174D01*
X9408277Y-14088174D02*
X9417801Y-14107222D01*
X9417801Y-14107222D02*
X9417801Y-14211984D01*
X9417801Y-14107222D02*
X9427325Y-14088174D01*
X9427325Y-14088174D02*
X9446372Y-14078650D01*
X9446372Y-14078650D02*
X9474944Y-14078650D01*
X9474944Y-14078650D02*
X9493991Y-14088174D01*
X9493991Y-14088174D02*
X9503515Y-14107222D01*
X9503515Y-14107222D02*
X9503515Y-14211984D01*
X9893991Y-14002460D02*
X9722563Y-14259603D01*
X10151134Y-14011984D02*
X10170182Y-14011984D01*
X10170182Y-14011984D02*
X10189229Y-14021508D01*
X10189229Y-14021508D02*
X10198753Y-14031031D01*
X10198753Y-14031031D02*
X10208277Y-14050079D01*
X10208277Y-14050079D02*
X10217801Y-14088174D01*
X10217801Y-14088174D02*
X10217801Y-14135793D01*
X10217801Y-14135793D02*
X10208277Y-14173888D01*
X10208277Y-14173888D02*
X10198753Y-14192936D01*
X10198753Y-14192936D02*
X10189229Y-14202460D01*
X10189229Y-14202460D02*
X10170182Y-14211984D01*
X10170182Y-14211984D02*
X10151134Y-14211984D01*
X10151134Y-14211984D02*
X10132087Y-14202460D01*
X10132087Y-14202460D02*
X10122563Y-14192936D01*
X10122563Y-14192936D02*
X10113039Y-14173888D01*
X10113039Y-14173888D02*
X10103515Y-14135793D01*
X10103515Y-14135793D02*
X10103515Y-14088174D01*
X10103515Y-14088174D02*
X10113039Y-14050079D01*
X10113039Y-14050079D02*
X10122563Y-14031031D01*
X10122563Y-14031031D02*
X10132087Y-14021508D01*
X10132087Y-14021508D02*
X10151134Y-14011984D01*
X10303515Y-14192936D02*
X10313039Y-14202460D01*
X10313039Y-14202460D02*
X10303515Y-14211984D01*
X10303515Y-14211984D02*
X10293991Y-14202460D01*
X10293991Y-14202460D02*
X10303515Y-14192936D01*
X10303515Y-14192936D02*
X10303515Y-14211984D01*
X10436848Y-14011984D02*
X10455896Y-14011984D01*
X10455896Y-14011984D02*
X10474944Y-14021508D01*
X10474944Y-14021508D02*
X10484468Y-14031031D01*
X10484468Y-14031031D02*
X10493991Y-14050079D01*
X10493991Y-14050079D02*
X10503515Y-14088174D01*
X10503515Y-14088174D02*
X10503515Y-14135793D01*
X10503515Y-14135793D02*
X10493991Y-14173888D01*
X10493991Y-14173888D02*
X10484468Y-14192936D01*
X10484468Y-14192936D02*
X10474944Y-14202460D01*
X10474944Y-14202460D02*
X10455896Y-14211984D01*
X10455896Y-14211984D02*
X10436848Y-14211984D01*
X10436848Y-14211984D02*
X10417801Y-14202460D01*
X10417801Y-14202460D02*
X10408277Y-14192936D01*
X10408277Y-14192936D02*
X10398753Y-14173888D01*
X10398753Y-14173888D02*
X10389229Y-14135793D01*
X10389229Y-14135793D02*
X10389229Y-14088174D01*
X10389229Y-14088174D02*
X10398753Y-14050079D01*
X10398753Y-14050079D02*
X10408277Y-14031031D01*
X10408277Y-14031031D02*
X10417801Y-14021508D01*
X10417801Y-14021508D02*
X10436848Y-14011984D01*
X10684468Y-14011984D02*
X10589229Y-14011984D01*
X10589229Y-14011984D02*
X10579706Y-14107222D01*
X10579706Y-14107222D02*
X10589229Y-14097698D01*
X10589229Y-14097698D02*
X10608277Y-14088174D01*
X10608277Y-14088174D02*
X10655896Y-14088174D01*
X10655896Y-14088174D02*
X10674944Y-14097698D01*
X10674944Y-14097698D02*
X10684468Y-14107222D01*
X10684468Y-14107222D02*
X10693991Y-14126269D01*
X10693991Y-14126269D02*
X10693991Y-14173888D01*
X10693991Y-14173888D02*
X10684468Y-14192936D01*
X10684468Y-14192936D02*
X10674944Y-14202460D01*
X10674944Y-14202460D02*
X10655896Y-14211984D01*
X10655896Y-14211984D02*
X10608277Y-14211984D01*
X10608277Y-14211984D02*
X10589229Y-14202460D01*
X10589229Y-14202460D02*
X10579706Y-14192936D01*
X10884468Y-14211984D02*
X10770182Y-14211984D01*
X10827325Y-14211984D02*
X10827325Y-14011984D01*
X10827325Y-14011984D02*
X10808277Y-14040555D01*
X10808277Y-14040555D02*
X10789229Y-14059603D01*
X10789229Y-14059603D02*
X10770182Y-14069127D01*
X10960658Y-14031031D02*
X10970182Y-14021508D01*
X10970182Y-14021508D02*
X10989229Y-14011984D01*
X10989229Y-14011984D02*
X11036849Y-14011984D01*
X11036849Y-14011984D02*
X11055896Y-14021508D01*
X11055896Y-14021508D02*
X11065420Y-14031031D01*
X11065420Y-14031031D02*
X11074944Y-14050079D01*
X11074944Y-14050079D02*
X11074944Y-14069127D01*
X11074944Y-14069127D02*
X11065420Y-14097698D01*
X11065420Y-14097698D02*
X10951134Y-14211984D01*
X10951134Y-14211984D02*
X11074944Y-14211984D01*
X11151134Y-14011984D02*
X11151134Y-14050079D01*
X11227325Y-14011984D02*
X11227325Y-14050079D01*
X11522563Y-14288174D02*
X11513039Y-14278650D01*
X11513039Y-14278650D02*
X11493991Y-14250079D01*
X11493991Y-14250079D02*
X11484468Y-14231031D01*
X11484468Y-14231031D02*
X11474944Y-14202460D01*
X11474944Y-14202460D02*
X11465420Y-14154841D01*
X11465420Y-14154841D02*
X11465420Y-14116746D01*
X11465420Y-14116746D02*
X11474944Y-14069127D01*
X11474944Y-14069127D02*
X11484468Y-14040555D01*
X11484468Y-14040555D02*
X11493991Y-14021508D01*
X11493991Y-14021508D02*
X11513039Y-13992936D01*
X11513039Y-13992936D02*
X11522563Y-13983412D01*
X11684468Y-14078650D02*
X11684468Y-14211984D01*
X11636848Y-14002460D02*
X11589229Y-14145317D01*
X11589229Y-14145317D02*
X11713039Y-14145317D01*
X11798753Y-14211984D02*
X11836848Y-14211984D01*
X11836848Y-14211984D02*
X11855896Y-14202460D01*
X11855896Y-14202460D02*
X11865420Y-14192936D01*
X11865420Y-14192936D02*
X11884468Y-14164365D01*
X11884468Y-14164365D02*
X11893991Y-14126269D01*
X11893991Y-14126269D02*
X11893991Y-14050079D01*
X11893991Y-14050079D02*
X11884468Y-14031031D01*
X11884468Y-14031031D02*
X11874944Y-14021508D01*
X11874944Y-14021508D02*
X11855896Y-14011984D01*
X11855896Y-14011984D02*
X11817801Y-14011984D01*
X11817801Y-14011984D02*
X11798753Y-14021508D01*
X11798753Y-14021508D02*
X11789229Y-14031031D01*
X11789229Y-14031031D02*
X11779706Y-14050079D01*
X11779706Y-14050079D02*
X11779706Y-14097698D01*
X11779706Y-14097698D02*
X11789229Y-14116746D01*
X11789229Y-14116746D02*
X11798753Y-14126269D01*
X11798753Y-14126269D02*
X11817801Y-14135793D01*
X11817801Y-14135793D02*
X11855896Y-14135793D01*
X11855896Y-14135793D02*
X11874944Y-14126269D01*
X11874944Y-14126269D02*
X11884468Y-14116746D01*
X11884468Y-14116746D02*
X11893991Y-14097698D01*
X12132087Y-14211984D02*
X12132087Y-14011984D01*
X12217801Y-14211984D02*
X12217801Y-14107222D01*
X12217801Y-14107222D02*
X12208277Y-14088174D01*
X12208277Y-14088174D02*
X12189230Y-14078650D01*
X12189230Y-14078650D02*
X12160658Y-14078650D01*
X12160658Y-14078650D02*
X12141610Y-14088174D01*
X12141610Y-14088174D02*
X12132087Y-14097698D01*
X12341610Y-14211984D02*
X12322563Y-14202460D01*
X12322563Y-14202460D02*
X12313039Y-14192936D01*
X12313039Y-14192936D02*
X12303515Y-14173888D01*
X12303515Y-14173888D02*
X12303515Y-14116746D01*
X12303515Y-14116746D02*
X12313039Y-14097698D01*
X12313039Y-14097698D02*
X12322563Y-14088174D01*
X12322563Y-14088174D02*
X12341610Y-14078650D01*
X12341610Y-14078650D02*
X12370182Y-14078650D01*
X12370182Y-14078650D02*
X12389230Y-14088174D01*
X12389230Y-14088174D02*
X12398753Y-14097698D01*
X12398753Y-14097698D02*
X12408277Y-14116746D01*
X12408277Y-14116746D02*
X12408277Y-14173888D01*
X12408277Y-14173888D02*
X12398753Y-14192936D01*
X12398753Y-14192936D02*
X12389230Y-14202460D01*
X12389230Y-14202460D02*
X12370182Y-14211984D01*
X12370182Y-14211984D02*
X12341610Y-14211984D01*
X12522563Y-14211984D02*
X12503515Y-14202460D01*
X12503515Y-14202460D02*
X12493991Y-14183412D01*
X12493991Y-14183412D02*
X12493991Y-14011984D01*
X12674944Y-14202460D02*
X12655896Y-14211984D01*
X12655896Y-14211984D02*
X12617801Y-14211984D01*
X12617801Y-14211984D02*
X12598753Y-14202460D01*
X12598753Y-14202460D02*
X12589230Y-14183412D01*
X12589230Y-14183412D02*
X12589230Y-14107222D01*
X12589230Y-14107222D02*
X12598753Y-14088174D01*
X12598753Y-14088174D02*
X12617801Y-14078650D01*
X12617801Y-14078650D02*
X12655896Y-14078650D01*
X12655896Y-14078650D02*
X12674944Y-14088174D01*
X12674944Y-14088174D02*
X12684468Y-14107222D01*
X12684468Y-14107222D02*
X12684468Y-14126269D01*
X12684468Y-14126269D02*
X12589230Y-14145317D01*
X12760658Y-14202460D02*
X12779706Y-14211984D01*
X12779706Y-14211984D02*
X12817801Y-14211984D01*
X12817801Y-14211984D02*
X12836849Y-14202460D01*
X12836849Y-14202460D02*
X12846372Y-14183412D01*
X12846372Y-14183412D02*
X12846372Y-14173888D01*
X12846372Y-14173888D02*
X12836849Y-14154841D01*
X12836849Y-14154841D02*
X12817801Y-14145317D01*
X12817801Y-14145317D02*
X12789230Y-14145317D01*
X12789230Y-14145317D02*
X12770182Y-14135793D01*
X12770182Y-14135793D02*
X12760658Y-14116746D01*
X12760658Y-14116746D02*
X12760658Y-14107222D01*
X12760658Y-14107222D02*
X12770182Y-14088174D01*
X12770182Y-14088174D02*
X12789230Y-14078650D01*
X12789230Y-14078650D02*
X12817801Y-14078650D01*
X12817801Y-14078650D02*
X12836849Y-14088174D01*
X12913039Y-14288174D02*
X12922563Y-14278650D01*
X12922563Y-14278650D02*
X12941611Y-14250079D01*
X12941611Y-14250079D02*
X12951134Y-14231031D01*
X12951134Y-14231031D02*
X12960658Y-14202460D01*
X12960658Y-14202460D02*
X12970182Y-14154841D01*
X12970182Y-14154841D02*
X12970182Y-14116746D01*
X12970182Y-14116746D02*
X12960658Y-14069127D01*
X12960658Y-14069127D02*
X12951134Y-14040555D01*
X12951134Y-14040555D02*
X12941611Y-14021508D01*
X12941611Y-14021508D02*
X12922563Y-13992936D01*
X12922563Y-13992936D02*
X12913039Y-13983412D01*
M02*
