%TF.GenerationSoftware,KiCad,Pcbnew,9.0.2*%
%TF.CreationDate,2025-09-29T03:25:11-03:00*%
%TF.ProjectId,Estacao_ControleIrrigacao,45737461-6361-46f5-9f43-6f6e74726f6c,rev?*%
%TF.SameCoordinates,Original*%
%TF.FileFunction,Soldermask,Bot*%
%TF.FilePolarity,Negative*%
%FSLAX46Y46*%
G04 Gerber Fmt 4.6, Leading zero omitted, Abs format (unit mm)*
G04 Created by KiCad (PCBNEW 9.0.2) date 2025-09-29 03:25:11*
%MOMM*%
%LPD*%
G01*
G04 APERTURE LIST*
G04 Aperture macros list*
%AMRoundRect*
0 Rectangle with rounded corners*
0 $1 Rounding radius*
0 $2 $3 $4 $5 $6 $7 $8 $9 X,Y pos of 4 corners*
0 Add a 4 corners polygon primitive as box body*
4,1,4,$2,$3,$4,$5,$6,$7,$8,$9,$2,$3,0*
0 Add four circle primitives for the rounded corners*
1,1,$1+$1,$2,$3*
1,1,$1+$1,$4,$5*
1,1,$1+$1,$6,$7*
1,1,$1+$1,$8,$9*
0 Add four rect primitives between the rounded corners*
20,1,$1+$1,$2,$3,$4,$5,0*
20,1,$1+$1,$4,$5,$6,$7,0*
20,1,$1+$1,$6,$7,$8,$9,0*
20,1,$1+$1,$8,$9,$2,$3,0*%
G04 Aperture macros list end*
%ADD10C,2.600000*%
%ADD11RoundRect,0.250000X-1.050000X-1.050000X1.050000X-1.050000X1.050000X1.050000X-1.050000X1.050000X0*%
%ADD12C,1.854000*%
%ADD13RoundRect,0.102000X-0.825000X0.825000X-0.825000X-0.825000X0.825000X-0.825000X0.825000X0.825000X0*%
%ADD14C,1.650000*%
%ADD15R,1.650000X1.650000*%
%ADD16RoundRect,0.250000X1.050000X-1.050000X1.050000X1.050000X-1.050000X1.050000X-1.050000X-1.050000X0*%
%ADD17RoundRect,0.250000X1.050000X1.050000X-1.050000X1.050000X-1.050000X-1.050000X1.050000X-1.050000X0*%
%ADD18C,1.600000*%
G04 APERTURE END LIST*
D10*
%TO.C,J3*%
X129830000Y-120165000D03*
X124830000Y-120165000D03*
X119830000Y-120165000D03*
X114830000Y-120165000D03*
X109830000Y-120165000D03*
X104830000Y-120165000D03*
X99830000Y-120165000D03*
X94830000Y-120165000D03*
D11*
X89830000Y-120165000D03*
%TD*%
D12*
%TO.C,U1*%
X112322500Y-106497500D03*
X114862500Y-106497500D03*
X117402500Y-106497500D03*
X119942500Y-106497500D03*
X122482500Y-106497500D03*
X125022500Y-106497500D03*
X127562500Y-106497500D03*
X130102500Y-106497500D03*
X132642500Y-106497500D03*
X135182500Y-106497500D03*
X137722500Y-106497500D03*
X140262500Y-106497500D03*
X142802500Y-106497500D03*
X145342500Y-106497500D03*
X147882500Y-106497500D03*
X150422500Y-106497500D03*
X152962500Y-106497500D03*
X155502500Y-106497500D03*
X112322500Y-83477500D03*
X114862500Y-83477500D03*
X117402500Y-83477500D03*
X119942500Y-83477500D03*
X122482500Y-83477500D03*
X125022500Y-83477500D03*
X127562500Y-83477500D03*
X130102500Y-83477500D03*
X132642500Y-83477500D03*
X135182500Y-83477500D03*
X137722500Y-83477500D03*
X140262500Y-83477500D03*
X142802500Y-83477500D03*
X145342500Y-83477500D03*
X147882500Y-83477500D03*
X150422500Y-83477500D03*
X152962500Y-83477500D03*
D13*
X155502500Y-83477500D03*
%TD*%
D14*
%TO.C,J10*%
X196835000Y-123960000D03*
X194295000Y-123960000D03*
X191755000Y-123960000D03*
X189215000Y-123960000D03*
X186675000Y-123960000D03*
D15*
X184135000Y-123960000D03*
%TD*%
D14*
%TO.C,J9*%
X168486250Y-86915000D03*
X168486250Y-89455000D03*
X168486250Y-91995000D03*
X168486250Y-94535000D03*
X168486250Y-97075000D03*
D15*
X168486250Y-99615000D03*
%TD*%
D16*
%TO.C,J7*%
X207055000Y-122500000D03*
D10*
X207055000Y-117500000D03*
X207055000Y-112500000D03*
X207055000Y-107500000D03*
%TD*%
%TO.C,J8*%
X207055000Y-89500000D03*
X207055000Y-94500000D03*
D16*
X207055000Y-99500000D03*
%TD*%
D17*
%TO.C,J5*%
X192920000Y-68835000D03*
D10*
X187920000Y-68835000D03*
X182920000Y-68835000D03*
%TD*%
D18*
%TO.C,C1*%
X193145000Y-76390000D03*
X190645000Y-76390000D03*
%TD*%
%TO.C,R1*%
X189730000Y-102490000D03*
X179570000Y-102490000D03*
%TD*%
%TO.C,R3*%
X179570000Y-90390000D03*
X189730000Y-90390000D03*
%TD*%
D17*
%TO.C,J2*%
X129830000Y-68835000D03*
D10*
X124830000Y-68835000D03*
X119830000Y-68835000D03*
X114830000Y-68835000D03*
X109830000Y-68835000D03*
X104830000Y-68835000D03*
X99830000Y-68835000D03*
X94830000Y-68835000D03*
X89830000Y-68835000D03*
%TD*%
D17*
%TO.C,J1*%
X176375000Y-68835000D03*
D10*
X171375000Y-68835000D03*
X166375000Y-68835000D03*
X161375000Y-68835000D03*
X156375000Y-68835000D03*
X151375000Y-68835000D03*
X146375000Y-68835000D03*
X141375000Y-68835000D03*
X136375000Y-68835000D03*
%TD*%
D11*
%TO.C,J4*%
X136375000Y-120165000D03*
D10*
X141375000Y-120165000D03*
X146375000Y-120165000D03*
X151375000Y-120165000D03*
X156375000Y-120165000D03*
X161375000Y-120165000D03*
X166375000Y-120165000D03*
X171375000Y-120165000D03*
X176375000Y-120165000D03*
%TD*%
D18*
%TO.C,R5*%
X189730000Y-94445000D03*
X179570000Y-94445000D03*
%TD*%
%TO.C,R4*%
X189730000Y-86340000D03*
X179570000Y-86340000D03*
%TD*%
%TO.C,R2*%
X179570000Y-98440000D03*
X189730000Y-98440000D03*
%TD*%
D17*
%TO.C,J6*%
X209420000Y-68835000D03*
D10*
X204420000Y-68835000D03*
X199420000Y-68835000D03*
%TD*%
D18*
%TO.C,C2*%
X207125000Y-76390000D03*
X209625000Y-76390000D03*
%TD*%
M02*
