M48
; DRILL file {KiCad 9.0.2} date 2025-09-29T03:25:46-0300
; FORMAT={-:-/ absolute / inch / decimal}
; #@! TF.CreationDate,2025-09-29T03:25:46-03:00
; #@! TF.GenerationSoftware,Kicad,Pcbnew,9.0.2
; #@! TF.FileFunction,Plated,1,2,PTH
FMAT,2
INCH
; #@! TA.AperFunction,Plated,PTH,ComponentDrill
T1C0.0315
; #@! TA.AperFunction,Plated,PTH,ComponentDrill
T2C0.0433
; #@! TA.AperFunction,Plated,PTH,ComponentDrill
T3C0.0512
%
G90
G05
T1
X7.0697Y-3.3992
X7.0697Y-3.5587
X7.0697Y-3.7183
X7.0697Y-3.8756
X7.0697Y-4.035
X7.4697Y-3.3992
X7.4697Y-3.5587
X7.4697Y-3.7183
X7.4697Y-3.8756
X7.4697Y-4.035
X7.5057Y-3.0075
X7.6041Y-3.0075
X8.1545Y-3.0075
X8.253Y-3.0075
T2
X4.4221Y-3.2865
X4.4221Y-4.1928
X4.5221Y-3.2865
X4.5221Y-4.1928
X4.6221Y-3.2865
X4.6221Y-4.1928
X4.7221Y-3.2865
X4.7221Y-4.1928
X4.8221Y-3.2865
X4.8221Y-4.1928
X4.9221Y-3.2865
X4.9221Y-4.1928
X5.0221Y-3.2865
X5.0221Y-4.1928
X5.1221Y-3.2865
X5.1221Y-4.1928
X5.2221Y-3.2865
X5.2221Y-4.1928
X5.3221Y-3.2865
X5.3221Y-4.1928
X5.4221Y-3.2865
X5.4221Y-4.1928
X5.5221Y-3.2865
X5.5221Y-4.1928
X5.6221Y-3.2865
X5.6221Y-4.1928
X5.7221Y-3.2865
X5.7221Y-4.1928
X5.8221Y-3.2865
X5.8221Y-4.1928
X5.9221Y-3.2865
X5.9221Y-4.1928
X6.0221Y-3.2865
X6.0221Y-4.1928
X6.1221Y-3.2865
X6.1221Y-4.1928
X6.6333Y-3.4219
X6.6333Y-3.5219
X6.6333Y-3.6219
X6.6333Y-3.7219
X6.6333Y-3.8219
X6.6333Y-3.9219
X7.2494Y-4.8803
X7.3494Y-4.8803
X7.4494Y-4.8803
X7.5494Y-4.8803
X7.6494Y-4.8803
X7.7494Y-4.8803
T3
X3.5366Y-2.71
X3.5366Y-4.7309
X3.7335Y-2.71
X3.7335Y-4.7309
X3.9303Y-2.71
X3.9303Y-4.7309
X4.1272Y-2.71
X4.1272Y-4.7309
X4.324Y-2.71
X4.324Y-4.7309
X4.5209Y-2.71
X4.5209Y-4.7309
X4.7177Y-2.71
X4.7177Y-4.7309
X4.9146Y-2.71
X4.9146Y-4.7309
X5.1114Y-2.71
X5.1114Y-4.7309
X5.3691Y-2.71
X5.3691Y-4.7309
X5.5659Y-2.71
X5.5659Y-4.7309
X5.7628Y-2.71
X5.7628Y-4.7309
X5.9596Y-2.71
X5.9596Y-4.7309
X6.1565Y-2.71
X6.1565Y-4.7309
X6.3533Y-2.71
X6.3533Y-4.7309
X6.5502Y-2.71
X6.5502Y-4.7309
X6.747Y-2.71
X6.747Y-4.7309
X6.9439Y-2.71
X6.9439Y-4.7309
X7.2016Y-2.71
X7.3984Y-2.71
X7.5953Y-2.71
X7.8512Y-2.71
X8.048Y-2.71
X8.1518Y-3.5236
X8.1518Y-3.7205
X8.1518Y-3.9173
X8.1518Y-4.2323
X8.1518Y-4.4291
X8.1518Y-4.626
X8.1518Y-4.8228
X8.2449Y-2.71
M30
