%TF.GenerationSoftware,KiCad,Pcbnew,9.0.2*%
%TF.CreationDate,2025-09-29T18:54:39-03:00*%
%TF.ProjectId,Estacao_ControleIrrigacao,45737461-6361-46f5-9f43-6f6e74726f6c,rev?*%
%TF.SameCoordinates,Original*%
%TF.FileFunction,Copper,L1,Top*%
%TF.FilePolarity,Positive*%
%FSLAX46Y46*%
G04 Gerber Fmt 4.6, Leading zero omitted, Abs format (unit mm)*
G04 Created by KiCad (PCBNEW 9.0.2) date 2025-09-29 18:54:39*
%MOMM*%
%LPD*%
G01*
G04 APERTURE LIST*
G04 Aperture macros list*
%AMRoundRect*
0 Rectangle with rounded corners*
0 $1 Rounding radius*
0 $2 $3 $4 $5 $6 $7 $8 $9 X,Y pos of 4 corners*
0 Add a 4 corners polygon primitive as box body*
4,1,4,$2,$3,$4,$5,$6,$7,$8,$9,$2,$3,0*
0 Add four circle primitives for the rounded corners*
1,1,$1+$1,$2,$3*
1,1,$1+$1,$4,$5*
1,1,$1+$1,$6,$7*
1,1,$1+$1,$8,$9*
0 Add four rect primitives between the rounded corners*
20,1,$1+$1,$2,$3,$4,$5,0*
20,1,$1+$1,$4,$5,$6,$7,0*
20,1,$1+$1,$6,$7,$8,$9,0*
20,1,$1+$1,$8,$9,$2,$3,0*%
G04 Aperture macros list end*
%TA.AperFunction,ComponentPad*%
%ADD10RoundRect,0.250000X1.050000X1.050000X-1.050000X1.050000X-1.050000X-1.050000X1.050000X-1.050000X0*%
%TD*%
%TA.AperFunction,ComponentPad*%
%ADD11C,2.600000*%
%TD*%
%TA.AperFunction,ComponentPad*%
%ADD12R,1.650000X1.650000*%
%TD*%
%TA.AperFunction,ComponentPad*%
%ADD13C,1.650000*%
%TD*%
%TA.AperFunction,ComponentPad*%
%ADD14C,1.600000*%
%TD*%
%TA.AperFunction,ComponentPad*%
%ADD15RoundRect,0.250000X1.050000X-1.050000X1.050000X1.050000X-1.050000X1.050000X-1.050000X-1.050000X0*%
%TD*%
%TA.AperFunction,ComponentPad*%
%ADD16RoundRect,0.250000X-1.050000X-1.050000X1.050000X-1.050000X1.050000X1.050000X-1.050000X1.050000X0*%
%TD*%
%TA.AperFunction,Conductor*%
%ADD17C,0.812800*%
%TD*%
G04 APERTURE END LIST*
D10*
%TO.P,J5,1,Pin_1*%
%TO.N,/VCC*%
X192920000Y-68835000D03*
D11*
%TO.P,J5,2,Pin_2*%
%TO.N,/GND*%
X187920000Y-68835000D03*
%TO.P,J5,3,Pin_3*%
%TO.N,/HALL1_OUT*%
X182920000Y-68835000D03*
%TD*%
D12*
%TO.P,J10,1,Pin_1*%
%TO.N,unconnected-(J10-Pin_1-Pad1)*%
X184135000Y-123960000D03*
D13*
%TO.P,J10,2,Pin_2*%
%TO.N,unconnected-(J10-Pin_2-Pad2)*%
X186675000Y-123960000D03*
%TO.P,J10,3,Pin_3*%
%TO.N,/SCL*%
X189215000Y-123960000D03*
%TO.P,J10,4,Pin_4*%
%TO.N,/SDA*%
X191755000Y-123960000D03*
%TO.P,J10,5,Pin_5*%
%TO.N,/VCC*%
X194295000Y-123960000D03*
%TO.P,J10,6,Pin_6*%
%TO.N,/GND*%
X196835000Y-123960000D03*
%TD*%
D14*
%TO.P,C1,1*%
%TO.N,/VCC*%
X193145000Y-76390000D03*
%TO.P,C1,2*%
%TO.N,/GND*%
X190645000Y-76390000D03*
%TD*%
D15*
%TO.P,J7,1,Pin_1*%
%TO.N,/SCL*%
X207055000Y-122500000D03*
D11*
%TO.P,J7,2,Pin_2*%
%TO.N,/SDA*%
X207055000Y-117500000D03*
%TO.P,J7,3,Pin_3*%
%TO.N,/VCC*%
X207055000Y-112500000D03*
%TO.P,J7,4,Pin_4*%
%TO.N,/GND*%
X207055000Y-107500000D03*
%TD*%
D14*
%TO.P,R1,1*%
%TO.N,/SCL*%
X189730000Y-102490000D03*
%TO.P,R1,2*%
%TO.N,/VCC*%
X179570000Y-102490000D03*
%TD*%
%TO.P,R3,1*%
%TO.N,/HALL2_OUT*%
X179570000Y-90390000D03*
%TO.P,R3,2*%
%TO.N,/VCC*%
X189730000Y-90390000D03*
%TD*%
D10*
%TO.P,J2,1,Pin_1*%
%TO.N,Net-(J2-Pin_1)*%
X129830000Y-68835000D03*
D11*
%TO.P,J2,2,Pin_2*%
%TO.N,/MISO*%
X124830000Y-68835000D03*
%TO.P,J2,3,Pin_3*%
%TO.N,/MOSI*%
X119830000Y-68835000D03*
%TO.P,J2,4,Pin_4*%
%TO.N,/SCK*%
X114830000Y-68835000D03*
%TO.P,J2,5,Pin_5*%
%TO.N,/CS*%
X109830000Y-68835000D03*
%TO.P,J2,6,Pin_6*%
%TO.N,Net-(J2-Pin_6)*%
X104830000Y-68835000D03*
%TO.P,J2,7,Pin_7*%
%TO.N,/HALL1_OUT*%
X99830000Y-68835000D03*
%TO.P,J2,8,Pin_8*%
%TO.N,/HALL2_OUT*%
X94830000Y-68835000D03*
%TO.P,J2,9,Pin_9*%
%TO.N,Net-(J2-Pin_9)*%
X89830000Y-68835000D03*
%TD*%
D12*
%TO.P,J9,1,Pin_1*%
%TO.N,/CS*%
X168486250Y-99615000D03*
D13*
%TO.P,J9,2,Pin_2*%
%TO.N,/SCK*%
X168486250Y-97075000D03*
%TO.P,J9,3,Pin_3*%
%TO.N,/MOSI*%
X168486250Y-94535000D03*
%TO.P,J9,4,Pin_4*%
%TO.N,/MISO*%
X168486250Y-91995000D03*
%TO.P,J9,5,Pin_5*%
%TO.N,/VCC*%
X168486250Y-89455000D03*
%TO.P,J9,6,Pin_6*%
%TO.N,/GND*%
X168486250Y-86915000D03*
%TD*%
D10*
%TO.P,J1,1,Pin_1*%
%TO.N,/GND*%
X176375000Y-68835000D03*
D11*
%TO.P,J1,2,Pin_2*%
%TO.N,/VCC*%
X171375000Y-68835000D03*
%TO.P,J1,3,Pin_3*%
%TO.N,Net-(J1-Pin_3)*%
X166375000Y-68835000D03*
%TO.P,J1,4,Pin_4*%
%TO.N,Net-(J1-Pin_4)*%
X161375000Y-68835000D03*
%TO.P,J1,5,Pin_5*%
%TO.N,Net-(J1-Pin_5)*%
X156375000Y-68835000D03*
%TO.P,J1,6,Pin_6*%
%TO.N,Net-(J1-Pin_6)*%
X151375000Y-68835000D03*
%TO.P,J1,7,Pin_7*%
%TO.N,Net-(J1-Pin_7)*%
X146375000Y-68835000D03*
%TO.P,J1,8,Pin_8*%
%TO.N,Net-(J1-Pin_8)*%
X141375000Y-68835000D03*
%TO.P,J1,9,Pin_9*%
%TO.N,Net-(J1-Pin_9)*%
X136375000Y-68835000D03*
%TD*%
D16*
%TO.P,J4,1,Pin_1*%
%TO.N,Net-(J4-Pin_1)*%
X136375000Y-120165000D03*
D11*
%TO.P,J4,2,Pin_2*%
%TO.N,Net-(J4-Pin_2)*%
X141375000Y-120165000D03*
%TO.P,J4,3,Pin_3*%
%TO.N,Net-(J4-Pin_3)*%
X146375000Y-120165000D03*
%TO.P,J4,4,Pin_4*%
%TO.N,Net-(J4-Pin_4)*%
X151375000Y-120165000D03*
%TO.P,J4,5,Pin_5*%
%TO.N,Net-(J4-Pin_5)*%
X156375000Y-120165000D03*
%TO.P,J4,6,Pin_6*%
%TO.N,Net-(J4-Pin_6)*%
X161375000Y-120165000D03*
%TO.P,J4,7,Pin_7*%
%TO.N,Net-(J4-Pin_7)*%
X166375000Y-120165000D03*
%TO.P,J4,8,Pin_8*%
%TO.N,Net-(J4-Pin_8)*%
X171375000Y-120165000D03*
%TO.P,J4,9,Pin_9*%
%TO.N,Net-(J4-Pin_9)*%
X176375000Y-120165000D03*
%TD*%
D14*
%TO.P,R5,1*%
%TO.N,/DHT_OUT*%
X189730000Y-94445000D03*
%TO.P,R5,2*%
%TO.N,/VCC*%
X179570000Y-94445000D03*
%TD*%
%TO.P,R4,1*%
%TO.N,/VCC*%
X189730000Y-86340000D03*
%TO.P,R4,2*%
%TO.N,/HALL1_OUT*%
X179570000Y-86340000D03*
%TD*%
%TO.P,R2,1*%
%TO.N,/VCC*%
X179570000Y-98440000D03*
%TO.P,R2,2*%
%TO.N,/SDA*%
X189730000Y-98440000D03*
%TD*%
D10*
%TO.P,J6,1,Pin_1*%
%TO.N,/VCC*%
X209420000Y-68835000D03*
D11*
%TO.P,J6,2,Pin_2*%
%TO.N,/GND*%
X204420000Y-68835000D03*
%TO.P,J6,3,Pin_3*%
%TO.N,/HALL2_OUT*%
X199420000Y-68835000D03*
%TD*%
D15*
%TO.P,J8,1,Pin_1*%
%TO.N,/DHT_OUT*%
X207055000Y-99500000D03*
D11*
%TO.P,J8,2,Pin_2*%
%TO.N,/VCC*%
X207055000Y-94500000D03*
%TO.P,J8,3,Pin_3*%
%TO.N,/GND*%
X207055000Y-89500000D03*
%TD*%
D16*
%TO.P,J3,1,Pin_1*%
%TO.N,/DHT_OUT*%
X89830000Y-120165000D03*
D11*
%TO.P,J3,2,Pin_2*%
%TO.N,Net-(J3-Pin_2)*%
X94830000Y-120165000D03*
%TO.P,J3,3,Pin_3*%
%TO.N,/SCL*%
X99830000Y-120165000D03*
%TO.P,J3,4,Pin_4*%
%TO.N,/SDA*%
X104830000Y-120165000D03*
%TO.P,J3,5,Pin_5*%
%TO.N,Net-(J3-Pin_5)*%
X109830000Y-120165000D03*
%TO.P,J3,6,Pin_6*%
%TO.N,Net-(J3-Pin_6)*%
X114830000Y-120165000D03*
%TO.P,J3,7,Pin_7*%
%TO.N,Net-(J3-Pin_7)*%
X119830000Y-120165000D03*
%TO.P,J3,8,Pin_8*%
%TO.N,Net-(J3-Pin_8)*%
X124830000Y-120165000D03*
%TO.P,J3,9,Pin_9*%
%TO.N,Net-(J3-Pin_9)*%
X129830000Y-120165000D03*
%TD*%
D12*
%TO.P,U1,J2_1,GND_J2*%
%TO.N,/GND*%
X155502500Y-83477500D03*
D13*
%TO.P,U1,J2_2,5V*%
%TO.N,/VCC*%
X152962500Y-83477500D03*
%TO.P,U1,J2_3,VE*%
%TO.N,Net-(J1-Pin_3)*%
X150422500Y-83477500D03*
%TO.P,U1,J2_4,VE*%
%TO.N,Net-(J1-Pin_4)*%
X147882500Y-83477500D03*
%TO.P,U1,J2_5,U0RXD/GPIO44/CP2102_TX*%
%TO.N,Net-(J1-Pin_5)*%
X145342500Y-83477500D03*
%TO.P,U1,J2_6,U0TXD/GPIO43/CP2102_RX*%
%TO.N,Net-(J1-Pin_6)*%
X142802500Y-83477500D03*
%TO.P,U1,J2_7,RST/RST_SW*%
%TO.N,Net-(J1-Pin_7)*%
X140262500Y-83477500D03*
%TO.P,U1,J2_8,GPIO0/USER_SW*%
%TO.N,Net-(J1-Pin_8)*%
X137722500Y-83477500D03*
%TO.P,U1,J2_9,GPIO21/OLED_RST*%
%TO.N,Net-(J1-Pin_9)*%
X135182500Y-83477500D03*
%TO.P,U1,J2_10,GPIO20/U1CTS/ADC2_CH9/CLK_OUT1/USB_D+*%
%TO.N,Net-(J2-Pin_1)*%
X132642500Y-83477500D03*
%TO.P,U1,J2_11,GPIO19/U1RST/ADC2_CH9/CLK_OUT2/USB_D-*%
%TO.N,/MISO*%
X130102500Y-83477500D03*
%TO.P,U1,J2_12,GPIO7/ADC1_CH6/TOUCH7*%
%TO.N,/MOSI*%
X127562500Y-83477500D03*
%TO.P,U1,J2_13,GPIO6/ADC1_CH5/TOUCH6*%
%TO.N,/SCK*%
X125022500Y-83477500D03*
%TO.P,U1,J2_14,GPIO5/ADC1_CH4/TOUCH5*%
%TO.N,/CS*%
X122482500Y-83477500D03*
%TO.P,U1,J2_15,GPIO4/ADC1_CH3/TOUCH4*%
%TO.N,Net-(J2-Pin_6)*%
X119942500Y-83477500D03*
%TO.P,U1,J2_16,GPIO3/ADC1_CH2/TOUCH3*%
%TO.N,/HALL1_OUT*%
X117402500Y-83477500D03*
%TO.P,U1,J2_17,GPIO2/ADC1_CH1/TOUCH2*%
%TO.N,/HALL2_OUT*%
X114862500Y-83477500D03*
%TO.P,U1,J2_18,GPIO1/ADC1_CH0/VBAT_READ/TOUCH1*%
%TO.N,Net-(J2-Pin_9)*%
X112322500Y-83477500D03*
%TO.P,U1,J3_1,GND_J3*%
%TO.N,Net-(J4-Pin_9)*%
X155502500Y-106497500D03*
%TO.P,U1,J3_2,3V3*%
%TO.N,Net-(J4-Pin_8)*%
X152962500Y-106497500D03*
%TO.P,U1,J3_3,3V3*%
%TO.N,Net-(J4-Pin_7)*%
X150422500Y-106497500D03*
%TO.P,U1,J3_4,GPIO26/SPICS1*%
%TO.N,Net-(J4-Pin_6)*%
X147882500Y-106497500D03*
%TO.P,U1,J3_5,GPIO48*%
%TO.N,Net-(J4-Pin_5)*%
X145342500Y-106497500D03*
%TO.P,U1,J3_6,GPIO47*%
%TO.N,Net-(J4-Pin_4)*%
X142802500Y-106497500D03*
%TO.P,U1,J3_7,GPIO33/SPIIO4/FSPIHD/SUBSPIHD*%
%TO.N,Net-(J4-Pin_3)*%
X140262500Y-106497500D03*
%TO.P,U1,J3_8,GPIO34/SPIIO5/FSPICS0/SUBSPICS0*%
%TO.N,Net-(J4-Pin_2)*%
X137722500Y-106497500D03*
%TO.P,U1,J3_9,GPIO35/SPIIO6/FSPID/SUBSPID/LED_WRITE*%
%TO.N,Net-(J4-Pin_1)*%
X135182500Y-106497500D03*
%TO.P,U1,J3_10,GPIO36/SPIIO7/FSPICLK/SUBSPICLK/VEXT_CTRL*%
%TO.N,Net-(J3-Pin_9)*%
X132642500Y-106497500D03*
%TO.P,U1,J3_11,GPIO37/SPIDQS/FSPIQ/SUBSPIQ/ADC_CTRL*%
%TO.N,Net-(J3-Pin_8)*%
X130102500Y-106497500D03*
%TO.P,U1,J3_12,GPIO38/FSPIWP/SUBSPIWP*%
%TO.N,Net-(J3-Pin_7)*%
X127562500Y-106497500D03*
%TO.P,U1,J3_13,GPIO39/MTCK*%
%TO.N,Net-(J3-Pin_6)*%
X125022500Y-106497500D03*
%TO.P,U1,J3_14,GPIO40/MTDO*%
%TO.N,Net-(J3-Pin_5)*%
X122482500Y-106497500D03*
%TO.P,U1,J3_15,GPIO41/MTDI*%
%TO.N,/SDA*%
X119942500Y-106497500D03*
%TO.P,U1,J3_16,GPIO42/MTMS*%
%TO.N,/SCL*%
X117402500Y-106497500D03*
%TO.P,U1,J3_17,GPIO45*%
%TO.N,Net-(J3-Pin_2)*%
X114862500Y-106497500D03*
%TO.P,U1,J3_18,GPIO46*%
%TO.N,/DHT_OUT*%
X112322500Y-106497500D03*
%TD*%
D14*
%TO.P,C2,1*%
%TO.N,/GND*%
X207125000Y-76390000D03*
%TO.P,C2,2*%
%TO.N,/VCC*%
X209625000Y-76390000D03*
%TD*%
D17*
%TO.N,/VCC*%
X209645000Y-91910000D02*
X207055000Y-94500000D01*
X209645000Y-76390000D02*
X209645000Y-91910000D01*
%TD*%
%TA.AperFunction,Conductor*%
%TO.N,/VCC*%
G36*
X210356824Y-76535501D02*
G01*
X210397589Y-76543662D01*
X210405028Y-76548646D01*
X210406764Y-76557431D01*
X210406641Y-76557980D01*
X210053620Y-77965774D01*
X210048283Y-77972965D01*
X210042271Y-77974628D01*
X209247484Y-77974628D01*
X209239211Y-77971201D01*
X209236214Y-77966070D01*
X209236131Y-77965774D01*
X208843756Y-76558211D01*
X208844835Y-76549322D01*
X208851884Y-76543800D01*
X208852721Y-76543599D01*
X209622707Y-76389459D01*
X209627293Y-76389459D01*
X210356824Y-76535501D01*
G37*
%TD.AperFunction*%
%TD*%
%TA.AperFunction,Conductor*%
%TO.N,/VCC*%
G36*
X208391688Y-92599726D02*
G01*
X208955273Y-93163311D01*
X208958700Y-93171584D01*
X208957773Y-93176148D01*
X208347227Y-94617427D01*
X208340845Y-94623708D01*
X208335329Y-94624509D01*
X207063886Y-94501634D01*
X207055980Y-94497427D01*
X207053366Y-94491115D01*
X206930490Y-93219669D01*
X206933105Y-93211106D01*
X206937572Y-93207772D01*
X207022999Y-93171584D01*
X208378854Y-92597225D01*
X208387806Y-92597154D01*
X208391688Y-92599726D01*
G37*
%TD.AperFunction*%
%TD*%
M02*
