%TF.GenerationSoftware,KiCad,Pcbnew,9.0.2*%
%TF.CreationDate,2025-09-29T03:25:11-03:00*%
%TF.ProjectId,Estacao_ControleIrrigacao,45737461-6361-46f5-9f43-6f6e74726f6c,rev?*%
%TF.SameCoordinates,Original*%
%TF.FileFunction,Copper,L2,Bot*%
%TF.FilePolarity,Positive*%
%FSLAX46Y46*%
G04 Gerber Fmt 4.6, Leading zero omitted, Abs format (unit mm)*
G04 Created by KiCad (PCBNEW 9.0.2) date 2025-09-29 03:25:11*
%MOMM*%
%LPD*%
G01*
G04 APERTURE LIST*
G04 Aperture macros list*
%AMRoundRect*
0 Rectangle with rounded corners*
0 $1 Rounding radius*
0 $2 $3 $4 $5 $6 $7 $8 $9 X,Y pos of 4 corners*
0 Add a 4 corners polygon primitive as box body*
4,1,4,$2,$3,$4,$5,$6,$7,$8,$9,$2,$3,0*
0 Add four circle primitives for the rounded corners*
1,1,$1+$1,$2,$3*
1,1,$1+$1,$4,$5*
1,1,$1+$1,$6,$7*
1,1,$1+$1,$8,$9*
0 Add four rect primitives between the rounded corners*
20,1,$1+$1,$2,$3,$4,$5,0*
20,1,$1+$1,$4,$5,$6,$7,0*
20,1,$1+$1,$6,$7,$8,$9,0*
20,1,$1+$1,$8,$9,$2,$3,0*%
G04 Aperture macros list end*
%TA.AperFunction,ComponentPad*%
%ADD10C,2.600000*%
%TD*%
%TA.AperFunction,ComponentPad*%
%ADD11RoundRect,0.250000X-1.050000X-1.050000X1.050000X-1.050000X1.050000X1.050000X-1.050000X1.050000X0*%
%TD*%
%TA.AperFunction,ComponentPad*%
%ADD12C,1.650000*%
%TD*%
%TA.AperFunction,ComponentPad*%
%ADD13R,1.650000X1.650000*%
%TD*%
%TA.AperFunction,ComponentPad*%
%ADD14RoundRect,0.250000X1.050000X-1.050000X1.050000X1.050000X-1.050000X1.050000X-1.050000X-1.050000X0*%
%TD*%
%TA.AperFunction,ComponentPad*%
%ADD15RoundRect,0.250000X1.050000X1.050000X-1.050000X1.050000X-1.050000X-1.050000X1.050000X-1.050000X0*%
%TD*%
%TA.AperFunction,ComponentPad*%
%ADD16C,1.600000*%
%TD*%
%TA.AperFunction,Conductor*%
%ADD17C,0.304800*%
%TD*%
%TA.AperFunction,Conductor*%
%ADD18C,0.812800*%
%TD*%
G04 APERTURE END LIST*
D10*
%TO.P,J3,9,Pin_9*%
%TO.N,Net-(J3-Pin_9)*%
X129830000Y-120165000D03*
%TO.P,J3,8,Pin_8*%
%TO.N,Net-(J3-Pin_8)*%
X124830000Y-120165000D03*
%TO.P,J3,7,Pin_7*%
%TO.N,Net-(J3-Pin_7)*%
X119830000Y-120165000D03*
%TO.P,J3,6,Pin_6*%
%TO.N,Net-(J3-Pin_6)*%
X114830000Y-120165000D03*
%TO.P,J3,5,Pin_5*%
%TO.N,Net-(J3-Pin_5)*%
X109830000Y-120165000D03*
%TO.P,J3,4,Pin_4*%
%TO.N,/SDA*%
X104830000Y-120165000D03*
%TO.P,J3,3,Pin_3*%
%TO.N,/SCL*%
X99830000Y-120165000D03*
%TO.P,J3,2,Pin_2*%
%TO.N,Net-(J3-Pin_2)*%
X94830000Y-120165000D03*
D11*
%TO.P,J3,1,Pin_1*%
%TO.N,/DHT_OUT*%
X89830000Y-120165000D03*
%TD*%
D12*
%TO.P,U1,J3_18,GPIO46*%
%TO.N,/DHT_OUT*%
X112322500Y-106497500D03*
%TO.P,U1,J3_17,GPIO45*%
%TO.N,Net-(J3-Pin_2)*%
X114862500Y-106497500D03*
%TO.P,U1,J3_16,GPIO42/MTMS*%
%TO.N,/SCL*%
X117402500Y-106497500D03*
%TO.P,U1,J3_15,GPIO41/MTDI*%
%TO.N,/SDA*%
X119942500Y-106497500D03*
%TO.P,U1,J3_14,GPIO40/MTDO*%
%TO.N,Net-(J3-Pin_5)*%
X122482500Y-106497500D03*
%TO.P,U1,J3_13,GPIO39/MTCK*%
%TO.N,Net-(J3-Pin_6)*%
X125022500Y-106497500D03*
%TO.P,U1,J3_12,GPIO38/FSPIWP/SUBSPIWP*%
%TO.N,Net-(J3-Pin_7)*%
X127562500Y-106497500D03*
%TO.P,U1,J3_11,GPIO37/SPIDQS/FSPIQ/SUBSPIQ/ADC_CTRL*%
%TO.N,Net-(J3-Pin_8)*%
X130102500Y-106497500D03*
%TO.P,U1,J3_10,GPIO36/SPIIO7/FSPICLK/SUBSPICLK/VEXT_CTRL*%
%TO.N,Net-(J3-Pin_9)*%
X132642500Y-106497500D03*
%TO.P,U1,J3_9,GPIO35/SPIIO6/FSPID/SUBSPID/LED_WRITE*%
%TO.N,Net-(J4-Pin_1)*%
X135182500Y-106497500D03*
%TO.P,U1,J3_8,GPIO34/SPIIO5/FSPICS0/SUBSPICS0*%
%TO.N,Net-(J4-Pin_2)*%
X137722500Y-106497500D03*
%TO.P,U1,J3_7,GPIO33/SPIIO4/FSPIHD/SUBSPIHD*%
%TO.N,Net-(J4-Pin_3)*%
X140262500Y-106497500D03*
%TO.P,U1,J3_6,GPIO47*%
%TO.N,Net-(J4-Pin_4)*%
X142802500Y-106497500D03*
%TO.P,U1,J3_5,GPIO48*%
%TO.N,Net-(J4-Pin_5)*%
X145342500Y-106497500D03*
%TO.P,U1,J3_4,GPIO26/SPICS1*%
%TO.N,Net-(J4-Pin_6)*%
X147882500Y-106497500D03*
%TO.P,U1,J3_3,3V3*%
%TO.N,Net-(J4-Pin_7)*%
X150422500Y-106497500D03*
%TO.P,U1,J3_2,3V3*%
%TO.N,Net-(J4-Pin_8)*%
X152962500Y-106497500D03*
%TO.P,U1,J3_1,GND_J3*%
%TO.N,Net-(J4-Pin_9)*%
X155502500Y-106497500D03*
%TO.P,U1,J2_18,GPIO1/ADC1_CH0/VBAT_READ/TOUCH1*%
%TO.N,Net-(J2-Pin_9)*%
X112322500Y-83477500D03*
%TO.P,U1,J2_17,GPIO2/ADC1_CH1/TOUCH2*%
%TO.N,/HALL2_OUT*%
X114862500Y-83477500D03*
%TO.P,U1,J2_16,GPIO3/ADC1_CH2/TOUCH3*%
%TO.N,/HALL1_OUT*%
X117402500Y-83477500D03*
%TO.P,U1,J2_15,GPIO4/ADC1_CH3/TOUCH4*%
%TO.N,Net-(J2-Pin_6)*%
X119942500Y-83477500D03*
%TO.P,U1,J2_14,GPIO5/ADC1_CH4/TOUCH5*%
%TO.N,/CS*%
X122482500Y-83477500D03*
%TO.P,U1,J2_13,GPIO6/ADC1_CH5/TOUCH6*%
%TO.N,/SCK*%
X125022500Y-83477500D03*
%TO.P,U1,J2_12,GPIO7/ADC1_CH6/TOUCH7*%
%TO.N,/MOSI*%
X127562500Y-83477500D03*
%TO.P,U1,J2_11,GPIO19/U1RST/ADC2_CH9/CLK_OUT2/USB_D-*%
%TO.N,/MISO*%
X130102500Y-83477500D03*
%TO.P,U1,J2_10,GPIO20/U1CTS/ADC2_CH9/CLK_OUT1/USB_D+*%
%TO.N,Net-(J2-Pin_1)*%
X132642500Y-83477500D03*
%TO.P,U1,J2_9,GPIO21/OLED_RST*%
%TO.N,Net-(J1-Pin_9)*%
X135182500Y-83477500D03*
%TO.P,U1,J2_8,GPIO0/USER_SW*%
%TO.N,Net-(J1-Pin_8)*%
X137722500Y-83477500D03*
%TO.P,U1,J2_7,RST/RST_SW*%
%TO.N,Net-(J1-Pin_7)*%
X140262500Y-83477500D03*
%TO.P,U1,J2_6,U0TXD/GPIO43/CP2102_RX*%
%TO.N,Net-(J1-Pin_6)*%
X142802500Y-83477500D03*
%TO.P,U1,J2_5,U0RXD/GPIO44/CP2102_TX*%
%TO.N,Net-(J1-Pin_5)*%
X145342500Y-83477500D03*
%TO.P,U1,J2_4,VE*%
%TO.N,Net-(J1-Pin_4)*%
X147882500Y-83477500D03*
%TO.P,U1,J2_3,VE*%
%TO.N,Net-(J1-Pin_3)*%
X150422500Y-83477500D03*
%TO.P,U1,J2_2,5V*%
%TO.N,/VCC*%
X152962500Y-83477500D03*
D13*
%TO.P,U1,J2_1,GND_J2*%
%TO.N,/GND*%
X155502500Y-83477500D03*
%TD*%
D12*
%TO.P,J10,6,Pin_6*%
%TO.N,/GND*%
X196835000Y-123960000D03*
%TO.P,J10,5,Pin_5*%
%TO.N,/VCC*%
X194295000Y-123960000D03*
%TO.P,J10,4,Pin_4*%
%TO.N,/SDA*%
X191755000Y-123960000D03*
%TO.P,J10,3,Pin_3*%
%TO.N,/SCL*%
X189215000Y-123960000D03*
%TO.P,J10,2,Pin_2*%
%TO.N,unconnected-(J10-Pin_2-Pad2)*%
X186675000Y-123960000D03*
D13*
%TO.P,J10,1,Pin_1*%
%TO.N,unconnected-(J10-Pin_1-Pad1)*%
X184135000Y-123960000D03*
%TD*%
D12*
%TO.P,J9,6,Pin_6*%
%TO.N,/GND*%
X168486250Y-86915000D03*
%TO.P,J9,5,Pin_5*%
%TO.N,/VCC*%
X168486250Y-89455000D03*
%TO.P,J9,4,Pin_4*%
%TO.N,/MISO*%
X168486250Y-91995000D03*
%TO.P,J9,3,Pin_3*%
%TO.N,/MOSI*%
X168486250Y-94535000D03*
%TO.P,J9,2,Pin_2*%
%TO.N,/SCK*%
X168486250Y-97075000D03*
D13*
%TO.P,J9,1,Pin_1*%
%TO.N,/CS*%
X168486250Y-99615000D03*
%TD*%
D14*
%TO.P,J7,1,Pin_1*%
%TO.N,/SCL*%
X207055000Y-122500000D03*
D10*
%TO.P,J7,2,Pin_2*%
%TO.N,/SDA*%
X207055000Y-117500000D03*
%TO.P,J7,3,Pin_3*%
%TO.N,/VCC*%
X207055000Y-112500000D03*
%TO.P,J7,4,Pin_4*%
%TO.N,/GND*%
X207055000Y-107500000D03*
%TD*%
%TO.P,J8,3,Pin_3*%
%TO.N,/GND*%
X207055000Y-89500000D03*
%TO.P,J8,2,Pin_2*%
%TO.N,/VCC*%
X207055000Y-94500000D03*
D14*
%TO.P,J8,1,Pin_1*%
%TO.N,/DHT_OUT*%
X207055000Y-99500000D03*
%TD*%
D15*
%TO.P,J5,1,Pin_1*%
%TO.N,/VCC*%
X192920000Y-68835000D03*
D10*
%TO.P,J5,2,Pin_2*%
%TO.N,/GND*%
X187920000Y-68835000D03*
%TO.P,J5,3,Pin_3*%
%TO.N,/HALL1_OUT*%
X182920000Y-68835000D03*
%TD*%
D16*
%TO.P,C1,1*%
%TO.N,/VCC*%
X193145000Y-76390000D03*
%TO.P,C1,2*%
%TO.N,/GND*%
X190645000Y-76390000D03*
%TD*%
%TO.P,R1,1*%
%TO.N,/SCL*%
X189730000Y-102490000D03*
%TO.P,R1,2*%
%TO.N,/VCC*%
X179570000Y-102490000D03*
%TD*%
%TO.P,R3,1*%
%TO.N,/HALL2_OUT*%
X179570000Y-90390000D03*
%TO.P,R3,2*%
%TO.N,/VCC*%
X189730000Y-90390000D03*
%TD*%
D15*
%TO.P,J2,1,Pin_1*%
%TO.N,Net-(J2-Pin_1)*%
X129830000Y-68835000D03*
D10*
%TO.P,J2,2,Pin_2*%
%TO.N,/MISO*%
X124830000Y-68835000D03*
%TO.P,J2,3,Pin_3*%
%TO.N,/MOSI*%
X119830000Y-68835000D03*
%TO.P,J2,4,Pin_4*%
%TO.N,/SCK*%
X114830000Y-68835000D03*
%TO.P,J2,5,Pin_5*%
%TO.N,/CS*%
X109830000Y-68835000D03*
%TO.P,J2,6,Pin_6*%
%TO.N,Net-(J2-Pin_6)*%
X104830000Y-68835000D03*
%TO.P,J2,7,Pin_7*%
%TO.N,/HALL1_OUT*%
X99830000Y-68835000D03*
%TO.P,J2,8,Pin_8*%
%TO.N,/HALL2_OUT*%
X94830000Y-68835000D03*
%TO.P,J2,9,Pin_9*%
%TO.N,Net-(J2-Pin_9)*%
X89830000Y-68835000D03*
%TD*%
D15*
%TO.P,J1,1,Pin_1*%
%TO.N,/GND*%
X176375000Y-68835000D03*
D10*
%TO.P,J1,2,Pin_2*%
%TO.N,/VCC*%
X171375000Y-68835000D03*
%TO.P,J1,3,Pin_3*%
%TO.N,Net-(J1-Pin_3)*%
X166375000Y-68835000D03*
%TO.P,J1,4,Pin_4*%
%TO.N,Net-(J1-Pin_4)*%
X161375000Y-68835000D03*
%TO.P,J1,5,Pin_5*%
%TO.N,Net-(J1-Pin_5)*%
X156375000Y-68835000D03*
%TO.P,J1,6,Pin_6*%
%TO.N,Net-(J1-Pin_6)*%
X151375000Y-68835000D03*
%TO.P,J1,7,Pin_7*%
%TO.N,Net-(J1-Pin_7)*%
X146375000Y-68835000D03*
%TO.P,J1,8,Pin_8*%
%TO.N,Net-(J1-Pin_8)*%
X141375000Y-68835000D03*
%TO.P,J1,9,Pin_9*%
%TO.N,Net-(J1-Pin_9)*%
X136375000Y-68835000D03*
%TD*%
D11*
%TO.P,J4,1,Pin_1*%
%TO.N,Net-(J4-Pin_1)*%
X136375000Y-120165000D03*
D10*
%TO.P,J4,2,Pin_2*%
%TO.N,Net-(J4-Pin_2)*%
X141375000Y-120165000D03*
%TO.P,J4,3,Pin_3*%
%TO.N,Net-(J4-Pin_3)*%
X146375000Y-120165000D03*
%TO.P,J4,4,Pin_4*%
%TO.N,Net-(J4-Pin_4)*%
X151375000Y-120165000D03*
%TO.P,J4,5,Pin_5*%
%TO.N,Net-(J4-Pin_5)*%
X156375000Y-120165000D03*
%TO.P,J4,6,Pin_6*%
%TO.N,Net-(J4-Pin_6)*%
X161375000Y-120165000D03*
%TO.P,J4,7,Pin_7*%
%TO.N,Net-(J4-Pin_7)*%
X166375000Y-120165000D03*
%TO.P,J4,8,Pin_8*%
%TO.N,Net-(J4-Pin_8)*%
X171375000Y-120165000D03*
%TO.P,J4,9,Pin_9*%
%TO.N,Net-(J4-Pin_9)*%
X176375000Y-120165000D03*
%TD*%
D16*
%TO.P,R5,1*%
%TO.N,/DHT_OUT*%
X189730000Y-94445000D03*
%TO.P,R5,2*%
%TO.N,/VCC*%
X179570000Y-94445000D03*
%TD*%
%TO.P,R4,1*%
%TO.N,/VCC*%
X189730000Y-86340000D03*
%TO.P,R4,2*%
%TO.N,/HALL1_OUT*%
X179570000Y-86340000D03*
%TD*%
%TO.P,R2,1*%
%TO.N,/VCC*%
X179570000Y-98440000D03*
%TO.P,R2,2*%
%TO.N,/SDA*%
X189730000Y-98440000D03*
%TD*%
D15*
%TO.P,J6,1,Pin_1*%
%TO.N,/VCC*%
X209420000Y-68835000D03*
D10*
%TO.P,J6,2,Pin_2*%
%TO.N,/GND*%
X204420000Y-68835000D03*
%TO.P,J6,3,Pin_3*%
%TO.N,/HALL2_OUT*%
X199420000Y-68835000D03*
%TD*%
D16*
%TO.P,C2,1*%
%TO.N,/GND*%
X207125000Y-76390000D03*
%TO.P,C2,2*%
%TO.N,/VCC*%
X209625000Y-76390000D03*
%TD*%
D17*
%TO.N,Net-(J1-Pin_5)*%
X156375000Y-68835000D02*
X145342500Y-79867500D01*
X145342500Y-79867500D02*
X145342500Y-83477500D01*
%TO.N,Net-(J1-Pin_4)*%
X147882500Y-82327500D02*
X147882500Y-83477500D01*
X161375000Y-69985000D02*
X161375000Y-68835000D01*
X161375000Y-68835000D02*
X147882500Y-82327500D01*
%TO.N,Net-(J1-Pin_7)*%
X140262500Y-83477500D02*
X140262500Y-74947500D01*
X140262500Y-74947500D02*
X146375000Y-68835000D01*
%TO.N,Net-(J1-Pin_3)*%
X150422500Y-83477500D02*
X165065000Y-68835000D01*
X165065000Y-68835000D02*
X166375000Y-68835000D01*
%TO.N,Net-(J1-Pin_8)*%
X137722500Y-72487500D02*
X141375000Y-68835000D01*
X137722500Y-83477500D02*
X137722500Y-72487500D01*
%TO.N,Net-(J1-Pin_6)*%
X142802500Y-83477500D02*
X142802500Y-77407500D01*
X142802500Y-77407500D02*
X151375000Y-68835000D01*
%TO.N,/SCK*%
X138620000Y-97075000D02*
X125022500Y-83477500D01*
X125022500Y-83477500D02*
X125022500Y-79027500D01*
X125022500Y-79027500D02*
X114830000Y-68835000D01*
X168486250Y-97075000D02*
X138620000Y-97075000D01*
%TO.N,/HALL2_OUT*%
X114862500Y-83477500D02*
X114862500Y-83432500D01*
X133005000Y-101620000D02*
X114862500Y-83477500D01*
X112375000Y-80990000D02*
X114862500Y-83477500D01*
X199420000Y-72900000D02*
X181930000Y-90390000D01*
X179570000Y-90390000D02*
X179570000Y-91603359D01*
X94830000Y-68835000D02*
X106940000Y-80945000D01*
X106940000Y-80945000D02*
X112375000Y-80945000D01*
X199420000Y-68835000D02*
X199420000Y-72900000D01*
X181930000Y-90390000D02*
X179570000Y-90390000D01*
X112375000Y-80945000D02*
X112375000Y-80990000D01*
X169553359Y-101620000D02*
X133005000Y-101620000D01*
X179570000Y-91603359D02*
X169553359Y-101620000D01*
%TO.N,Net-(J2-Pin_6)*%
X105300000Y-68835000D02*
X104830000Y-68835000D01*
X119942500Y-83477500D02*
X105300000Y-68835000D01*
%TO.N,/CS*%
X122482500Y-81487500D02*
X109830000Y-68835000D01*
X122482500Y-83477500D02*
X122482500Y-81487500D01*
X138620000Y-99615000D02*
X122482500Y-83477500D01*
X168486250Y-99615000D02*
X138620000Y-99615000D01*
%TO.N,Net-(J2-Pin_1)*%
X132642500Y-83477500D02*
X132642500Y-71647500D01*
X132642500Y-71647500D02*
X129830000Y-68835000D01*
%TO.N,/MISO*%
X138620000Y-91995000D02*
X130102500Y-83477500D01*
X130102500Y-74107500D02*
X124830000Y-68835000D01*
X130102500Y-83477500D02*
X130102500Y-74107500D01*
X168486250Y-91995000D02*
X138620000Y-91995000D01*
%TO.N,/HALL1_OUT*%
X99830000Y-68835000D02*
X109440000Y-78445000D01*
X109440000Y-78445000D02*
X112370000Y-78445000D01*
X179570000Y-86340000D02*
X169664650Y-96245350D01*
X169664650Y-100793400D02*
X134718400Y-100793400D01*
X182920000Y-68835000D02*
X179570000Y-72185000D01*
X134718400Y-100793400D02*
X117402500Y-83477500D01*
X169664650Y-96245350D02*
X169664650Y-100793400D01*
X112370000Y-78445000D02*
X117402500Y-83477500D01*
X179570000Y-72185000D02*
X179570000Y-86340000D01*
%TO.N,/MOSI*%
X127562500Y-76567500D02*
X119830000Y-68835000D01*
X168486250Y-94535000D02*
X138620000Y-94535000D01*
X138620000Y-94535000D02*
X127562500Y-83477500D01*
X127562500Y-83477500D02*
X127562500Y-76567500D01*
%TO.N,/DHT_OUT*%
X103497500Y-106497500D02*
X112322500Y-106497500D01*
X189730000Y-94445000D02*
X179230000Y-104945000D01*
X89830000Y-120165000D02*
X103497500Y-106497500D01*
X168375000Y-104945000D02*
X165875000Y-102445000D01*
X116375000Y-102445000D02*
X112322500Y-106497500D01*
X165875000Y-102445000D02*
X116375000Y-102445000D01*
X189730000Y-94445000D02*
X189730000Y-94500000D01*
X189730000Y-94445000D02*
X202000000Y-94445000D01*
X179230000Y-104945000D02*
X168375000Y-104945000D01*
X202000000Y-94445000D02*
X207055000Y-99500000D01*
%TO.N,Net-(J3-Pin_2)*%
X94830000Y-120165000D02*
X105550000Y-109445000D01*
X105550000Y-109445000D02*
X111915000Y-109445000D01*
X111915000Y-109445000D02*
X114862500Y-106497500D01*
%TO.N,Net-(J3-Pin_6)*%
X125022500Y-109972500D02*
X125022500Y-106497500D01*
X114830000Y-120165000D02*
X125022500Y-109972500D01*
%TO.N,/SDA*%
X104830000Y-120165000D02*
X106275000Y-120165000D01*
X182956600Y-125138400D02*
X178350000Y-120531800D01*
X191755000Y-123960000D02*
X190576600Y-125138400D01*
X208361864Y-124153400D02*
X205748136Y-124153400D01*
X189730000Y-100858846D02*
X189730000Y-98440000D01*
X201980000Y-110690000D02*
X189730000Y-98440000D01*
X178350000Y-120531800D02*
X178350000Y-119200000D01*
X201980000Y-120385264D02*
X201980000Y-110690000D01*
X207055000Y-117500000D02*
X208708400Y-119153400D01*
X191755000Y-102883846D02*
X189730000Y-100858846D01*
X208708400Y-119153400D02*
X208708400Y-123806864D01*
X164469100Y-105319100D02*
X121120900Y-105319100D01*
X191755000Y-123960000D02*
X191755000Y-102883846D01*
X106275000Y-120165000D02*
X119942500Y-106497500D01*
X178350000Y-119200000D02*
X164469100Y-105319100D01*
X190576600Y-125138400D02*
X182956600Y-125138400D01*
X121120900Y-105319100D02*
X119942500Y-106497500D01*
X205748136Y-124153400D02*
X201980000Y-120385264D01*
X208708400Y-123806864D02*
X208361864Y-124153400D01*
%TO.N,Net-(J3-Pin_7)*%
X119830000Y-120165000D02*
X127562500Y-112432500D01*
X127562500Y-112432500D02*
X127562500Y-106497500D01*
%TO.N,Net-(J3-Pin_5)*%
X109830000Y-120165000D02*
X122482500Y-107512500D01*
X122482500Y-107512500D02*
X122482500Y-106497500D01*
%TO.N,/SCL*%
X183770000Y-122570000D02*
X165145000Y-103945000D01*
X99830000Y-120165000D02*
X108050000Y-111945000D01*
X165145000Y-103945000D02*
X119955000Y-103945000D01*
X188517655Y-101277655D02*
X189730000Y-102490000D01*
X189215000Y-123960000D02*
X187825000Y-122570000D01*
X189730000Y-123445000D02*
X189215000Y-123960000D01*
X187825000Y-122570000D02*
X183770000Y-122570000D01*
X108050000Y-111945000D02*
X111955000Y-111945000D01*
X188748710Y-97286600D02*
X188517655Y-97517655D01*
X203000000Y-118445000D02*
X203000000Y-109918846D01*
X189730000Y-102490000D02*
X189730000Y-123445000D01*
X207055000Y-122500000D02*
X203000000Y-118445000D01*
X188517655Y-97517655D02*
X188517655Y-101277655D01*
X190367754Y-97286600D02*
X188748710Y-97286600D01*
X119955000Y-103945000D02*
X117402500Y-106497500D01*
X203000000Y-109918846D02*
X190367754Y-97286600D01*
X111955000Y-111945000D02*
X117402500Y-106497500D01*
%TO.N,Net-(J3-Pin_8)*%
X124830000Y-120165000D02*
X130102500Y-114892500D01*
X130102500Y-114892500D02*
X130102500Y-106497500D01*
%TO.N,Net-(J4-Pin_6)*%
X147882500Y-106672500D02*
X147882500Y-106497500D01*
X161375000Y-120165000D02*
X147882500Y-106672500D01*
%TO.N,Net-(J4-Pin_4)*%
X151375000Y-120165000D02*
X142802500Y-111592500D01*
X142802500Y-111592500D02*
X142802500Y-106497500D01*
%TO.N,Net-(J4-Pin_2)*%
X137722500Y-116512500D02*
X137722500Y-106497500D01*
X141375000Y-120165000D02*
X137722500Y-116512500D01*
%TO.N,Net-(J4-Pin_3)*%
X146375000Y-120165000D02*
X140262500Y-114052500D01*
X140262500Y-114052500D02*
X140262500Y-106497500D01*
%TO.N,Net-(J4-Pin_8)*%
X155910000Y-109445000D02*
X152962500Y-106497500D01*
X160655000Y-109445000D02*
X155910000Y-109445000D01*
X171375000Y-120165000D02*
X160655000Y-109445000D01*
%TO.N,Net-(J4-Pin_1)*%
X136375000Y-119445000D02*
X136375000Y-120165000D01*
X135182500Y-118252500D02*
X136375000Y-119445000D01*
X135182500Y-106497500D02*
X135182500Y-118252500D01*
%TO.N,Net-(J4-Pin_7)*%
X166375000Y-120165000D02*
X157155000Y-110945000D01*
X157155000Y-110945000D02*
X154870000Y-110945000D01*
X154870000Y-110945000D02*
X150422500Y-106497500D01*
%TO.N,Net-(J4-Pin_9)*%
X176375000Y-120165000D02*
X162707500Y-106497500D01*
X162707500Y-106497500D02*
X155502500Y-106497500D01*
%TO.N,Net-(J3-Pin_9)*%
X129830000Y-120165000D02*
X132642500Y-117352500D01*
X132642500Y-117352500D02*
X132642500Y-106497500D01*
%TO.N,Net-(J1-Pin_9)*%
X135182500Y-83477500D02*
X135182500Y-70027500D01*
X135182500Y-70027500D02*
X136375000Y-68835000D01*
%TO.N,Net-(J2-Pin_9)*%
X112322500Y-83477500D02*
X104472500Y-83477500D01*
X104472500Y-83477500D02*
X89830000Y-68835000D01*
D18*
%TO.N,/VCC*%
X205016200Y-64431200D02*
X209420000Y-68835000D01*
X192920000Y-68835000D02*
X192920000Y-76165000D01*
X168486250Y-89455000D02*
X158940000Y-89455000D01*
X209468200Y-124121584D02*
X208676583Y-124913200D01*
X152962500Y-83477500D02*
X156495000Y-79945000D01*
X209645000Y-76390000D02*
X209645000Y-69060000D01*
X175778800Y-64431200D02*
X171375000Y-68835000D01*
X204375000Y-106445000D02*
X204375000Y-109820000D01*
X200210071Y-66927600D02*
X194827400Y-66927600D01*
X200483200Y-124913200D02*
X198097600Y-122527600D01*
X204375000Y-109820000D02*
X207055000Y-112500000D01*
X202945000Y-90390000D02*
X207055000Y-94500000D01*
X209645000Y-69060000D02*
X209420000Y-68835000D01*
X193145000Y-69060000D02*
X192920000Y-68835000D01*
X209468200Y-114913200D02*
X209468200Y-124121584D01*
X209375000Y-96820000D02*
X209375000Y-101445000D01*
X189730000Y-90390000D02*
X189730000Y-86340000D01*
X201327400Y-74742600D02*
X201327400Y-68044929D01*
X158940000Y-89455000D02*
X152962500Y-83477500D01*
X181680000Y-98440000D02*
X185675000Y-94445000D01*
X189730000Y-86340000D02*
X201327400Y-74742600D01*
X209375000Y-101445000D02*
X204375000Y-106445000D01*
X189730000Y-90390000D02*
X202945000Y-90390000D01*
X208676583Y-124913200D02*
X200483200Y-124913200D01*
X192920000Y-76165000D02*
X193145000Y-76390000D01*
X195727400Y-122527600D02*
X194295000Y-123960000D01*
X201327400Y-68044929D02*
X200210071Y-66927600D01*
X179570000Y-94445000D02*
X181625000Y-94445000D01*
X181625000Y-94445000D02*
X189730000Y-86340000D01*
X179570000Y-102490000D02*
X179570000Y-98440000D01*
X198097600Y-122527600D02*
X195727400Y-122527600D01*
X156495000Y-79945000D02*
X160265000Y-79945000D01*
X175778800Y-64431200D02*
X205016200Y-64431200D01*
X160265000Y-79945000D02*
X171375000Y-68835000D01*
X207055000Y-112500000D02*
X209468200Y-114913200D01*
X185675000Y-94445000D02*
X189730000Y-90390000D01*
X207055000Y-94500000D02*
X209375000Y-96820000D01*
X179570000Y-98440000D02*
X181680000Y-98440000D01*
X194827400Y-66927600D02*
X192920000Y-68835000D01*
D17*
%TO.N,Net-(J4-Pin_5)*%
X156375000Y-120165000D02*
X145342500Y-109132500D01*
X145342500Y-109132500D02*
X145342500Y-106497500D01*
%TD*%
%TA.AperFunction,Conductor*%
%TO.N,/GND*%
G36*
X216383039Y-62519685D02*
G01*
X216428794Y-62572489D01*
X216440000Y-62624000D01*
X216440000Y-126376000D01*
X216420315Y-126443039D01*
X216367511Y-126488794D01*
X216316000Y-126500000D01*
X82684000Y-126500000D01*
X82616961Y-126480315D01*
X82571206Y-126427511D01*
X82560000Y-126376000D01*
X82560000Y-109913649D01*
X86579500Y-109913649D01*
X86579500Y-109926375D01*
X86579500Y-110232041D01*
X86585415Y-110292100D01*
X86610706Y-110548888D01*
X86610709Y-110548905D01*
X86672817Y-110861151D01*
X86672820Y-110861162D01*
X86765247Y-111165854D01*
X86887087Y-111460001D01*
X86887094Y-111460015D01*
X87037171Y-111740792D01*
X87037182Y-111740810D01*
X87214061Y-112005528D01*
X87214071Y-112005542D01*
X87416056Y-112251661D01*
X87641183Y-112476788D01*
X87641188Y-112476792D01*
X87641189Y-112476793D01*
X87887308Y-112678778D01*
X88152041Y-112855667D01*
X88432837Y-113005755D01*
X88726992Y-113127598D01*
X89031673Y-113220022D01*
X89031679Y-113220023D01*
X89031682Y-113220024D01*
X89031693Y-113220027D01*
X89227498Y-113258974D01*
X89343946Y-113282137D01*
X89660804Y-113313345D01*
X89660807Y-113313345D01*
X89979193Y-113313345D01*
X89979196Y-113313345D01*
X90296054Y-113282137D01*
X90450619Y-113251391D01*
X90608306Y-113220027D01*
X90608317Y-113220024D01*
X90608317Y-113220023D01*
X90608327Y-113220022D01*
X90913008Y-113127598D01*
X91207163Y-113005755D01*
X91487959Y-112855667D01*
X91752692Y-112678778D01*
X91998811Y-112476793D01*
X92223948Y-112251656D01*
X92425933Y-112005537D01*
X92602822Y-111740804D01*
X92752910Y-111460008D01*
X92874753Y-111165853D01*
X92967177Y-110861172D01*
X92967179Y-110861162D01*
X92967182Y-110861151D01*
X93003252Y-110679812D01*
X93029292Y-110548899D01*
X93060500Y-110232041D01*
X93060500Y-109913649D01*
X93029292Y-109596791D01*
X92988753Y-109392988D01*
X92967182Y-109284538D01*
X92967179Y-109284527D01*
X92967178Y-109284524D01*
X92967177Y-109284518D01*
X92874753Y-108979837D01*
X92752910Y-108685682D01*
X92602822Y-108404886D01*
X92425933Y-108140153D01*
X92223948Y-107894034D01*
X92223947Y-107894033D01*
X92223943Y-107894028D01*
X91998816Y-107668901D01*
X91752697Y-107466916D01*
X91752696Y-107466915D01*
X91752692Y-107466912D01*
X91487959Y-107290023D01*
X91487954Y-107290020D01*
X91487947Y-107290016D01*
X91239591Y-107157268D01*
X91207163Y-107139935D01*
X91188820Y-107132337D01*
X90913009Y-107018092D01*
X90608317Y-106925665D01*
X90608306Y-106925662D01*
X90296060Y-106863554D01*
X90296043Y-106863551D01*
X90056434Y-106839952D01*
X89979196Y-106832345D01*
X89660804Y-106832345D01*
X89589370Y-106839380D01*
X89343956Y-106863551D01*
X89343939Y-106863554D01*
X89031693Y-106925662D01*
X89031682Y-106925665D01*
X88726990Y-107018092D01*
X88432843Y-107139932D01*
X88432829Y-107139939D01*
X88152052Y-107290016D01*
X88152034Y-107290027D01*
X87887316Y-107466906D01*
X87887302Y-107466916D01*
X87641183Y-107668901D01*
X87416056Y-107894028D01*
X87214071Y-108140147D01*
X87214061Y-108140161D01*
X87037182Y-108404879D01*
X87037171Y-108404897D01*
X86887094Y-108685674D01*
X86887087Y-108685688D01*
X86765247Y-108979835D01*
X86672820Y-109284527D01*
X86672817Y-109284538D01*
X86610709Y-109596784D01*
X86610706Y-109596801D01*
X86586535Y-109842215D01*
X86579500Y-109913649D01*
X82560000Y-109913649D01*
X82560000Y-94340807D01*
X112739500Y-94340807D01*
X112739500Y-94659192D01*
X112770706Y-94976043D01*
X112770709Y-94976060D01*
X112832817Y-95288306D01*
X112832820Y-95288317D01*
X112925247Y-95593009D01*
X113023060Y-95829150D01*
X113047090Y-95887163D01*
X113075957Y-95941170D01*
X113197171Y-96167947D01*
X113197182Y-96167965D01*
X113374061Y-96432683D01*
X113374071Y-96432697D01*
X113576056Y-96678816D01*
X113801183Y-96903943D01*
X113801188Y-96903947D01*
X113801189Y-96903948D01*
X114047308Y-97105933D01*
X114312041Y-97282822D01*
X114592837Y-97432910D01*
X114886992Y-97554753D01*
X115191673Y-97647177D01*
X115191679Y-97647178D01*
X115191682Y-97647179D01*
X115191693Y-97647182D01*
X115387498Y-97686129D01*
X115503946Y-97709292D01*
X115503955Y-97709292D01*
X115503956Y-97709293D01*
X115519340Y-97710808D01*
X115820804Y-97740500D01*
X115820807Y-97740500D01*
X116139193Y-97740500D01*
X116139196Y-97740500D01*
X116456054Y-97709292D01*
X116610619Y-97678546D01*
X116768306Y-97647182D01*
X116768317Y-97647179D01*
X116768317Y-97647178D01*
X116768327Y-97647177D01*
X117073008Y-97554753D01*
X117367163Y-97432910D01*
X117647959Y-97282822D01*
X117912692Y-97105933D01*
X118158811Y-96903948D01*
X118383948Y-96678811D01*
X118585933Y-96432692D01*
X118762822Y-96167959D01*
X118912910Y-95887163D01*
X119034753Y-95593008D01*
X119127177Y-95288327D01*
X119127179Y-95288317D01*
X119127182Y-95288306D01*
X119165055Y-95097900D01*
X119189292Y-94976054D01*
X119220500Y-94659196D01*
X119220500Y-94340804D01*
X119189292Y-94023946D01*
X119157956Y-93866407D01*
X119127182Y-93711693D01*
X119127179Y-93711682D01*
X119127178Y-93711679D01*
X119127177Y-93711673D01*
X119034753Y-93406992D01*
X118912910Y-93112837D01*
X118762822Y-92832041D01*
X118585933Y-92567308D01*
X118383948Y-92321189D01*
X118383947Y-92321188D01*
X118383943Y-92321183D01*
X118158816Y-92096056D01*
X117912697Y-91894071D01*
X117912696Y-91894070D01*
X117912692Y-91894067D01*
X117647959Y-91717178D01*
X117647954Y-91717175D01*
X117647947Y-91717171D01*
X117367170Y-91567094D01*
X117367163Y-91567090D01*
X117367156Y-91567087D01*
X117073009Y-91445247D01*
X116768317Y-91352820D01*
X116768306Y-91352817D01*
X116456060Y-91290709D01*
X116456043Y-91290706D01*
X116216434Y-91267107D01*
X116139196Y-91259500D01*
X115820804Y-91259500D01*
X115749370Y-91266535D01*
X115503956Y-91290706D01*
X115503939Y-91290709D01*
X115191693Y-91352817D01*
X115191682Y-91352820D01*
X114886990Y-91445247D01*
X114592843Y-91567087D01*
X114592829Y-91567094D01*
X114312052Y-91717171D01*
X114312034Y-91717182D01*
X114047316Y-91894061D01*
X114047302Y-91894071D01*
X113801183Y-92096056D01*
X113576056Y-92321183D01*
X113374071Y-92567302D01*
X113374068Y-92567306D01*
X113374067Y-92567308D01*
X113336982Y-92622810D01*
X113197182Y-92832034D01*
X113197171Y-92832052D01*
X113047094Y-93112829D01*
X113047087Y-93112843D01*
X112925247Y-93406990D01*
X112832820Y-93711682D01*
X112832817Y-93711693D01*
X112770709Y-94023939D01*
X112770706Y-94023956D01*
X112739500Y-94340807D01*
X82560000Y-94340807D01*
X82560000Y-78767960D01*
X86579500Y-78767960D01*
X86579500Y-78780686D01*
X86579500Y-79086352D01*
X86582576Y-79117585D01*
X86610706Y-79403199D01*
X86610709Y-79403216D01*
X86672817Y-79715462D01*
X86672820Y-79715473D01*
X86765247Y-80020165D01*
X86887087Y-80314312D01*
X86887094Y-80314326D01*
X87037171Y-80595103D01*
X87037182Y-80595121D01*
X87214061Y-80859839D01*
X87214071Y-80859853D01*
X87416056Y-81105972D01*
X87641183Y-81331099D01*
X87641188Y-81331103D01*
X87641189Y-81331104D01*
X87887308Y-81533089D01*
X88152041Y-81709978D01*
X88432837Y-81860066D01*
X88726992Y-81981909D01*
X89031673Y-82074333D01*
X89031679Y-82074334D01*
X89031682Y-82074335D01*
X89031693Y-82074338D01*
X89227498Y-82113285D01*
X89343946Y-82136448D01*
X89660804Y-82167656D01*
X89660807Y-82167656D01*
X89979193Y-82167656D01*
X89979196Y-82167656D01*
X90296054Y-82136448D01*
X90450619Y-82105702D01*
X90608306Y-82074338D01*
X90608317Y-82074335D01*
X90608317Y-82074334D01*
X90608327Y-82074333D01*
X90913008Y-81981909D01*
X91207163Y-81860066D01*
X91487959Y-81709978D01*
X91752692Y-81533089D01*
X91998811Y-81331104D01*
X92223948Y-81105967D01*
X92425933Y-80859848D01*
X92602822Y-80595115D01*
X92752910Y-80314319D01*
X92874753Y-80020164D01*
X92967177Y-79715483D01*
X92967179Y-79715473D01*
X92967182Y-79715462D01*
X93019727Y-79451294D01*
X93029292Y-79403210D01*
X93060500Y-79086352D01*
X93060500Y-78767960D01*
X93029292Y-78451102D01*
X93006129Y-78334654D01*
X92967182Y-78138849D01*
X92967179Y-78138838D01*
X92967178Y-78138835D01*
X92967177Y-78138829D01*
X92874753Y-77834148D01*
X92752910Y-77539993D01*
X92602822Y-77259197D01*
X92425933Y-76994464D01*
X92223948Y-76748345D01*
X92223947Y-76748344D01*
X92223943Y-76748339D01*
X91998816Y-76523212D01*
X91752697Y-76321227D01*
X91752696Y-76321226D01*
X91752692Y-76321223D01*
X91487959Y-76144334D01*
X91487954Y-76144331D01*
X91487947Y-76144327D01*
X91207170Y-75994250D01*
X91207163Y-75994246D01*
X91207156Y-75994243D01*
X90913009Y-75872403D01*
X90608317Y-75779976D01*
X90608306Y-75779973D01*
X90296060Y-75717865D01*
X90296043Y-75717862D01*
X90056434Y-75694263D01*
X89979196Y-75686656D01*
X89660804Y-75686656D01*
X89589370Y-75693691D01*
X89343956Y-75717862D01*
X89343939Y-75717865D01*
X89031693Y-75779973D01*
X89031682Y-75779976D01*
X88726990Y-75872403D01*
X88432843Y-75994243D01*
X88432829Y-75994250D01*
X88152052Y-76144327D01*
X88152034Y-76144338D01*
X87887316Y-76321217D01*
X87887302Y-76321227D01*
X87641183Y-76523212D01*
X87416056Y-76748339D01*
X87214071Y-76994458D01*
X87214061Y-76994472D01*
X87037182Y-77259190D01*
X87037171Y-77259208D01*
X86887094Y-77539985D01*
X86887087Y-77539999D01*
X86765247Y-77834146D01*
X86672820Y-78138838D01*
X86672817Y-78138849D01*
X86610709Y-78451095D01*
X86610706Y-78451112D01*
X86586535Y-78696526D01*
X86579500Y-78767960D01*
X82560000Y-78767960D01*
X82560000Y-68716995D01*
X88029500Y-68716995D01*
X88029500Y-68953004D01*
X88029501Y-68953020D01*
X88060306Y-69187010D01*
X88121394Y-69414993D01*
X88211714Y-69633045D01*
X88211719Y-69633056D01*
X88260236Y-69717088D01*
X88329727Y-69837450D01*
X88329729Y-69837453D01*
X88329730Y-69837454D01*
X88473406Y-70024697D01*
X88473412Y-70024704D01*
X88640295Y-70191587D01*
X88640302Y-70191593D01*
X88720465Y-70253104D01*
X88827550Y-70335273D01*
X88957097Y-70410067D01*
X89031943Y-70453280D01*
X89031948Y-70453282D01*
X89031951Y-70453284D01*
X89250007Y-70543606D01*
X89477986Y-70604693D01*
X89603835Y-70621260D01*
X89619652Y-70624401D01*
X90932843Y-70975457D01*
X91056675Y-71008561D01*
X91112332Y-71040673D01*
X104056299Y-83984640D01*
X104162508Y-84055606D01*
X104162883Y-84055856D01*
X104163236Y-84056092D01*
X104163239Y-84056093D01*
X104163244Y-84056096D01*
X104282051Y-84105307D01*
X104282056Y-84105309D01*
X104282060Y-84105309D01*
X104282061Y-84105310D01*
X104408192Y-84130400D01*
X104408195Y-84130400D01*
X110541186Y-84130400D01*
X110592426Y-84141482D01*
X110660150Y-84172214D01*
X111627801Y-84611319D01*
X111632835Y-84613742D01*
X111634619Y-84614651D01*
X111813679Y-84705887D01*
X111813681Y-84705887D01*
X111813684Y-84705889D01*
X111920045Y-84740448D01*
X112012110Y-84770362D01*
X112218176Y-84803000D01*
X112218181Y-84803000D01*
X112426824Y-84803000D01*
X112632889Y-84770362D01*
X112652752Y-84763908D01*
X112831316Y-84705889D01*
X113017214Y-84611170D01*
X113186005Y-84488535D01*
X113333535Y-84341005D01*
X113456170Y-84172214D01*
X113482015Y-84121490D01*
X113529989Y-84070694D01*
X113597810Y-84053898D01*
X113663945Y-84076435D01*
X113702985Y-84121490D01*
X113728828Y-84172212D01*
X113810586Y-84284741D01*
X113851465Y-84341005D01*
X113998995Y-84488535D01*
X114167786Y-84611170D01*
X114353684Y-84705889D01*
X114353686Y-84705890D01*
X114546674Y-84768595D01*
X114551967Y-84770448D01*
X115616338Y-85170352D01*
X115660407Y-85198748D01*
X123928341Y-93466682D01*
X132042079Y-101580419D01*
X132075564Y-101641742D01*
X132070580Y-101711434D01*
X132028708Y-101767367D01*
X131963244Y-101791784D01*
X131954398Y-101792100D01*
X116310693Y-101792100D01*
X116184561Y-101817189D01*
X116184555Y-101817191D01*
X116065737Y-101866407D01*
X115958797Y-101937861D01*
X115958796Y-101937862D01*
X113120408Y-104776249D01*
X113076339Y-104804645D01*
X112011954Y-105204554D01*
X112006660Y-105206408D01*
X111813687Y-105269109D01*
X111813686Y-105269109D01*
X111632873Y-105361237D01*
X111627830Y-105363664D01*
X110592423Y-105833518D01*
X110541184Y-105844600D01*
X103433193Y-105844600D01*
X103307061Y-105869689D01*
X103307055Y-105869691D01*
X103188236Y-105918907D01*
X103081298Y-105990360D01*
X103081295Y-105990363D01*
X91405067Y-117666590D01*
X91361658Y-117694736D01*
X89630770Y-118356327D01*
X89586498Y-118364500D01*
X88729998Y-118364500D01*
X88729980Y-118364501D01*
X88627203Y-118375000D01*
X88627200Y-118375001D01*
X88460668Y-118430185D01*
X88460663Y-118430187D01*
X88311342Y-118522289D01*
X88187289Y-118646342D01*
X88095187Y-118795663D01*
X88095185Y-118795668D01*
X88090962Y-118808412D01*
X88040001Y-118962203D01*
X88040001Y-118962204D01*
X88040000Y-118962204D01*
X88029500Y-119064983D01*
X88029500Y-121265001D01*
X88029501Y-121265018D01*
X88040000Y-121367796D01*
X88040001Y-121367799D01*
X88090962Y-121521587D01*
X88095186Y-121534334D01*
X88187288Y-121683656D01*
X88311344Y-121807712D01*
X88460666Y-121899814D01*
X88627203Y-121954999D01*
X88729991Y-121965500D01*
X90930008Y-121965499D01*
X91032797Y-121954999D01*
X91199334Y-121899814D01*
X91348656Y-121807712D01*
X91472712Y-121683656D01*
X91564814Y-121534334D01*
X91619999Y-121367797D01*
X91630500Y-121265009D01*
X91630499Y-120408495D01*
X91638672Y-120364224D01*
X91669714Y-120283011D01*
X92300261Y-118633339D01*
X92328404Y-118589935D01*
X103731621Y-107186719D01*
X103792944Y-107153234D01*
X103819302Y-107150400D01*
X110541186Y-107150400D01*
X110592426Y-107161482D01*
X110875699Y-107290027D01*
X111627801Y-107631319D01*
X111632835Y-107633742D01*
X111691271Y-107663517D01*
X111813679Y-107725887D01*
X111813681Y-107725887D01*
X111813684Y-107725889D01*
X111842753Y-107735334D01*
X112012110Y-107790362D01*
X112218176Y-107823000D01*
X112314296Y-107823000D01*
X112381335Y-107842685D01*
X112427090Y-107895489D01*
X112437034Y-107964647D01*
X112408009Y-108028203D01*
X112401977Y-108034681D01*
X111680878Y-108755781D01*
X111619555Y-108789266D01*
X111593197Y-108792100D01*
X105485693Y-108792100D01*
X105359561Y-108817189D01*
X105359555Y-108817191D01*
X105240737Y-108866407D01*
X105133797Y-108937861D01*
X105133796Y-108937862D01*
X96112333Y-117959324D01*
X96056676Y-117991436D01*
X94619658Y-118375593D01*
X94603821Y-118378739D01*
X94477988Y-118395306D01*
X94250006Y-118456394D01*
X94031954Y-118546714D01*
X94031943Y-118546719D01*
X93827545Y-118664730D01*
X93640302Y-118808406D01*
X93640295Y-118808412D01*
X93473412Y-118975295D01*
X93473406Y-118975302D01*
X93329730Y-119162545D01*
X93211719Y-119366943D01*
X93211714Y-119366954D01*
X93121394Y-119585006D01*
X93060306Y-119812989D01*
X93029501Y-120046979D01*
X93029500Y-120046995D01*
X93029500Y-120283004D01*
X93029501Y-120283020D01*
X93051427Y-120449569D01*
X93060307Y-120517014D01*
X93107014Y-120691327D01*
X93121394Y-120744993D01*
X93211714Y-120963045D01*
X93211719Y-120963056D01*
X93282677Y-121085957D01*
X93329727Y-121167450D01*
X93329729Y-121167453D01*
X93329730Y-121167454D01*
X93473406Y-121354697D01*
X93473412Y-121354704D01*
X93640295Y-121521587D01*
X93640302Y-121521593D01*
X93656909Y-121534336D01*
X93827550Y-121665273D01*
X93929121Y-121723915D01*
X94031943Y-121783280D01*
X94031948Y-121783282D01*
X94031951Y-121783284D01*
X94250007Y-121873606D01*
X94477986Y-121934693D01*
X94711989Y-121965500D01*
X94711996Y-121965500D01*
X94948004Y-121965500D01*
X94948011Y-121965500D01*
X95182014Y-121934693D01*
X95409993Y-121873606D01*
X95628049Y-121783284D01*
X95832450Y-121665273D01*
X96019699Y-121521592D01*
X96186592Y-121354699D01*
X96330273Y-121167450D01*
X96448284Y-120963049D01*
X96538606Y-120744993D01*
X96599693Y-120517014D01*
X96616260Y-120391168D01*
X96619406Y-120375332D01*
X97003561Y-118938321D01*
X97035671Y-118882668D01*
X105784121Y-110134219D01*
X105845444Y-110100734D01*
X105871802Y-110097900D01*
X111979307Y-110097900D01*
X112064165Y-110081019D01*
X112105444Y-110072809D01*
X112224264Y-110023592D01*
X112331200Y-109952141D01*
X114064593Y-108218746D01*
X114108657Y-108190353D01*
X114657445Y-107984163D01*
X114727122Y-107979012D01*
X114788525Y-108012349D01*
X114822158Y-108073592D01*
X114817340Y-108143295D01*
X114788736Y-108187922D01*
X111720878Y-111255781D01*
X111659555Y-111289266D01*
X111633197Y-111292100D01*
X107985693Y-111292100D01*
X107860290Y-111317045D01*
X107860284Y-111317046D01*
X107859560Y-111317189D01*
X107859555Y-111317191D01*
X107740737Y-111366407D01*
X107633797Y-111437861D01*
X107633796Y-111437862D01*
X101112333Y-117959324D01*
X101056676Y-117991436D01*
X99619658Y-118375593D01*
X99603821Y-118378739D01*
X99477988Y-118395306D01*
X99250006Y-118456394D01*
X99031954Y-118546714D01*
X99031943Y-118546719D01*
X98827545Y-118664730D01*
X98640302Y-118808406D01*
X98640295Y-118808412D01*
X98473412Y-118975295D01*
X98473406Y-118975302D01*
X98329730Y-119162545D01*
X98211719Y-119366943D01*
X98211714Y-119366954D01*
X98121394Y-119585006D01*
X98060306Y-119812989D01*
X98029501Y-120046979D01*
X98029500Y-120046995D01*
X98029500Y-120283004D01*
X98029501Y-120283020D01*
X98051427Y-120449569D01*
X98060307Y-120517014D01*
X98107014Y-120691327D01*
X98121394Y-120744993D01*
X98211714Y-120963045D01*
X98211719Y-120963056D01*
X98282677Y-121085957D01*
X98329727Y-121167450D01*
X98329729Y-121167453D01*
X98329730Y-121167454D01*
X98473406Y-121354697D01*
X98473412Y-121354704D01*
X98640295Y-121521587D01*
X98640302Y-121521593D01*
X98656909Y-121534336D01*
X98827550Y-121665273D01*
X98929121Y-121723915D01*
X99031943Y-121783280D01*
X99031948Y-121783282D01*
X99031951Y-121783284D01*
X99250007Y-121873606D01*
X99477986Y-121934693D01*
X99711989Y-121965500D01*
X99711996Y-121965500D01*
X99948004Y-121965500D01*
X99948011Y-121965500D01*
X100182014Y-121934693D01*
X100409993Y-121873606D01*
X100628049Y-121783284D01*
X100832450Y-121665273D01*
X101019699Y-121521592D01*
X101186592Y-121354699D01*
X101330273Y-121167450D01*
X101448284Y-120963049D01*
X101538606Y-120744993D01*
X101599693Y-120517014D01*
X101616260Y-120391168D01*
X101619406Y-120375332D01*
X102003561Y-118938321D01*
X102035671Y-118882668D01*
X108284121Y-112634219D01*
X108345444Y-112600734D01*
X108371802Y-112597900D01*
X112019307Y-112597900D01*
X112104165Y-112581019D01*
X112145444Y-112572809D01*
X112264264Y-112523592D01*
X112371200Y-112452141D01*
X116604592Y-108218746D01*
X116648656Y-108190353D01*
X117197445Y-107984163D01*
X117267122Y-107979012D01*
X117328525Y-108012350D01*
X117362158Y-108073592D01*
X117357340Y-108143296D01*
X117328736Y-108187922D01*
X106689558Y-118827099D01*
X106628235Y-118860584D01*
X106561642Y-118856709D01*
X105948398Y-118646342D01*
X105536747Y-118505129D01*
X105536746Y-118505129D01*
X105517996Y-118498697D01*
X105500377Y-118493320D01*
X105499261Y-118492958D01*
X105498973Y-118492761D01*
X105490150Y-118489596D01*
X105409997Y-118456395D01*
X105182010Y-118395306D01*
X104948020Y-118364501D01*
X104948017Y-118364500D01*
X104948011Y-118364500D01*
X104711989Y-118364500D01*
X104711983Y-118364500D01*
X104711979Y-118364501D01*
X104477989Y-118395306D01*
X104250006Y-118456394D01*
X104031954Y-118546714D01*
X104031943Y-118546719D01*
X103827545Y-118664730D01*
X103640302Y-118808406D01*
X103640295Y-118808412D01*
X103473412Y-118975295D01*
X103473406Y-118975302D01*
X103329730Y-119162545D01*
X103211719Y-119366943D01*
X103211714Y-119366954D01*
X103121394Y-119585006D01*
X103060306Y-119812989D01*
X103029501Y-120046979D01*
X103029500Y-120046995D01*
X103029500Y-120283004D01*
X103029501Y-120283020D01*
X103051427Y-120449569D01*
X103060307Y-120517014D01*
X103107014Y-120691327D01*
X103121394Y-120744993D01*
X103211714Y-120963045D01*
X103211719Y-120963056D01*
X103282677Y-121085957D01*
X103329727Y-121167450D01*
X103329729Y-121167453D01*
X103329730Y-121167454D01*
X103473406Y-121354697D01*
X103473412Y-121354704D01*
X103640295Y-121521587D01*
X103640302Y-121521593D01*
X103656909Y-121534336D01*
X103827550Y-121665273D01*
X103929121Y-121723915D01*
X104031943Y-121783280D01*
X104031948Y-121783282D01*
X104031951Y-121783284D01*
X104250007Y-121873606D01*
X104477986Y-121934693D01*
X104711989Y-121965500D01*
X104711996Y-121965500D01*
X104948004Y-121965500D01*
X104948011Y-121965500D01*
X105182014Y-121934693D01*
X105409993Y-121873606D01*
X105628049Y-121783284D01*
X105832450Y-121665273D01*
X106019699Y-121521592D01*
X106186592Y-121354699D01*
X106322694Y-121177324D01*
X106328336Y-121170493D01*
X107350116Y-120019964D01*
X107374962Y-119989703D01*
X107374964Y-119989697D01*
X107377184Y-119986995D01*
X107385330Y-119978009D01*
X107923174Y-119440165D01*
X107984495Y-119406682D01*
X108054187Y-119411666D01*
X108110120Y-119453538D01*
X108134537Y-119519002D01*
X108125416Y-119575296D01*
X108121394Y-119585004D01*
X108060306Y-119812989D01*
X108029501Y-120046979D01*
X108029500Y-120046995D01*
X108029500Y-120283004D01*
X108029501Y-120283020D01*
X108051427Y-120449569D01*
X108060307Y-120517014D01*
X108107014Y-120691327D01*
X108121394Y-120744993D01*
X108211714Y-120963045D01*
X108211719Y-120963056D01*
X108282677Y-121085957D01*
X108329727Y-121167450D01*
X108329729Y-121167453D01*
X108329730Y-121167454D01*
X108473406Y-121354697D01*
X108473412Y-121354704D01*
X108640295Y-121521587D01*
X108640302Y-121521593D01*
X108656909Y-121534336D01*
X108827550Y-121665273D01*
X108929121Y-121723915D01*
X109031943Y-121783280D01*
X109031948Y-121783282D01*
X109031951Y-121783284D01*
X109250007Y-121873606D01*
X109477986Y-121934693D01*
X109711989Y-121965500D01*
X109711996Y-121965500D01*
X109948004Y-121965500D01*
X109948011Y-121965500D01*
X110182014Y-121934693D01*
X110409993Y-121873606D01*
X110628049Y-121783284D01*
X110832450Y-121665273D01*
X111019699Y-121521592D01*
X111186592Y-121354699D01*
X111330273Y-121167450D01*
X111448284Y-120963049D01*
X111538606Y-120744993D01*
X111599693Y-120517014D01*
X111616260Y-120391168D01*
X111619406Y-120375332D01*
X112003561Y-118938321D01*
X112035671Y-118882668D01*
X122501320Y-108417019D01*
X122532403Y-108391715D01*
X122600488Y-108317851D01*
X122989640Y-107928700D01*
X123061092Y-107821764D01*
X123061093Y-107821761D01*
X123064473Y-107816703D01*
X123076396Y-107801556D01*
X123350604Y-107504077D01*
X123354050Y-107500488D01*
X123493535Y-107361005D01*
X123536285Y-107302163D01*
X123556296Y-107278693D01*
X123557413Y-107277275D01*
X123582646Y-107238354D01*
X123616170Y-107192214D01*
X123642015Y-107141489D01*
X123650658Y-107132337D01*
X123655394Y-107120670D01*
X123674194Y-107107416D01*
X123689986Y-107090695D01*
X123702206Y-107087668D01*
X123712500Y-107080412D01*
X123735482Y-107079426D01*
X123757807Y-107073898D01*
X123769725Y-107077959D01*
X123782306Y-107077420D01*
X123802171Y-107089015D01*
X123823942Y-107096434D01*
X123833216Y-107107136D01*
X123842648Y-107112642D01*
X123862984Y-107141489D01*
X123886242Y-107187135D01*
X123888671Y-107192181D01*
X124358518Y-108227575D01*
X124369600Y-108278813D01*
X124369600Y-109650696D01*
X124349915Y-109717735D01*
X124333281Y-109738377D01*
X116112333Y-117959324D01*
X116056676Y-117991436D01*
X114619658Y-118375593D01*
X114603821Y-118378739D01*
X114477988Y-118395306D01*
X114250006Y-118456394D01*
X114031954Y-118546714D01*
X114031943Y-118546719D01*
X113827545Y-118664730D01*
X113640302Y-118808406D01*
X113640295Y-118808412D01*
X113473412Y-118975295D01*
X113473406Y-118975302D01*
X113329730Y-119162545D01*
X113211719Y-119366943D01*
X113211714Y-119366954D01*
X113121394Y-119585006D01*
X113060306Y-119812989D01*
X113029501Y-120046979D01*
X113029500Y-120046995D01*
X113029500Y-120283004D01*
X113029501Y-120283020D01*
X113051427Y-120449569D01*
X113060307Y-120517014D01*
X113107014Y-120691327D01*
X113121394Y-120744993D01*
X113211714Y-120963045D01*
X113211719Y-120963056D01*
X113282677Y-121085957D01*
X113329727Y-121167450D01*
X113329729Y-121167453D01*
X113329730Y-121167454D01*
X113473406Y-121354697D01*
X113473412Y-121354704D01*
X113640295Y-121521587D01*
X113640302Y-121521593D01*
X113656909Y-121534336D01*
X113827550Y-121665273D01*
X113929121Y-121723915D01*
X114031943Y-121783280D01*
X114031948Y-121783282D01*
X114031951Y-121783284D01*
X114250007Y-121873606D01*
X114477986Y-121934693D01*
X114711989Y-121965500D01*
X114711996Y-121965500D01*
X114948004Y-121965500D01*
X114948011Y-121965500D01*
X115182014Y-121934693D01*
X115409993Y-121873606D01*
X115628049Y-121783284D01*
X115832450Y-121665273D01*
X116019699Y-121521592D01*
X116186592Y-121354699D01*
X116330273Y-121167450D01*
X116448284Y-120963049D01*
X116538606Y-120744993D01*
X116599693Y-120517014D01*
X116616260Y-120391168D01*
X116619406Y-120375332D01*
X117003561Y-118938321D01*
X117035671Y-118882668D01*
X125529641Y-110388699D01*
X125601092Y-110281764D01*
X125614424Y-110249578D01*
X125650309Y-110162944D01*
X125668238Y-110072809D01*
X125675400Y-110036807D01*
X125675400Y-108278812D01*
X125686482Y-108227572D01*
X126156311Y-107192214D01*
X126157624Y-107190691D01*
X126158741Y-107187165D01*
X126182015Y-107141487D01*
X126229988Y-107090693D01*
X126297809Y-107073898D01*
X126363944Y-107096435D01*
X126402984Y-107141489D01*
X126426242Y-107187135D01*
X126428504Y-107191834D01*
X126428523Y-107191856D01*
X126428526Y-107191880D01*
X126428671Y-107192181D01*
X126898518Y-108227575D01*
X126909600Y-108278813D01*
X126909600Y-112110696D01*
X126889915Y-112177735D01*
X126873281Y-112198377D01*
X121112333Y-117959324D01*
X121056676Y-117991436D01*
X119619658Y-118375593D01*
X119603821Y-118378739D01*
X119477988Y-118395306D01*
X119250006Y-118456394D01*
X119031954Y-118546714D01*
X119031943Y-118546719D01*
X118827545Y-118664730D01*
X118640302Y-118808406D01*
X118640295Y-118808412D01*
X118473412Y-118975295D01*
X118473406Y-118975302D01*
X118329730Y-119162545D01*
X118211719Y-119366943D01*
X118211714Y-119366954D01*
X118121394Y-119585006D01*
X118060306Y-119812989D01*
X118029501Y-120046979D01*
X118029500Y-120046995D01*
X118029500Y-120283004D01*
X118029501Y-120283020D01*
X118051427Y-120449569D01*
X118060307Y-120517014D01*
X118107014Y-120691327D01*
X118121394Y-120744993D01*
X118211714Y-120963045D01*
X118211719Y-120963056D01*
X118282677Y-121085957D01*
X118329727Y-121167450D01*
X118329729Y-121167453D01*
X118329730Y-121167454D01*
X118473406Y-121354697D01*
X118473412Y-121354704D01*
X118640295Y-121521587D01*
X118640302Y-121521593D01*
X118656909Y-121534336D01*
X118827550Y-121665273D01*
X118929121Y-121723915D01*
X119031943Y-121783280D01*
X119031948Y-121783282D01*
X119031951Y-121783284D01*
X119250007Y-121873606D01*
X119477986Y-121934693D01*
X119711989Y-121965500D01*
X119711996Y-121965500D01*
X119948004Y-121965500D01*
X119948011Y-121965500D01*
X120182014Y-121934693D01*
X120409993Y-121873606D01*
X120628049Y-121783284D01*
X120832450Y-121665273D01*
X121019699Y-121521592D01*
X121186592Y-121354699D01*
X121330273Y-121167450D01*
X121448284Y-120963049D01*
X121538606Y-120744993D01*
X121599693Y-120517014D01*
X121616260Y-120391168D01*
X121619406Y-120375332D01*
X122003561Y-118938321D01*
X122035671Y-118882668D01*
X128069640Y-112848700D01*
X128141092Y-112741764D01*
X128190309Y-112622944D01*
X128191290Y-112618011D01*
X128200281Y-112572810D01*
X128215400Y-112496807D01*
X128215400Y-108278812D01*
X128226482Y-108227572D01*
X128696311Y-107192214D01*
X128697624Y-107190691D01*
X128698741Y-107187165D01*
X128722015Y-107141487D01*
X128769988Y-107090693D01*
X128837809Y-107073898D01*
X128903944Y-107096435D01*
X128942984Y-107141489D01*
X128966242Y-107187135D01*
X128968504Y-107191834D01*
X128968523Y-107191856D01*
X128968526Y-107191880D01*
X128968671Y-107192181D01*
X129438518Y-108227575D01*
X129449600Y-108278813D01*
X129449600Y-114570696D01*
X129429915Y-114637735D01*
X129413281Y-114658377D01*
X126112333Y-117959324D01*
X126056676Y-117991436D01*
X124619658Y-118375593D01*
X124603821Y-118378739D01*
X124477988Y-118395306D01*
X124250006Y-118456394D01*
X124031954Y-118546714D01*
X124031943Y-118546719D01*
X123827545Y-118664730D01*
X123640302Y-118808406D01*
X123640295Y-118808412D01*
X123473412Y-118975295D01*
X123473406Y-118975302D01*
X123329730Y-119162545D01*
X123211719Y-119366943D01*
X123211714Y-119366954D01*
X123121394Y-119585006D01*
X123060306Y-119812989D01*
X123029501Y-120046979D01*
X123029500Y-120046995D01*
X123029500Y-120283004D01*
X123029501Y-120283020D01*
X123051427Y-120449569D01*
X123060307Y-120517014D01*
X123107014Y-120691327D01*
X123121394Y-120744993D01*
X123211714Y-120963045D01*
X123211719Y-120963056D01*
X123282677Y-121085957D01*
X123329727Y-121167450D01*
X123329729Y-121167453D01*
X123329730Y-121167454D01*
X123473406Y-121354697D01*
X123473412Y-121354704D01*
X123640295Y-121521587D01*
X123640302Y-121521593D01*
X123656909Y-121534336D01*
X123827550Y-121665273D01*
X123929121Y-121723915D01*
X124031943Y-121783280D01*
X124031948Y-121783282D01*
X124031951Y-121783284D01*
X124250007Y-121873606D01*
X124477986Y-121934693D01*
X124711989Y-121965500D01*
X124711996Y-121965500D01*
X124948004Y-121965500D01*
X124948011Y-121965500D01*
X125182014Y-121934693D01*
X125409993Y-121873606D01*
X125628049Y-121783284D01*
X125832450Y-121665273D01*
X126019699Y-121521592D01*
X126186592Y-121354699D01*
X126330273Y-121167450D01*
X126448284Y-120963049D01*
X126538606Y-120744993D01*
X126599693Y-120517014D01*
X126616260Y-120391168D01*
X126619406Y-120375332D01*
X127003561Y-118938321D01*
X127035671Y-118882668D01*
X130609641Y-115308700D01*
X130681092Y-115201764D01*
X130730309Y-115082944D01*
X130746306Y-115002522D01*
X130755400Y-114956805D01*
X130755400Y-108278812D01*
X130766482Y-108227572D01*
X131236311Y-107192214D01*
X131237624Y-107190691D01*
X131238741Y-107187165D01*
X131262015Y-107141487D01*
X131309988Y-107090693D01*
X131377809Y-107073898D01*
X131443944Y-107096435D01*
X131482984Y-107141489D01*
X131506242Y-107187135D01*
X131508504Y-107191834D01*
X131508523Y-107191856D01*
X131508526Y-107191880D01*
X131508671Y-107192181D01*
X131978518Y-108227575D01*
X131989600Y-108278813D01*
X131989600Y-117030697D01*
X131969915Y-117097736D01*
X131953281Y-117118378D01*
X131112334Y-117959324D01*
X131056677Y-117991436D01*
X129619658Y-118375593D01*
X129603821Y-118378739D01*
X129477988Y-118395306D01*
X129250006Y-118456394D01*
X129031954Y-118546714D01*
X129031943Y-118546719D01*
X128827545Y-118664730D01*
X128640302Y-118808406D01*
X128640295Y-118808412D01*
X128473412Y-118975295D01*
X128473406Y-118975302D01*
X128329730Y-119162545D01*
X128211719Y-119366943D01*
X128211714Y-119366954D01*
X128121394Y-119585006D01*
X128060306Y-119812989D01*
X128029501Y-120046979D01*
X128029500Y-120046995D01*
X128029500Y-120283004D01*
X128029501Y-120283020D01*
X128051427Y-120449569D01*
X128060307Y-120517014D01*
X128107014Y-120691327D01*
X128121394Y-120744993D01*
X128211714Y-120963045D01*
X128211719Y-120963056D01*
X128282677Y-121085957D01*
X128329727Y-121167450D01*
X128329729Y-121167453D01*
X128329730Y-121167454D01*
X128473406Y-121354697D01*
X128473412Y-121354704D01*
X128640295Y-121521587D01*
X128640302Y-121521593D01*
X128656909Y-121534336D01*
X128827550Y-121665273D01*
X128929121Y-121723915D01*
X129031943Y-121783280D01*
X129031948Y-121783282D01*
X129031951Y-121783284D01*
X129250007Y-121873606D01*
X129477986Y-121934693D01*
X129711989Y-121965500D01*
X129711996Y-121965500D01*
X129948004Y-121965500D01*
X129948011Y-121965500D01*
X130182014Y-121934693D01*
X130409993Y-121873606D01*
X130628049Y-121783284D01*
X130832450Y-121665273D01*
X131019699Y-121521592D01*
X131186592Y-121354699D01*
X131330273Y-121167450D01*
X131448284Y-120963049D01*
X131538606Y-120744993D01*
X131599693Y-120517014D01*
X131616260Y-120391168D01*
X131619406Y-120375332D01*
X132003561Y-118938320D01*
X132035671Y-118882667D01*
X133149641Y-117768699D01*
X133221092Y-117661764D01*
X133237497Y-117622158D01*
X133270309Y-117542944D01*
X133295400Y-117416805D01*
X133295400Y-108278812D01*
X133306482Y-108227572D01*
X133776311Y-107192214D01*
X133777624Y-107190691D01*
X133778741Y-107187165D01*
X133802015Y-107141487D01*
X133849988Y-107090693D01*
X133917809Y-107073898D01*
X133983944Y-107096435D01*
X134022984Y-107141489D01*
X134046242Y-107187135D01*
X134048504Y-107191834D01*
X134048523Y-107191856D01*
X134048526Y-107191880D01*
X134048671Y-107192181D01*
X134518518Y-108227575D01*
X134529600Y-108278813D01*
X134529600Y-118097606D01*
X134528739Y-118112191D01*
X134525056Y-118143282D01*
X134525056Y-118143286D01*
X134525056Y-118143287D01*
X134560973Y-119585007D01*
X134569420Y-119924040D01*
X134569440Y-119924837D01*
X134572730Y-119944097D01*
X134574500Y-119964973D01*
X134574500Y-121265001D01*
X134574501Y-121265018D01*
X134585000Y-121367796D01*
X134585001Y-121367799D01*
X134635962Y-121521587D01*
X134640186Y-121534334D01*
X134732288Y-121683656D01*
X134856344Y-121807712D01*
X135005666Y-121899814D01*
X135172203Y-121954999D01*
X135274991Y-121965500D01*
X137475008Y-121965499D01*
X137577797Y-121954999D01*
X137744334Y-121899814D01*
X137893656Y-121807712D01*
X138017712Y-121683656D01*
X138109814Y-121534334D01*
X138164999Y-121367797D01*
X138175500Y-121265009D01*
X138175499Y-119064992D01*
X138168887Y-119000269D01*
X138164999Y-118962203D01*
X138164998Y-118962200D01*
X138138643Y-118882666D01*
X138109814Y-118795666D01*
X138017712Y-118646344D01*
X137893656Y-118522288D01*
X137786824Y-118456394D01*
X137744336Y-118430187D01*
X137744331Y-118430185D01*
X137742862Y-118429698D01*
X137577797Y-118375001D01*
X137577795Y-118375000D01*
X137475016Y-118364500D01*
X137475009Y-118364500D01*
X136937586Y-118364500D01*
X136880516Y-118350586D01*
X136710382Y-118262386D01*
X136420663Y-118112191D01*
X135902330Y-117843479D01*
X135851872Y-117795149D01*
X135835400Y-117733393D01*
X135835400Y-108278812D01*
X135846482Y-108227572D01*
X136316311Y-107192214D01*
X136317624Y-107190691D01*
X136318741Y-107187165D01*
X136342015Y-107141487D01*
X136389988Y-107090693D01*
X136457809Y-107073898D01*
X136523944Y-107096435D01*
X136562984Y-107141489D01*
X136586242Y-107187135D01*
X136588504Y-107191834D01*
X136588523Y-107191856D01*
X136588526Y-107191880D01*
X136588671Y-107192181D01*
X137058518Y-108227575D01*
X137069600Y-108278812D01*
X137069600Y-116576805D01*
X137069600Y-116576807D01*
X137069599Y-116576807D01*
X137094024Y-116699592D01*
X137094024Y-116699595D01*
X137094025Y-116699595D01*
X137094690Y-116702941D01*
X137094692Y-116702946D01*
X137143907Y-116821762D01*
X137215362Y-116928704D01*
X137215363Y-116928705D01*
X139169324Y-118882664D01*
X139201436Y-118938321D01*
X139585593Y-120375342D01*
X139588739Y-120391179D01*
X139596427Y-120449569D01*
X139605307Y-120517014D01*
X139652014Y-120691327D01*
X139666394Y-120744993D01*
X139756714Y-120963045D01*
X139756719Y-120963056D01*
X139827677Y-121085957D01*
X139874727Y-121167450D01*
X139874729Y-121167453D01*
X139874730Y-121167454D01*
X140018406Y-121354697D01*
X140018412Y-121354704D01*
X140185295Y-121521587D01*
X140185302Y-121521593D01*
X140201909Y-121534336D01*
X140372550Y-121665273D01*
X140474121Y-121723915D01*
X140576943Y-121783280D01*
X140576948Y-121783282D01*
X140576951Y-121783284D01*
X140795007Y-121873606D01*
X141022986Y-121934693D01*
X141256989Y-121965500D01*
X141256996Y-121965500D01*
X141493004Y-121965500D01*
X141493011Y-121965500D01*
X141727014Y-121934693D01*
X141954993Y-121873606D01*
X142173049Y-121783284D01*
X142377450Y-121665273D01*
X142564699Y-121521592D01*
X142731592Y-121354699D01*
X142875273Y-121167450D01*
X142993284Y-120963049D01*
X143083606Y-120744993D01*
X143144693Y-120517014D01*
X143175500Y-120283011D01*
X143175500Y-120046989D01*
X143144693Y-119812986D01*
X143083606Y-119585007D01*
X142993284Y-119366951D01*
X142993282Y-119366948D01*
X142993280Y-119366943D01*
X142937132Y-119269693D01*
X142875273Y-119162550D01*
X142757877Y-119009556D01*
X142731593Y-118975302D01*
X142731587Y-118975295D01*
X142564704Y-118808412D01*
X142564697Y-118808406D01*
X142377454Y-118664730D01*
X142377453Y-118664729D01*
X142377450Y-118664727D01*
X142280298Y-118608636D01*
X142173056Y-118546719D01*
X142173045Y-118546714D01*
X141954993Y-118456394D01*
X141857187Y-118430187D01*
X141727014Y-118395307D01*
X141727009Y-118395306D01*
X141727007Y-118395306D01*
X141601179Y-118378739D01*
X141585342Y-118375593D01*
X140148321Y-117991435D01*
X140092664Y-117959323D01*
X138411719Y-116278378D01*
X138378234Y-116217055D01*
X138375400Y-116190697D01*
X138375400Y-108278812D01*
X138386482Y-108227572D01*
X138856311Y-107192214D01*
X138857624Y-107190691D01*
X138858741Y-107187165D01*
X138882015Y-107141487D01*
X138929988Y-107090693D01*
X138997809Y-107073898D01*
X139063944Y-107096435D01*
X139102984Y-107141489D01*
X139126242Y-107187135D01*
X139128504Y-107191834D01*
X139128523Y-107191856D01*
X139128526Y-107191880D01*
X139128671Y-107192181D01*
X139598518Y-108227575D01*
X139609600Y-108278812D01*
X139609600Y-114116805D01*
X139609600Y-114116807D01*
X139609599Y-114116807D01*
X139627892Y-114208765D01*
X139634026Y-114239601D01*
X139634527Y-114242121D01*
X139634691Y-114242945D01*
X139683907Y-114361762D01*
X139755362Y-114468704D01*
X139755363Y-114468705D01*
X144169324Y-118882664D01*
X144201436Y-118938321D01*
X144585593Y-120375342D01*
X144588739Y-120391179D01*
X144596427Y-120449569D01*
X144605307Y-120517014D01*
X144652014Y-120691327D01*
X144666394Y-120744993D01*
X144756714Y-120963045D01*
X144756719Y-120963056D01*
X144827677Y-121085957D01*
X144874727Y-121167450D01*
X144874729Y-121167453D01*
X144874730Y-121167454D01*
X145018406Y-121354697D01*
X145018412Y-121354704D01*
X145185295Y-121521587D01*
X145185302Y-121521593D01*
X145201909Y-121534336D01*
X145372550Y-121665273D01*
X145474121Y-121723915D01*
X145576943Y-121783280D01*
X145576948Y-121783282D01*
X145576951Y-121783284D01*
X145795007Y-121873606D01*
X146022986Y-121934693D01*
X146256989Y-121965500D01*
X146256996Y-121965500D01*
X146493004Y-121965500D01*
X146493011Y-121965500D01*
X146727014Y-121934693D01*
X146954993Y-121873606D01*
X147173049Y-121783284D01*
X147377450Y-121665273D01*
X147564699Y-121521592D01*
X147731592Y-121354699D01*
X147875273Y-121167450D01*
X147993284Y-120963049D01*
X148083606Y-120744993D01*
X148144693Y-120517014D01*
X148175500Y-120283011D01*
X148175500Y-120046989D01*
X148144693Y-119812986D01*
X148083606Y-119585007D01*
X147993284Y-119366951D01*
X147993282Y-119366948D01*
X147993280Y-119366943D01*
X147937132Y-119269693D01*
X147875273Y-119162550D01*
X147757877Y-119009556D01*
X147731593Y-118975302D01*
X147731587Y-118975295D01*
X147564704Y-118808412D01*
X147564697Y-118808406D01*
X147377454Y-118664730D01*
X147377453Y-118664729D01*
X147377450Y-118664727D01*
X147280298Y-118608636D01*
X147173056Y-118546719D01*
X147173045Y-118546714D01*
X146954993Y-118456394D01*
X146857187Y-118430187D01*
X146727014Y-118395307D01*
X146727009Y-118395306D01*
X146727007Y-118395306D01*
X146601179Y-118378739D01*
X146585342Y-118375593D01*
X145148320Y-117991435D01*
X145092663Y-117959323D01*
X140951719Y-113818378D01*
X140918234Y-113757055D01*
X140915400Y-113730697D01*
X140915400Y-108278812D01*
X140926482Y-108227572D01*
X141396311Y-107192214D01*
X141397624Y-107190691D01*
X141398741Y-107187165D01*
X141422015Y-107141487D01*
X141469988Y-107090693D01*
X141537809Y-107073898D01*
X141603944Y-107096435D01*
X141642984Y-107141489D01*
X141666242Y-107187135D01*
X141668504Y-107191834D01*
X141668523Y-107191856D01*
X141668526Y-107191880D01*
X141668671Y-107192181D01*
X142138518Y-108227575D01*
X142149600Y-108278812D01*
X142149600Y-111656805D01*
X142169449Y-111756590D01*
X142174691Y-111782944D01*
X142223908Y-111901764D01*
X142293240Y-112005528D01*
X142295362Y-112008704D01*
X142295363Y-112008705D01*
X149169324Y-118882664D01*
X149201436Y-118938321D01*
X149585593Y-120375342D01*
X149588739Y-120391179D01*
X149596427Y-120449569D01*
X149605307Y-120517014D01*
X149652014Y-120691327D01*
X149666394Y-120744993D01*
X149756714Y-120963045D01*
X149756719Y-120963056D01*
X149827677Y-121085957D01*
X149874727Y-121167450D01*
X149874729Y-121167453D01*
X149874730Y-121167454D01*
X150018406Y-121354697D01*
X150018412Y-121354704D01*
X150185295Y-121521587D01*
X150185302Y-121521593D01*
X150201909Y-121534336D01*
X150372550Y-121665273D01*
X150474121Y-121723915D01*
X150576943Y-121783280D01*
X150576948Y-121783282D01*
X150576951Y-121783284D01*
X150795007Y-121873606D01*
X151022986Y-121934693D01*
X151256989Y-121965500D01*
X151256996Y-121965500D01*
X151493004Y-121965500D01*
X151493011Y-121965500D01*
X151727014Y-121934693D01*
X151954993Y-121873606D01*
X152173049Y-121783284D01*
X152377450Y-121665273D01*
X152564699Y-121521592D01*
X152731592Y-121354699D01*
X152875273Y-121167450D01*
X152993284Y-120963049D01*
X153083606Y-120744993D01*
X153144693Y-120517014D01*
X153175500Y-120283011D01*
X153175500Y-120046989D01*
X153144693Y-119812986D01*
X153083606Y-119585007D01*
X152993284Y-119366951D01*
X152993282Y-119366948D01*
X152993280Y-119366943D01*
X152937132Y-119269693D01*
X152875273Y-119162550D01*
X152757877Y-119009556D01*
X152731593Y-118975302D01*
X152731587Y-118975295D01*
X152564704Y-118808412D01*
X152564697Y-118808406D01*
X152377454Y-118664730D01*
X152377453Y-118664729D01*
X152377450Y-118664727D01*
X152280298Y-118608636D01*
X152173056Y-118546719D01*
X152173045Y-118546714D01*
X151954993Y-118456394D01*
X151857187Y-118430187D01*
X151727014Y-118395307D01*
X151727009Y-118395306D01*
X151727007Y-118395306D01*
X151601179Y-118378739D01*
X151585342Y-118375593D01*
X150148320Y-117991435D01*
X150092663Y-117959323D01*
X143491719Y-111358378D01*
X143458234Y-111297055D01*
X143455400Y-111270697D01*
X143455400Y-108278812D01*
X143466482Y-108227572D01*
X143936311Y-107192214D01*
X143937624Y-107190691D01*
X143938741Y-107187165D01*
X143962015Y-107141487D01*
X144009988Y-107090693D01*
X144077809Y-107073898D01*
X144143944Y-107096435D01*
X144182984Y-107141489D01*
X144206242Y-107187135D01*
X144208504Y-107191834D01*
X144208523Y-107191856D01*
X144208526Y-107191880D01*
X144208671Y-107192181D01*
X144678518Y-108227575D01*
X144689600Y-108278812D01*
X144689600Y-109196805D01*
X144689600Y-109196807D01*
X144689599Y-109196807D01*
X144708344Y-109291037D01*
X144708344Y-109291038D01*
X144714689Y-109322937D01*
X144714690Y-109322942D01*
X144714691Y-109322944D01*
X144763908Y-109441764D01*
X144789903Y-109480669D01*
X144835362Y-109548704D01*
X144835363Y-109548705D01*
X154169324Y-118882664D01*
X154201436Y-118938321D01*
X154585593Y-120375342D01*
X154588739Y-120391179D01*
X154596427Y-120449569D01*
X154605307Y-120517014D01*
X154652014Y-120691327D01*
X154666394Y-120744993D01*
X154756714Y-120963045D01*
X154756719Y-120963056D01*
X154827677Y-121085957D01*
X154874727Y-121167450D01*
X154874729Y-121167453D01*
X154874730Y-121167454D01*
X155018406Y-121354697D01*
X155018412Y-121354704D01*
X155185295Y-121521587D01*
X155185302Y-121521593D01*
X155201909Y-121534336D01*
X155372550Y-121665273D01*
X155474121Y-121723915D01*
X155576943Y-121783280D01*
X155576948Y-121783282D01*
X155576951Y-121783284D01*
X155795007Y-121873606D01*
X156022986Y-121934693D01*
X156256989Y-121965500D01*
X156256996Y-121965500D01*
X156493004Y-121965500D01*
X156493011Y-121965500D01*
X156727014Y-121934693D01*
X156954993Y-121873606D01*
X157173049Y-121783284D01*
X157377450Y-121665273D01*
X157564699Y-121521592D01*
X157731592Y-121354699D01*
X157875273Y-121167450D01*
X157993284Y-120963049D01*
X158083606Y-120744993D01*
X158144693Y-120517014D01*
X158175500Y-120283011D01*
X158175500Y-120046989D01*
X158144693Y-119812986D01*
X158083606Y-119585007D01*
X157993284Y-119366951D01*
X157993282Y-119366948D01*
X157993280Y-119366943D01*
X157937132Y-119269693D01*
X157875273Y-119162550D01*
X157757877Y-119009556D01*
X157731593Y-118975302D01*
X157731587Y-118975295D01*
X157564704Y-118808412D01*
X157564697Y-118808406D01*
X157377454Y-118664730D01*
X157377453Y-118664729D01*
X157377450Y-118664727D01*
X157280298Y-118608636D01*
X157173056Y-118546719D01*
X157173045Y-118546714D01*
X156954993Y-118456394D01*
X156857187Y-118430187D01*
X156727014Y-118395307D01*
X156727009Y-118395306D01*
X156727007Y-118395306D01*
X156601179Y-118378739D01*
X156585342Y-118375593D01*
X155148320Y-117991435D01*
X155092663Y-117959323D01*
X146031719Y-108898378D01*
X145998234Y-108837055D01*
X145995400Y-108810697D01*
X145995400Y-108278812D01*
X146006482Y-108227572D01*
X146476323Y-107192188D01*
X146478729Y-107187188D01*
X146502015Y-107141487D01*
X146549988Y-107090693D01*
X146617809Y-107073898D01*
X146683944Y-107096435D01*
X146722983Y-107141488D01*
X146748817Y-107192189D01*
X146748830Y-107192214D01*
X146871465Y-107361005D01*
X147018995Y-107508535D01*
X147131522Y-107590291D01*
X147187787Y-107631171D01*
X147304081Y-107690425D01*
X147373684Y-107725889D01*
X147420797Y-107741196D01*
X147435078Y-107746838D01*
X148541603Y-108265404D01*
X148576663Y-108290004D01*
X159169324Y-118882664D01*
X159201436Y-118938321D01*
X159585593Y-120375342D01*
X159588739Y-120391179D01*
X159596427Y-120449569D01*
X159605307Y-120517014D01*
X159652014Y-120691327D01*
X159666394Y-120744993D01*
X159756714Y-120963045D01*
X159756719Y-120963056D01*
X159827677Y-121085957D01*
X159874727Y-121167450D01*
X159874729Y-121167453D01*
X159874730Y-121167454D01*
X160018406Y-121354697D01*
X160018412Y-121354704D01*
X160185295Y-121521587D01*
X160185302Y-121521593D01*
X160201909Y-121534336D01*
X160372550Y-121665273D01*
X160474121Y-121723915D01*
X160576943Y-121783280D01*
X160576948Y-121783282D01*
X160576951Y-121783284D01*
X160795007Y-121873606D01*
X161022986Y-121934693D01*
X161256989Y-121965500D01*
X161256996Y-121965500D01*
X161493004Y-121965500D01*
X161493011Y-121965500D01*
X161727014Y-121934693D01*
X161954993Y-121873606D01*
X162173049Y-121783284D01*
X162377450Y-121665273D01*
X162564699Y-121521592D01*
X162731592Y-121354699D01*
X162875273Y-121167450D01*
X162993284Y-120963049D01*
X163083606Y-120744993D01*
X163144693Y-120517014D01*
X163175500Y-120283011D01*
X163175500Y-120046989D01*
X163144693Y-119812986D01*
X163083606Y-119585007D01*
X162993284Y-119366951D01*
X162993282Y-119366948D01*
X162993280Y-119366943D01*
X162937132Y-119269693D01*
X162875273Y-119162550D01*
X162757877Y-119009556D01*
X162731593Y-118975302D01*
X162731587Y-118975295D01*
X162564704Y-118808412D01*
X162564697Y-118808406D01*
X162377454Y-118664730D01*
X162377453Y-118664729D01*
X162377450Y-118664727D01*
X162280298Y-118608636D01*
X162173056Y-118546719D01*
X162173045Y-118546714D01*
X161954993Y-118456394D01*
X161857187Y-118430187D01*
X161727014Y-118395307D01*
X161727009Y-118395306D01*
X161727007Y-118395306D01*
X161601179Y-118378739D01*
X161585342Y-118375593D01*
X160148320Y-117991435D01*
X160092663Y-117959323D01*
X150215942Y-108082601D01*
X150182457Y-108021278D01*
X150187441Y-107951586D01*
X150229313Y-107895653D01*
X150294777Y-107871236D01*
X150347234Y-107878842D01*
X151176338Y-108190352D01*
X151220407Y-108218748D01*
X154453796Y-111452137D01*
X154453799Y-111452139D01*
X154453801Y-111452141D01*
X154549378Y-111516002D01*
X154549379Y-111516004D01*
X154556934Y-111521051D01*
X154560736Y-111523592D01*
X154679556Y-111572809D01*
X154679560Y-111572809D01*
X154679561Y-111572810D01*
X154805692Y-111597900D01*
X154805695Y-111597900D01*
X156833197Y-111597900D01*
X156900236Y-111617585D01*
X156920878Y-111634219D01*
X164169324Y-118882664D01*
X164201436Y-118938321D01*
X164585593Y-120375342D01*
X164588739Y-120391179D01*
X164596427Y-120449569D01*
X164605307Y-120517014D01*
X164652014Y-120691327D01*
X164666394Y-120744993D01*
X164756714Y-120963045D01*
X164756719Y-120963056D01*
X164827677Y-121085957D01*
X164874727Y-121167450D01*
X164874729Y-121167453D01*
X164874730Y-121167454D01*
X165018406Y-121354697D01*
X165018412Y-121354704D01*
X165185295Y-121521587D01*
X165185302Y-121521593D01*
X165201909Y-121534336D01*
X165372550Y-121665273D01*
X165474121Y-121723915D01*
X165576943Y-121783280D01*
X165576948Y-121783282D01*
X165576951Y-121783284D01*
X165795007Y-121873606D01*
X166022986Y-121934693D01*
X166256989Y-121965500D01*
X166256996Y-121965500D01*
X166493004Y-121965500D01*
X166493011Y-121965500D01*
X166727014Y-121934693D01*
X166954993Y-121873606D01*
X167173049Y-121783284D01*
X167377450Y-121665273D01*
X167564699Y-121521592D01*
X167731592Y-121354699D01*
X167875273Y-121167450D01*
X167993284Y-120963049D01*
X168083606Y-120744993D01*
X168144693Y-120517014D01*
X168175500Y-120283011D01*
X168175500Y-120046989D01*
X168144693Y-119812986D01*
X168083606Y-119585007D01*
X167993284Y-119366951D01*
X167993282Y-119366948D01*
X167993280Y-119366943D01*
X167937132Y-119269693D01*
X167875273Y-119162550D01*
X167757877Y-119009556D01*
X167731593Y-118975302D01*
X167731587Y-118975295D01*
X167564704Y-118808412D01*
X167564697Y-118808406D01*
X167377454Y-118664730D01*
X167377453Y-118664729D01*
X167377450Y-118664727D01*
X167280298Y-118608636D01*
X167173056Y-118546719D01*
X167173045Y-118546714D01*
X166954993Y-118456394D01*
X166857187Y-118430187D01*
X166727014Y-118395307D01*
X166727009Y-118395306D01*
X166727007Y-118395306D01*
X166601179Y-118378739D01*
X166585342Y-118375593D01*
X165148320Y-117991435D01*
X165092663Y-117959323D01*
X157571205Y-110437863D01*
X157571204Y-110437862D01*
X157571200Y-110437859D01*
X157464264Y-110366408D01*
X157391966Y-110336461D01*
X157337563Y-110292620D01*
X157315498Y-110226326D01*
X157332777Y-110158627D01*
X157383914Y-110111016D01*
X157439419Y-110097900D01*
X160333197Y-110097900D01*
X160400236Y-110117585D01*
X160420878Y-110134219D01*
X169169324Y-118882664D01*
X169201436Y-118938321D01*
X169585593Y-120375342D01*
X169588739Y-120391179D01*
X169596427Y-120449569D01*
X169605307Y-120517014D01*
X169652014Y-120691327D01*
X169666394Y-120744993D01*
X169756714Y-120963045D01*
X169756719Y-120963056D01*
X169827677Y-121085957D01*
X169874727Y-121167450D01*
X169874729Y-121167453D01*
X169874730Y-121167454D01*
X170018406Y-121354697D01*
X170018412Y-121354704D01*
X170185295Y-121521587D01*
X170185302Y-121521593D01*
X170201909Y-121534336D01*
X170372550Y-121665273D01*
X170474121Y-121723915D01*
X170576943Y-121783280D01*
X170576948Y-121783282D01*
X170576951Y-121783284D01*
X170795007Y-121873606D01*
X171022986Y-121934693D01*
X171256989Y-121965500D01*
X171256996Y-121965500D01*
X171493004Y-121965500D01*
X171493011Y-121965500D01*
X171727014Y-121934693D01*
X171954993Y-121873606D01*
X172173049Y-121783284D01*
X172377450Y-121665273D01*
X172564699Y-121521592D01*
X172731592Y-121354699D01*
X172875273Y-121167450D01*
X172993284Y-120963049D01*
X173083606Y-120744993D01*
X173144693Y-120517014D01*
X173175500Y-120283011D01*
X173175500Y-120046989D01*
X173144693Y-119812986D01*
X173083606Y-119585007D01*
X172993284Y-119366951D01*
X172993282Y-119366948D01*
X172993280Y-119366943D01*
X172937132Y-119269693D01*
X172875273Y-119162550D01*
X172757877Y-119009556D01*
X172731593Y-118975302D01*
X172731587Y-118975295D01*
X172564704Y-118808412D01*
X172564697Y-118808406D01*
X172377454Y-118664730D01*
X172377453Y-118664729D01*
X172377450Y-118664727D01*
X172280298Y-118608636D01*
X172173056Y-118546719D01*
X172173045Y-118546714D01*
X171954993Y-118456394D01*
X171857187Y-118430187D01*
X171727014Y-118395307D01*
X171727009Y-118395306D01*
X171727007Y-118395306D01*
X171601179Y-118378739D01*
X171585342Y-118375593D01*
X170148320Y-117991435D01*
X170092663Y-117959323D01*
X161071205Y-108937863D01*
X161071204Y-108937862D01*
X161012111Y-108898378D01*
X160964264Y-108866408D01*
X160845444Y-108817191D01*
X160845438Y-108817189D01*
X160719307Y-108792100D01*
X160719305Y-108792100D01*
X156231802Y-108792100D01*
X156164763Y-108772415D01*
X156144121Y-108755781D01*
X155423021Y-108034681D01*
X155389536Y-107973358D01*
X155394520Y-107903666D01*
X155436392Y-107847733D01*
X155501856Y-107823316D01*
X155510702Y-107823000D01*
X155606824Y-107823000D01*
X155812889Y-107790362D01*
X155832752Y-107783908D01*
X156011316Y-107725889D01*
X156192188Y-107633729D01*
X156197188Y-107631323D01*
X157134664Y-107205912D01*
X157232574Y-107161482D01*
X157283814Y-107150400D01*
X162385697Y-107150400D01*
X162452736Y-107170085D01*
X162473378Y-107186719D01*
X174169324Y-118882664D01*
X174201436Y-118938321D01*
X174585593Y-120375342D01*
X174588739Y-120391179D01*
X174596427Y-120449569D01*
X174605307Y-120517014D01*
X174652014Y-120691327D01*
X174666394Y-120744993D01*
X174756714Y-120963045D01*
X174756719Y-120963056D01*
X174827677Y-121085957D01*
X174874727Y-121167450D01*
X174874729Y-121167453D01*
X174874730Y-121167454D01*
X175018406Y-121354697D01*
X175018412Y-121354704D01*
X175185295Y-121521587D01*
X175185302Y-121521593D01*
X175201909Y-121534336D01*
X175372550Y-121665273D01*
X175474121Y-121723915D01*
X175576943Y-121783280D01*
X175576948Y-121783282D01*
X175576951Y-121783284D01*
X175795007Y-121873606D01*
X176022986Y-121934693D01*
X176256989Y-121965500D01*
X176256996Y-121965500D01*
X176493004Y-121965500D01*
X176493011Y-121965500D01*
X176727014Y-121934693D01*
X176954993Y-121873606D01*
X177173049Y-121783284D01*
X177377450Y-121665273D01*
X177564699Y-121521592D01*
X177731592Y-121354699D01*
X177870404Y-121173795D01*
X177926831Y-121132593D01*
X177996577Y-121128438D01*
X178056460Y-121161601D01*
X182540396Y-125645537D01*
X182540402Y-125645542D01*
X182647115Y-125716845D01*
X182647222Y-125716916D01*
X182647336Y-125716992D01*
X182766156Y-125766209D01*
X182766160Y-125766209D01*
X182766161Y-125766210D01*
X182892292Y-125791300D01*
X182892295Y-125791300D01*
X190640907Y-125791300D01*
X190725765Y-125774419D01*
X190767044Y-125766209D01*
X190885864Y-125716992D01*
X190886026Y-125716884D01*
X190945170Y-125677364D01*
X190970442Y-125664393D01*
X192065537Y-125252946D01*
X192070801Y-125251103D01*
X192263816Y-125188389D01*
X192449714Y-125093670D01*
X192618505Y-124971035D01*
X192766035Y-124823505D01*
X192888670Y-124654714D01*
X192914515Y-124603990D01*
X192962489Y-124553194D01*
X193030310Y-124536398D01*
X193096445Y-124558935D01*
X193135485Y-124603990D01*
X193161328Y-124654712D01*
X193194016Y-124699702D01*
X193283965Y-124823505D01*
X193431495Y-124971035D01*
X193600286Y-125093670D01*
X193688116Y-125138421D01*
X193786179Y-125188387D01*
X193786181Y-125188387D01*
X193786184Y-125188389D01*
X193892545Y-125222948D01*
X193984610Y-125252862D01*
X194190676Y-125285500D01*
X194190681Y-125285500D01*
X194399324Y-125285500D01*
X194605389Y-125252862D01*
X194610818Y-125251098D01*
X194803816Y-125188389D01*
X194989714Y-125093670D01*
X195158505Y-124971035D01*
X195306035Y-124823505D01*
X195428670Y-124654714D01*
X195432181Y-124647820D01*
X195434916Y-124642751D01*
X196088680Y-123497043D01*
X196139003Y-123448573D01*
X196196380Y-123434500D01*
X197670588Y-123434500D01*
X197737627Y-123454185D01*
X197758269Y-123470819D01*
X199778765Y-125491315D01*
X199905085Y-125617635D01*
X199905086Y-125617636D01*
X200053615Y-125716880D01*
X200053624Y-125716885D01*
X200091012Y-125732371D01*
X200218667Y-125785248D01*
X200218671Y-125785248D01*
X200218672Y-125785249D01*
X200393875Y-125820100D01*
X200393878Y-125820100D01*
X208765907Y-125820100D01*
X208883781Y-125796652D01*
X208941116Y-125785248D01*
X209106161Y-125716884D01*
X209212934Y-125645541D01*
X209254698Y-125617636D01*
X210172635Y-124699699D01*
X210271884Y-124551162D01*
X210340248Y-124386117D01*
X210375100Y-124210906D01*
X210375100Y-124032263D01*
X210375100Y-114823878D01*
X210375100Y-114823875D01*
X210340249Y-114648672D01*
X210340248Y-114648671D01*
X210340248Y-114648667D01*
X210271884Y-114483622D01*
X210271883Y-114483621D01*
X210271880Y-114483615D01*
X210172636Y-114335086D01*
X210117606Y-114280056D01*
X210046315Y-114208765D01*
X209410180Y-113572630D01*
X209383683Y-113533316D01*
X209370609Y-113502454D01*
X208987428Y-112597900D01*
X208843817Y-112258886D01*
X208835056Y-112226704D01*
X208828609Y-112177735D01*
X208824693Y-112147986D01*
X208763606Y-111920007D01*
X208673284Y-111701951D01*
X208673282Y-111701948D01*
X208673280Y-111701943D01*
X208598724Y-111572810D01*
X208555273Y-111497550D01*
X208416879Y-111317191D01*
X208411593Y-111310302D01*
X208411587Y-111310295D01*
X208244704Y-111143412D01*
X208244697Y-111143406D01*
X208057454Y-110999730D01*
X208057453Y-110999729D01*
X208057450Y-110999727D01*
X207926497Y-110924121D01*
X207853056Y-110881719D01*
X207853045Y-110881714D01*
X207634993Y-110791394D01*
X207407014Y-110730307D01*
X207407011Y-110730306D01*
X207407009Y-110730306D01*
X207328293Y-110719942D01*
X207296114Y-110711181D01*
X206021682Y-110171315D01*
X205982368Y-110144818D01*
X205318219Y-109480669D01*
X205284734Y-109419346D01*
X205281900Y-109392988D01*
X205281900Y-106872012D01*
X205301585Y-106804973D01*
X205318219Y-106784331D01*
X210079432Y-102023118D01*
X210079435Y-102023115D01*
X210178684Y-101874578D01*
X210247048Y-101709533D01*
X210281900Y-101534322D01*
X210281900Y-101355678D01*
X210281900Y-96730678D01*
X210281900Y-96730675D01*
X210247049Y-96555472D01*
X210247048Y-96555471D01*
X210247048Y-96555467D01*
X210194171Y-96427812D01*
X210178685Y-96390424D01*
X210178680Y-96390415D01*
X210079436Y-96241886D01*
X210021295Y-96183745D01*
X209953115Y-96115565D01*
X209410180Y-95572630D01*
X209383683Y-95533316D01*
X209370609Y-95502454D01*
X208878520Y-94340807D01*
X208843817Y-94258886D01*
X208835056Y-94226704D01*
X208824693Y-94147986D01*
X208763606Y-93920007D01*
X208673284Y-93701951D01*
X208673282Y-93701948D01*
X208673280Y-93701943D01*
X208613141Y-93597781D01*
X208555273Y-93497550D01*
X208411592Y-93310301D01*
X208411587Y-93310295D01*
X208244704Y-93143412D01*
X208244697Y-93143406D01*
X208057454Y-92999730D01*
X208057453Y-92999729D01*
X208057450Y-92999727D01*
X207975957Y-92952677D01*
X207853056Y-92881719D01*
X207853045Y-92881714D01*
X207634993Y-92791394D01*
X207407014Y-92730307D01*
X207407011Y-92730306D01*
X207407009Y-92730306D01*
X207328293Y-92719942D01*
X207296114Y-92711181D01*
X206021683Y-92171316D01*
X205982369Y-92144819D01*
X203523118Y-89685567D01*
X203523114Y-89685564D01*
X203374584Y-89586319D01*
X203374575Y-89586314D01*
X203209533Y-89517952D01*
X203209527Y-89517950D01*
X203034324Y-89483100D01*
X203034322Y-89483100D01*
X191415439Y-89483100D01*
X191383702Y-89478970D01*
X190866181Y-89341949D01*
X190806413Y-89305761D01*
X190778048Y-89253816D01*
X190759770Y-89184781D01*
X190646610Y-88757374D01*
X190641030Y-88736298D01*
X190636900Y-88704561D01*
X190636900Y-88025437D01*
X190641030Y-87993700D01*
X190759770Y-87545222D01*
X190941286Y-86859638D01*
X190953954Y-86829058D01*
X191543537Y-85814849D01*
X191563051Y-85789497D01*
X202031835Y-75320715D01*
X202131084Y-75172178D01*
X202199448Y-75007133D01*
X202234300Y-74831922D01*
X202234300Y-74653279D01*
X202234300Y-67955607D01*
X202234300Y-67955604D01*
X202199449Y-67780401D01*
X202199448Y-67780400D01*
X202199448Y-67780396D01*
X202131084Y-67615351D01*
X202131083Y-67615350D01*
X202131080Y-67615344D01*
X202031836Y-67466815D01*
X202028079Y-67463058D01*
X201905515Y-67340494D01*
X201585391Y-67020370D01*
X200788189Y-66223167D01*
X200788185Y-66223164D01*
X200639655Y-66123919D01*
X200639646Y-66123914D01*
X200474604Y-66055552D01*
X200474598Y-66055550D01*
X200299395Y-66020700D01*
X200299393Y-66020700D01*
X194916722Y-66020700D01*
X194738078Y-66020700D01*
X194738076Y-66020700D01*
X194562872Y-66055550D01*
X194562866Y-66055552D01*
X194397824Y-66123914D01*
X194397815Y-66123919D01*
X194249288Y-66223162D01*
X194187079Y-66285370D01*
X194154406Y-66308818D01*
X192714306Y-67021631D01*
X192659299Y-67034500D01*
X191819998Y-67034500D01*
X191819980Y-67034501D01*
X191717203Y-67045000D01*
X191717200Y-67045001D01*
X191550668Y-67100185D01*
X191550663Y-67100187D01*
X191401342Y-67192289D01*
X191277289Y-67316342D01*
X191185187Y-67465663D01*
X191185185Y-67465668D01*
X191157349Y-67549670D01*
X191130001Y-67632203D01*
X191130001Y-67632204D01*
X191130000Y-67632204D01*
X191119500Y-67734983D01*
X191119500Y-69935001D01*
X191119501Y-69935018D01*
X191130000Y-70037796D01*
X191130001Y-70037799D01*
X191148563Y-70093814D01*
X191185186Y-70204334D01*
X191277288Y-70353656D01*
X191401344Y-70477712D01*
X191550666Y-70569814D01*
X191550668Y-70569814D01*
X191550669Y-70569815D01*
X191555967Y-70571571D01*
X191613413Y-70611341D01*
X191623596Y-70625983D01*
X191848985Y-71005680D01*
X191987681Y-71239333D01*
X191995729Y-71252890D01*
X192013100Y-71316185D01*
X192013100Y-74761450D01*
X192010136Y-74784877D01*
X192010755Y-74784990D01*
X192009961Y-74789343D01*
X191859035Y-76168302D01*
X191856571Y-76200022D01*
X191856575Y-76200437D01*
X191855055Y-76221006D01*
X191844500Y-76287648D01*
X191844500Y-76287650D01*
X191844500Y-76287652D01*
X191844500Y-76492351D01*
X191876522Y-76694534D01*
X191939781Y-76889223D01*
X192032715Y-77071613D01*
X192153028Y-77237213D01*
X192297786Y-77381971D01*
X192452749Y-77494556D01*
X192463390Y-77502287D01*
X192579607Y-77561503D01*
X192645776Y-77595218D01*
X192645778Y-77595218D01*
X192645781Y-77595220D01*
X192750137Y-77629127D01*
X192840465Y-77658477D01*
X192941557Y-77674488D01*
X193042648Y-77690500D01*
X193042649Y-77690500D01*
X193247351Y-77690500D01*
X193247352Y-77690500D01*
X193415571Y-77663856D01*
X193484862Y-77672810D01*
X193538314Y-77717806D01*
X193558954Y-77784558D01*
X193540229Y-77851872D01*
X193522648Y-77874010D01*
X181695878Y-89700781D01*
X181634555Y-89734266D01*
X181608197Y-89737100D01*
X181300785Y-89737100D01*
X181249925Y-89726189D01*
X181159594Y-89685564D01*
X180520252Y-89398028D01*
X180245969Y-89274673D01*
X180240534Y-89272069D01*
X180069223Y-89184781D01*
X179874534Y-89121522D01*
X179699995Y-89093878D01*
X179672352Y-89089500D01*
X179467648Y-89089500D01*
X179443329Y-89093351D01*
X179265465Y-89121522D01*
X179070776Y-89184781D01*
X178888386Y-89277715D01*
X178722786Y-89398028D01*
X178578028Y-89542786D01*
X178457715Y-89708386D01*
X178364781Y-89890776D01*
X178301522Y-90085465D01*
X178269500Y-90287648D01*
X178269500Y-90492351D01*
X178301523Y-90694535D01*
X178301523Y-90694538D01*
X178364778Y-90889215D01*
X178371950Y-90903291D01*
X178378798Y-90919474D01*
X178596263Y-91555616D01*
X178599322Y-91625418D01*
X178566610Y-91683407D01*
X170529231Y-99720787D01*
X170467908Y-99754272D01*
X170398216Y-99749288D01*
X170342283Y-99707416D01*
X170317866Y-99641952D01*
X170317550Y-99633106D01*
X170317550Y-96567151D01*
X170337235Y-96500112D01*
X170353864Y-96479475D01*
X178807822Y-88025516D01*
X178851496Y-87997270D01*
X179880683Y-87606630D01*
X179886320Y-87604646D01*
X180069219Y-87545220D01*
X180251610Y-87452287D01*
X180344590Y-87384732D01*
X180417213Y-87331971D01*
X180417215Y-87331968D01*
X180417219Y-87331966D01*
X180561966Y-87187219D01*
X180561968Y-87187215D01*
X180561971Y-87187213D01*
X180637416Y-87083370D01*
X180682287Y-87021610D01*
X180775220Y-86839219D01*
X180838477Y-86644534D01*
X180870500Y-86442352D01*
X180870500Y-86237648D01*
X180838477Y-86035466D01*
X180836481Y-86029324D01*
X180826018Y-85997124D01*
X180775220Y-85840781D01*
X180687926Y-85669459D01*
X180685323Y-85664028D01*
X180683086Y-85659055D01*
X180489695Y-85229041D01*
X180233810Y-84660071D01*
X180222900Y-84609211D01*
X180222900Y-78767960D01*
X181569500Y-78767960D01*
X181569500Y-78780686D01*
X181569500Y-79086352D01*
X181572576Y-79117585D01*
X181600706Y-79403199D01*
X181600709Y-79403216D01*
X181662817Y-79715462D01*
X181662820Y-79715473D01*
X181755247Y-80020165D01*
X181877087Y-80314312D01*
X181877094Y-80314326D01*
X182027171Y-80595103D01*
X182027182Y-80595121D01*
X182204061Y-80859839D01*
X182204071Y-80859853D01*
X182406056Y-81105972D01*
X182631183Y-81331099D01*
X182631188Y-81331103D01*
X182631189Y-81331104D01*
X182877308Y-81533089D01*
X183142041Y-81709978D01*
X183422837Y-81860066D01*
X183716992Y-81981909D01*
X184021673Y-82074333D01*
X184021679Y-82074334D01*
X184021682Y-82074335D01*
X184021693Y-82074338D01*
X184217498Y-82113285D01*
X184333946Y-82136448D01*
X184650804Y-82167656D01*
X184650807Y-82167656D01*
X184969193Y-82167656D01*
X184969196Y-82167656D01*
X185286054Y-82136448D01*
X185440619Y-82105702D01*
X185598306Y-82074338D01*
X185598317Y-82074335D01*
X185598317Y-82074334D01*
X185598327Y-82074333D01*
X185903008Y-81981909D01*
X186197163Y-81860066D01*
X186477959Y-81709978D01*
X186742692Y-81533089D01*
X186988811Y-81331104D01*
X187213948Y-81105967D01*
X187415933Y-80859848D01*
X187592822Y-80595115D01*
X187742910Y-80314319D01*
X187864753Y-80020164D01*
X187957177Y-79715483D01*
X187957179Y-79715473D01*
X187957182Y-79715462D01*
X188009727Y-79451294D01*
X188019292Y-79403210D01*
X188050500Y-79086352D01*
X188050500Y-78767960D01*
X188019292Y-78451102D01*
X187996129Y-78334654D01*
X187957182Y-78138849D01*
X187957179Y-78138838D01*
X187957178Y-78138835D01*
X187957177Y-78138829D01*
X187864753Y-77834148D01*
X187742910Y-77539993D01*
X187592822Y-77259197D01*
X187415933Y-76994464D01*
X187213948Y-76748345D01*
X187213947Y-76748344D01*
X187213943Y-76748339D01*
X186988816Y-76523212D01*
X186742697Y-76321227D01*
X186742696Y-76321226D01*
X186742692Y-76321223D01*
X186477959Y-76144334D01*
X186477954Y-76144331D01*
X186477947Y-76144327D01*
X186197170Y-75994250D01*
X186197163Y-75994246D01*
X186197156Y-75994243D01*
X185903009Y-75872403D01*
X185598317Y-75779976D01*
X185598306Y-75779973D01*
X185286060Y-75717865D01*
X185286043Y-75717862D01*
X185046434Y-75694263D01*
X184969196Y-75686656D01*
X184650804Y-75686656D01*
X184579370Y-75693691D01*
X184333956Y-75717862D01*
X184333939Y-75717865D01*
X184021693Y-75779973D01*
X184021682Y-75779976D01*
X183716990Y-75872403D01*
X183422843Y-75994243D01*
X183422829Y-75994250D01*
X183142052Y-76144327D01*
X183142034Y-76144338D01*
X182877316Y-76321217D01*
X182877302Y-76321227D01*
X182631183Y-76523212D01*
X182406056Y-76748339D01*
X182204071Y-76994458D01*
X182204061Y-76994472D01*
X182027182Y-77259190D01*
X182027171Y-77259208D01*
X181877094Y-77539985D01*
X181877087Y-77539999D01*
X181755247Y-77834146D01*
X181662820Y-78138838D01*
X181662817Y-78138849D01*
X181600709Y-78451095D01*
X181600706Y-78451112D01*
X181576535Y-78696526D01*
X181569500Y-78767960D01*
X180222900Y-78767960D01*
X180222900Y-72506802D01*
X180242585Y-72439763D01*
X180259219Y-72419121D01*
X180909543Y-71768797D01*
X181637668Y-71040671D01*
X181693321Y-71008561D01*
X183130335Y-70624405D01*
X183146168Y-70621260D01*
X183272014Y-70604693D01*
X183499993Y-70543606D01*
X183718049Y-70453284D01*
X183922450Y-70335273D01*
X184109699Y-70191592D01*
X184276592Y-70024699D01*
X184420273Y-69837450D01*
X184538284Y-69633049D01*
X184628606Y-69414993D01*
X184689693Y-69187014D01*
X184720500Y-68953011D01*
X184720500Y-68716989D01*
X184689693Y-68482986D01*
X184628606Y-68255007D01*
X184538284Y-68036951D01*
X184538282Y-68036948D01*
X184538280Y-68036943D01*
X184469575Y-67917944D01*
X184420273Y-67832550D01*
X184276592Y-67645301D01*
X184276587Y-67645295D01*
X184109704Y-67478412D01*
X184109697Y-67478406D01*
X183922454Y-67334730D01*
X183922453Y-67334729D01*
X183922450Y-67334727D01*
X183840957Y-67287677D01*
X183718056Y-67216719D01*
X183718045Y-67216714D01*
X183499993Y-67126394D01*
X183272010Y-67065306D01*
X183038020Y-67034501D01*
X183038017Y-67034500D01*
X183038011Y-67034500D01*
X182801989Y-67034500D01*
X182801983Y-67034500D01*
X182801979Y-67034501D01*
X182567989Y-67065306D01*
X182340006Y-67126394D01*
X182121954Y-67216714D01*
X182121943Y-67216719D01*
X181917545Y-67334730D01*
X181730302Y-67478406D01*
X181730295Y-67478412D01*
X181563412Y-67645295D01*
X181563406Y-67645302D01*
X181419730Y-67832545D01*
X181301719Y-68036943D01*
X181301714Y-68036954D01*
X181211394Y-68255006D01*
X181191031Y-68331000D01*
X181150307Y-68482986D01*
X181150307Y-68482988D01*
X181133739Y-68608823D01*
X181130593Y-68624660D01*
X180746435Y-70061677D01*
X180714323Y-70117334D01*
X179062861Y-71768797D01*
X179062860Y-71768798D01*
X179002130Y-71859690D01*
X178991406Y-71875739D01*
X178942191Y-71994555D01*
X178942189Y-71994561D01*
X178917100Y-72120692D01*
X178917100Y-84609212D01*
X178906189Y-84660072D01*
X178454669Y-85664038D01*
X178452065Y-85669473D01*
X178364781Y-85840776D01*
X178305365Y-86023640D01*
X178303364Y-86029324D01*
X177912727Y-87058502D01*
X177884478Y-87102180D01*
X169970022Y-95016635D01*
X169908699Y-95050120D01*
X169839007Y-95045136D01*
X169783074Y-95003264D01*
X169758657Y-94937800D01*
X169764411Y-94890634D01*
X169779110Y-94845396D01*
X169779110Y-94845394D01*
X169779112Y-94845389D01*
X169808602Y-94659196D01*
X169811750Y-94639324D01*
X169811750Y-94430675D01*
X169779112Y-94224610D01*
X169714637Y-94026179D01*
X169641225Y-93882100D01*
X169619920Y-93840286D01*
X169497285Y-93671495D01*
X169349755Y-93523965D01*
X169293491Y-93483086D01*
X169180962Y-93401328D01*
X169130240Y-93375485D01*
X169079444Y-93327511D01*
X169062648Y-93259690D01*
X169085185Y-93193555D01*
X169130240Y-93154515D01*
X169175906Y-93131247D01*
X169180964Y-93128670D01*
X169349755Y-93006035D01*
X169497285Y-92858505D01*
X169619920Y-92689714D01*
X169714639Y-92503816D01*
X169779112Y-92305389D01*
X169785462Y-92265295D01*
X169811750Y-92099324D01*
X169811750Y-91890675D01*
X169779112Y-91684610D01*
X169714637Y-91486179D01*
X169646687Y-91352820D01*
X169619920Y-91300286D01*
X169497285Y-91131495D01*
X169349755Y-90983965D01*
X169238718Y-90903291D01*
X169180962Y-90861328D01*
X169130240Y-90835485D01*
X169079444Y-90787511D01*
X169062648Y-90719690D01*
X169085185Y-90653555D01*
X169130240Y-90614515D01*
X169180962Y-90588671D01*
X169180961Y-90588671D01*
X169180964Y-90588670D01*
X169349755Y-90466035D01*
X169497285Y-90318505D01*
X169619920Y-90149714D01*
X169714639Y-89963816D01*
X169779112Y-89765389D01*
X169811750Y-89559324D01*
X169811750Y-89350675D01*
X169779112Y-89144610D01*
X169714637Y-88946179D01*
X169619919Y-88760285D01*
X169614183Y-88752390D01*
X169497285Y-88591495D01*
X169349755Y-88443965D01*
X169180964Y-88321330D01*
X168995070Y-88226612D01*
X168796639Y-88162137D01*
X168590574Y-88129500D01*
X168590569Y-88129500D01*
X168381931Y-88129500D01*
X168381926Y-88129500D01*
X168175861Y-88162137D01*
X168168593Y-88164499D01*
X168162983Y-88166176D01*
X166782011Y-88543711D01*
X166749311Y-88548100D01*
X159367013Y-88548100D01*
X159299974Y-88528415D01*
X159279332Y-88511781D01*
X154831972Y-84064422D01*
X154811953Y-84038196D01*
X154781393Y-83984640D01*
X154527075Y-83538952D01*
X154510948Y-83470972D01*
X154527076Y-83416044D01*
X154782348Y-82968684D01*
X154811954Y-82916799D01*
X154831967Y-82890581D01*
X156834331Y-80888219D01*
X156895654Y-80854734D01*
X156922012Y-80851900D01*
X160354324Y-80851900D01*
X160472198Y-80828452D01*
X160529533Y-80817048D01*
X160694578Y-80748684D01*
X160843115Y-80649435D01*
X170302373Y-71190176D01*
X170341681Y-71163683D01*
X171616112Y-70623816D01*
X171648291Y-70615056D01*
X171727014Y-70604693D01*
X171954993Y-70543606D01*
X172173049Y-70453284D01*
X172377450Y-70335273D01*
X172564699Y-70191592D01*
X172731592Y-70024699D01*
X172875273Y-69837450D01*
X172993284Y-69633049D01*
X173083606Y-69414993D01*
X173144693Y-69187014D01*
X173155056Y-69108291D01*
X173163817Y-69076110D01*
X173703683Y-67801680D01*
X173730176Y-67762372D01*
X176118132Y-65374419D01*
X176179455Y-65340934D01*
X176205813Y-65338100D01*
X204589188Y-65338100D01*
X204656227Y-65357785D01*
X204676869Y-65374419D01*
X206765507Y-67463058D01*
X206787696Y-67493253D01*
X207605370Y-69056018D01*
X207619500Y-69113504D01*
X207619500Y-69935001D01*
X207619501Y-69935019D01*
X207630000Y-70037796D01*
X207630001Y-70037799D01*
X207648563Y-70093814D01*
X207685186Y-70204334D01*
X207777288Y-70353656D01*
X207901344Y-70477712D01*
X208050666Y-70569814D01*
X208209103Y-70622315D01*
X208217206Y-70625000D01*
X208223820Y-70626416D01*
X208223425Y-70628257D01*
X208279542Y-70651150D01*
X208304022Y-70677271D01*
X208372771Y-70776026D01*
X208715352Y-71268132D01*
X208715868Y-71268872D01*
X208738015Y-71335138D01*
X208738100Y-71339718D01*
X208738100Y-74701337D01*
X208733546Y-74734634D01*
X208360596Y-76072504D01*
X208360575Y-76072579D01*
X208359769Y-76075473D01*
X208356523Y-76085466D01*
X208355813Y-76089942D01*
X208354174Y-76096275D01*
X208354153Y-76096354D01*
X208352111Y-76104245D01*
X208351910Y-76105087D01*
X208351907Y-76105101D01*
X208340122Y-76176949D01*
X208339755Y-76183599D01*
X208339362Y-76183577D01*
X208338559Y-76198879D01*
X208324500Y-76287642D01*
X208324500Y-76492351D01*
X208356522Y-76694534D01*
X208419781Y-76889223D01*
X208512715Y-77071613D01*
X208633028Y-77237213D01*
X208777786Y-77381971D01*
X208932749Y-77494556D01*
X208943390Y-77502287D01*
X209059607Y-77561503D01*
X209125776Y-77595218D01*
X209125778Y-77595218D01*
X209125781Y-77595220D01*
X209230137Y-77629127D01*
X209320465Y-77658477D01*
X209421557Y-77674488D01*
X209522648Y-77690500D01*
X209522649Y-77690500D01*
X209727351Y-77690500D01*
X209727352Y-77690500D01*
X209929534Y-77658477D01*
X210124219Y-77595220D01*
X210306610Y-77502287D01*
X210399590Y-77434732D01*
X210472213Y-77381971D01*
X210472215Y-77381968D01*
X210472219Y-77381966D01*
X210616966Y-77237219D01*
X210616968Y-77237215D01*
X210616971Y-77237213D01*
X210669732Y-77164590D01*
X210737287Y-77071610D01*
X210830220Y-76889219D01*
X210893477Y-76694534D01*
X210925500Y-76492352D01*
X210925500Y-76287648D01*
X210899972Y-76126477D01*
X210899103Y-76119825D01*
X210896961Y-76099076D01*
X210896960Y-76099066D01*
X210579209Y-74831924D01*
X210555624Y-74737870D01*
X210551900Y-74707709D01*
X210551900Y-71291427D01*
X210564600Y-71236761D01*
X210567282Y-71231301D01*
X210927151Y-70498611D01*
X210950769Y-70465599D01*
X211006301Y-70410067D01*
X211062712Y-70353656D01*
X211154814Y-70204334D01*
X211209999Y-70037797D01*
X211220500Y-69935009D01*
X211220499Y-67734992D01*
X211209999Y-67632203D01*
X211154814Y-67465666D01*
X211062712Y-67316344D01*
X210938656Y-67192288D01*
X210789334Y-67100186D01*
X210622797Y-67045001D01*
X210622795Y-67045000D01*
X210520016Y-67034500D01*
X210520009Y-67034500D01*
X209698505Y-67034500D01*
X209641019Y-67020370D01*
X208078254Y-66202697D01*
X208048059Y-66180508D01*
X205594318Y-63726767D01*
X205594314Y-63726764D01*
X205445784Y-63627519D01*
X205445775Y-63627514D01*
X205280733Y-63559152D01*
X205280727Y-63559150D01*
X205105524Y-63524300D01*
X205105522Y-63524300D01*
X175868122Y-63524300D01*
X175689478Y-63524300D01*
X175689476Y-63524300D01*
X175514272Y-63559150D01*
X175514266Y-63559152D01*
X175349223Y-63627515D01*
X175200680Y-63726767D01*
X175200679Y-63726768D01*
X172447631Y-66479817D01*
X172408317Y-66506314D01*
X171133883Y-67046182D01*
X171101703Y-67054943D01*
X171045999Y-67062277D01*
X171022986Y-67065307D01*
X170892813Y-67100187D01*
X170795006Y-67126394D01*
X170576954Y-67216714D01*
X170576943Y-67216719D01*
X170372545Y-67334730D01*
X170185302Y-67478406D01*
X170185295Y-67478412D01*
X170018412Y-67645295D01*
X170018406Y-67645302D01*
X169874730Y-67832545D01*
X169756719Y-68036943D01*
X169756714Y-68036954D01*
X169666394Y-68255006D01*
X169605306Y-68482988D01*
X169594943Y-68561701D01*
X169586182Y-68593881D01*
X169046314Y-69868316D01*
X169019817Y-69907630D01*
X159925669Y-79001781D01*
X159864346Y-79035266D01*
X159837988Y-79038100D01*
X156405676Y-79038100D01*
X156230472Y-79072950D01*
X156230466Y-79072952D01*
X156065424Y-79141314D01*
X156065410Y-79141322D01*
X155956800Y-79213893D01*
X155890123Y-79234771D01*
X155822743Y-79216286D01*
X155776053Y-79164307D01*
X155764877Y-79095337D01*
X155792763Y-79031274D01*
X155800221Y-79023118D01*
X164570236Y-70253102D01*
X164631557Y-70219619D01*
X164692134Y-70221600D01*
X165727963Y-70519027D01*
X165740359Y-70522250D01*
X165756601Y-70527697D01*
X165795007Y-70543606D01*
X166022986Y-70604693D01*
X166256989Y-70635500D01*
X166256996Y-70635500D01*
X166493004Y-70635500D01*
X166493011Y-70635500D01*
X166727014Y-70604693D01*
X166954993Y-70543606D01*
X167173049Y-70453284D01*
X167377450Y-70335273D01*
X167564699Y-70191592D01*
X167731592Y-70024699D01*
X167875273Y-69837450D01*
X167993284Y-69633049D01*
X168083606Y-69414993D01*
X168144693Y-69187014D01*
X168175500Y-68953011D01*
X168175500Y-68716989D01*
X168144693Y-68482986D01*
X168083606Y-68255007D01*
X167993284Y-68036951D01*
X167993282Y-68036948D01*
X167993280Y-68036943D01*
X167924575Y-67917944D01*
X167875273Y-67832550D01*
X167731592Y-67645301D01*
X167731587Y-67645295D01*
X167564704Y-67478412D01*
X167564697Y-67478406D01*
X167377454Y-67334730D01*
X167377453Y-67334729D01*
X167377450Y-67334727D01*
X167295957Y-67287677D01*
X167173056Y-67216719D01*
X167173045Y-67216714D01*
X166954993Y-67126394D01*
X166727010Y-67065306D01*
X166493020Y-67034501D01*
X166493017Y-67034500D01*
X166493011Y-67034500D01*
X166256989Y-67034500D01*
X166256983Y-67034500D01*
X166256979Y-67034501D01*
X166022989Y-67065306D01*
X165795006Y-67126394D01*
X165576954Y-67216714D01*
X165576943Y-67216719D01*
X165372545Y-67334730D01*
X165185302Y-67478406D01*
X165185295Y-67478412D01*
X165018412Y-67645295D01*
X165018406Y-67645302D01*
X164874733Y-67832541D01*
X164874727Y-67832550D01*
X164840079Y-67892560D01*
X164829414Y-67908152D01*
X163877339Y-69094894D01*
X163868406Y-69106647D01*
X163857370Y-69119288D01*
X163180734Y-69795923D01*
X163119411Y-69829408D01*
X163049719Y-69824424D01*
X162993786Y-69782552D01*
X162969369Y-69717088D01*
X162984221Y-69648815D01*
X162985612Y-69646336D01*
X162993284Y-69633049D01*
X163083606Y-69414993D01*
X163144693Y-69187014D01*
X163175500Y-68953011D01*
X163175500Y-68716989D01*
X163144693Y-68482986D01*
X163083606Y-68255007D01*
X162993284Y-68036951D01*
X162993282Y-68036948D01*
X162993280Y-68036943D01*
X162924575Y-67917944D01*
X162875273Y-67832550D01*
X162731592Y-67645301D01*
X162731587Y-67645295D01*
X162564704Y-67478412D01*
X162564697Y-67478406D01*
X162377454Y-67334730D01*
X162377453Y-67334729D01*
X162377450Y-67334727D01*
X162295957Y-67287677D01*
X162173056Y-67216719D01*
X162173045Y-67216714D01*
X161954993Y-67126394D01*
X161727010Y-67065306D01*
X161493020Y-67034501D01*
X161493017Y-67034500D01*
X161493011Y-67034500D01*
X161256989Y-67034500D01*
X161256983Y-67034500D01*
X161256979Y-67034501D01*
X161022989Y-67065306D01*
X160795006Y-67126394D01*
X160576954Y-67216714D01*
X160576943Y-67216719D01*
X160372545Y-67334730D01*
X160185302Y-67478406D01*
X160185295Y-67478412D01*
X160018412Y-67645295D01*
X160018406Y-67645302D01*
X159874730Y-67832545D01*
X159756719Y-68036943D01*
X159756714Y-68036954D01*
X159666394Y-68255006D01*
X159646031Y-68331000D01*
X159605307Y-68482986D01*
X159605307Y-68482988D01*
X159588739Y-68608823D01*
X159585593Y-68624660D01*
X159201435Y-70061678D01*
X159169323Y-70117335D01*
X147731793Y-81554864D01*
X147730190Y-81556466D01*
X147715381Y-81570249D01*
X147711105Y-81575550D01*
X147706419Y-81580237D01*
X147706411Y-81580247D01*
X147375357Y-81911302D01*
X147375355Y-81911305D01*
X147319673Y-81994638D01*
X147319674Y-81994639D01*
X147303908Y-82018234D01*
X147257608Y-82130013D01*
X147239580Y-82160389D01*
X146888003Y-82596455D01*
X146883839Y-82601620D01*
X146871465Y-82613995D01*
X146849612Y-82644071D01*
X146847658Y-82646496D01*
X146811025Y-82691932D01*
X146796992Y-82710170D01*
X146796411Y-82710962D01*
X146796401Y-82710977D01*
X146770605Y-82752294D01*
X146767561Y-82755261D01*
X146765745Y-82759502D01*
X146748830Y-82782785D01*
X146722984Y-82833511D01*
X146675010Y-82884306D01*
X146607189Y-82901101D01*
X146541054Y-82878563D01*
X146502016Y-82833511D01*
X146478748Y-82787846D01*
X146476314Y-82782790D01*
X146474067Y-82777839D01*
X146057594Y-81860061D01*
X146006482Y-81747426D01*
X145995400Y-81696186D01*
X145995400Y-80189301D01*
X146015085Y-80122262D01*
X146031714Y-80101625D01*
X155092667Y-71040671D01*
X155148320Y-71008561D01*
X156585335Y-70624405D01*
X156601168Y-70621260D01*
X156727014Y-70604693D01*
X156954993Y-70543606D01*
X157173049Y-70453284D01*
X157377450Y-70335273D01*
X157564699Y-70191592D01*
X157731592Y-70024699D01*
X157875273Y-69837450D01*
X157993284Y-69633049D01*
X158083606Y-69414993D01*
X158144693Y-69187014D01*
X158175500Y-68953011D01*
X158175500Y-68716989D01*
X158144693Y-68482986D01*
X158083606Y-68255007D01*
X157993284Y-68036951D01*
X157993282Y-68036948D01*
X157993280Y-68036943D01*
X157924575Y-67917944D01*
X157875273Y-67832550D01*
X157731592Y-67645301D01*
X157731587Y-67645295D01*
X157564704Y-67478412D01*
X157564697Y-67478406D01*
X157377454Y-67334730D01*
X157377453Y-67334729D01*
X157377450Y-67334727D01*
X157295957Y-67287677D01*
X157173056Y-67216719D01*
X157173045Y-67216714D01*
X156954993Y-67126394D01*
X156727010Y-67065306D01*
X156493020Y-67034501D01*
X156493017Y-67034500D01*
X156493011Y-67034500D01*
X156256989Y-67034500D01*
X156256983Y-67034500D01*
X156256979Y-67034501D01*
X156022989Y-67065306D01*
X155795006Y-67126394D01*
X155576954Y-67216714D01*
X155576943Y-67216719D01*
X155372545Y-67334730D01*
X155185302Y-67478406D01*
X155185295Y-67478412D01*
X155018412Y-67645295D01*
X155018406Y-67645302D01*
X154874730Y-67832545D01*
X154756719Y-68036943D01*
X154756714Y-68036954D01*
X154666394Y-68255006D01*
X154646031Y-68331000D01*
X154605307Y-68482986D01*
X154605307Y-68482988D01*
X154588739Y-68608823D01*
X154585593Y-68624660D01*
X154201435Y-70061678D01*
X154169323Y-70117335D01*
X144835363Y-79451294D01*
X144835362Y-79451295D01*
X144763907Y-79558237D01*
X144714691Y-79677055D01*
X144714689Y-79677061D01*
X144689600Y-79803192D01*
X144689600Y-81696184D01*
X144678518Y-81747425D01*
X144208661Y-82782836D01*
X144207349Y-82784356D01*
X144206228Y-82787889D01*
X144182984Y-82833509D01*
X144135010Y-82884305D01*
X144067190Y-82901101D01*
X144001055Y-82878564D01*
X143962014Y-82833509D01*
X143962013Y-82833508D01*
X143947445Y-82804915D01*
X143938747Y-82787844D01*
X143936396Y-82782962D01*
X143936388Y-82782952D01*
X143936386Y-82782940D01*
X143936314Y-82782790D01*
X143934067Y-82777839D01*
X143517594Y-81860061D01*
X143466482Y-81747426D01*
X143455400Y-81696186D01*
X143455400Y-77729301D01*
X143475085Y-77662262D01*
X143491714Y-77641625D01*
X150092667Y-71040671D01*
X150148320Y-71008561D01*
X151585335Y-70624405D01*
X151601168Y-70621260D01*
X151727014Y-70604693D01*
X151954993Y-70543606D01*
X152173049Y-70453284D01*
X152377450Y-70335273D01*
X152564699Y-70191592D01*
X152731592Y-70024699D01*
X152875273Y-69837450D01*
X152993284Y-69633049D01*
X153083606Y-69414993D01*
X153144693Y-69187014D01*
X153175500Y-68953011D01*
X153175500Y-68716989D01*
X153144693Y-68482986D01*
X153083606Y-68255007D01*
X152993284Y-68036951D01*
X152993282Y-68036948D01*
X152993280Y-68036943D01*
X152924575Y-67917944D01*
X152875273Y-67832550D01*
X152731592Y-67645301D01*
X152731587Y-67645295D01*
X152564704Y-67478412D01*
X152564697Y-67478406D01*
X152377454Y-67334730D01*
X152377453Y-67334729D01*
X152377450Y-67334727D01*
X152295957Y-67287677D01*
X152173056Y-67216719D01*
X152173045Y-67216714D01*
X151954993Y-67126394D01*
X151727010Y-67065306D01*
X151493020Y-67034501D01*
X151493017Y-67034500D01*
X151493011Y-67034500D01*
X151256989Y-67034500D01*
X151256983Y-67034500D01*
X151256979Y-67034501D01*
X151022989Y-67065306D01*
X150795006Y-67126394D01*
X150576954Y-67216714D01*
X150576943Y-67216719D01*
X150372545Y-67334730D01*
X150185302Y-67478406D01*
X150185295Y-67478412D01*
X150018412Y-67645295D01*
X150018406Y-67645302D01*
X149874730Y-67832545D01*
X149756719Y-68036943D01*
X149756714Y-68036954D01*
X149666394Y-68255006D01*
X149646031Y-68331000D01*
X149605307Y-68482986D01*
X149605307Y-68482988D01*
X149588739Y-68608823D01*
X149585593Y-68624660D01*
X149201435Y-70061678D01*
X149169323Y-70117335D01*
X142295360Y-76991298D01*
X142246062Y-77065080D01*
X142223907Y-77098237D01*
X142174691Y-77217055D01*
X142174689Y-77217061D01*
X142149600Y-77343192D01*
X142149600Y-81696184D01*
X142138518Y-81747425D01*
X141668661Y-82782836D01*
X141667349Y-82784356D01*
X141666228Y-82787889D01*
X141642984Y-82833509D01*
X141595010Y-82884305D01*
X141527190Y-82901101D01*
X141461055Y-82878564D01*
X141422014Y-82833509D01*
X141422013Y-82833508D01*
X141407445Y-82804915D01*
X141398747Y-82787844D01*
X141396396Y-82782962D01*
X141396388Y-82782952D01*
X141396386Y-82782940D01*
X141396314Y-82782790D01*
X141394067Y-82777839D01*
X140977594Y-81860061D01*
X140926482Y-81747426D01*
X140915400Y-81696186D01*
X140915400Y-75269301D01*
X140935085Y-75202262D01*
X140951714Y-75181625D01*
X145092667Y-71040671D01*
X145148320Y-71008561D01*
X146585335Y-70624405D01*
X146601168Y-70621260D01*
X146727014Y-70604693D01*
X146954993Y-70543606D01*
X147173049Y-70453284D01*
X147377450Y-70335273D01*
X147564699Y-70191592D01*
X147731592Y-70024699D01*
X147875273Y-69837450D01*
X147993284Y-69633049D01*
X148083606Y-69414993D01*
X148144693Y-69187014D01*
X148175500Y-68953011D01*
X148175500Y-68716989D01*
X148144693Y-68482986D01*
X148083606Y-68255007D01*
X147993284Y-68036951D01*
X147993282Y-68036948D01*
X147993280Y-68036943D01*
X147924575Y-67917944D01*
X147875273Y-67832550D01*
X147731592Y-67645301D01*
X147731587Y-67645295D01*
X147564704Y-67478412D01*
X147564697Y-67478406D01*
X147377454Y-67334730D01*
X147377453Y-67334729D01*
X147377450Y-67334727D01*
X147295957Y-67287677D01*
X147173056Y-67216719D01*
X147173045Y-67216714D01*
X146954993Y-67126394D01*
X146727010Y-67065306D01*
X146493020Y-67034501D01*
X146493017Y-67034500D01*
X146493011Y-67034500D01*
X146256989Y-67034500D01*
X146256983Y-67034500D01*
X146256979Y-67034501D01*
X146022989Y-67065306D01*
X145795006Y-67126394D01*
X145576954Y-67216714D01*
X145576943Y-67216719D01*
X145372545Y-67334730D01*
X145185302Y-67478406D01*
X145185295Y-67478412D01*
X145018412Y-67645295D01*
X145018406Y-67645302D01*
X144874730Y-67832545D01*
X144756719Y-68036943D01*
X144756714Y-68036954D01*
X144666394Y-68255006D01*
X144646031Y-68331000D01*
X144605307Y-68482986D01*
X144605307Y-68482988D01*
X144588739Y-68608823D01*
X144585593Y-68624660D01*
X144201435Y-70061678D01*
X144169323Y-70117335D01*
X139755363Y-74531294D01*
X139755362Y-74531295D01*
X139683907Y-74638237D01*
X139634691Y-74757055D01*
X139634689Y-74757061D01*
X139609600Y-74883192D01*
X139609600Y-81696184D01*
X139598518Y-81747425D01*
X139128661Y-82782836D01*
X139127349Y-82784356D01*
X139126228Y-82787889D01*
X139102984Y-82833509D01*
X139055010Y-82884305D01*
X138987190Y-82901101D01*
X138921055Y-82878564D01*
X138882014Y-82833509D01*
X138882013Y-82833508D01*
X138867445Y-82804915D01*
X138858747Y-82787844D01*
X138856396Y-82782962D01*
X138856388Y-82782952D01*
X138856386Y-82782940D01*
X138856314Y-82782790D01*
X138854067Y-82777839D01*
X138437594Y-81860061D01*
X138386482Y-81747426D01*
X138375400Y-81696186D01*
X138375400Y-72809302D01*
X138395085Y-72742263D01*
X138411719Y-72721621D01*
X139251719Y-71881621D01*
X140092668Y-71040671D01*
X140148321Y-71008561D01*
X141585335Y-70624405D01*
X141601168Y-70621260D01*
X141727014Y-70604693D01*
X141954993Y-70543606D01*
X142173049Y-70453284D01*
X142377450Y-70335273D01*
X142564699Y-70191592D01*
X142731592Y-70024699D01*
X142875273Y-69837450D01*
X142993284Y-69633049D01*
X143083606Y-69414993D01*
X143144693Y-69187014D01*
X143175500Y-68953011D01*
X143175500Y-68716989D01*
X143144693Y-68482986D01*
X143083606Y-68255007D01*
X142993284Y-68036951D01*
X142993282Y-68036948D01*
X142993280Y-68036943D01*
X142924575Y-67917944D01*
X142875273Y-67832550D01*
X142731592Y-67645301D01*
X142731587Y-67645295D01*
X142564704Y-67478412D01*
X142564697Y-67478406D01*
X142377454Y-67334730D01*
X142377453Y-67334729D01*
X142377450Y-67334727D01*
X142295957Y-67287677D01*
X142173056Y-67216719D01*
X142173045Y-67216714D01*
X141954993Y-67126394D01*
X141727010Y-67065306D01*
X141493020Y-67034501D01*
X141493017Y-67034500D01*
X141493011Y-67034500D01*
X141256989Y-67034500D01*
X141256983Y-67034500D01*
X141256979Y-67034501D01*
X141022989Y-67065306D01*
X140795006Y-67126394D01*
X140576954Y-67216714D01*
X140576943Y-67216719D01*
X140372545Y-67334730D01*
X140185302Y-67478406D01*
X140185295Y-67478412D01*
X140018412Y-67645295D01*
X140018406Y-67645302D01*
X139874730Y-67832545D01*
X139756719Y-68036943D01*
X139756714Y-68036954D01*
X139666394Y-68255006D01*
X139646031Y-68331000D01*
X139605307Y-68482986D01*
X139605307Y-68482988D01*
X139588739Y-68608823D01*
X139585593Y-68624660D01*
X139201435Y-70061677D01*
X139169323Y-70117334D01*
X137215362Y-72071295D01*
X137143907Y-72178237D01*
X137094691Y-72297055D01*
X137094689Y-72297061D01*
X137069600Y-72423192D01*
X137069600Y-81696184D01*
X137058518Y-81747425D01*
X136588661Y-82782836D01*
X136587349Y-82784356D01*
X136586228Y-82787889D01*
X136562984Y-82833509D01*
X136515010Y-82884305D01*
X136447190Y-82901101D01*
X136381055Y-82878564D01*
X136342014Y-82833509D01*
X136342013Y-82833508D01*
X136327445Y-82804915D01*
X136318747Y-82787844D01*
X136316396Y-82782962D01*
X136316388Y-82782952D01*
X136316386Y-82782940D01*
X136316314Y-82782790D01*
X136314067Y-82777839D01*
X135897594Y-81860061D01*
X135846482Y-81747426D01*
X135835400Y-81696186D01*
X135835400Y-71059730D01*
X135855085Y-70992691D01*
X135907889Y-70946936D01*
X135913744Y-70944441D01*
X136859379Y-70570075D01*
X136872921Y-70565596D01*
X136954993Y-70543606D01*
X137143318Y-70465599D01*
X137173040Y-70453288D01*
X137173043Y-70453286D01*
X137173049Y-70453284D01*
X137377450Y-70335273D01*
X137564699Y-70191592D01*
X137731592Y-70024699D01*
X137875273Y-69837450D01*
X137993284Y-69633049D01*
X138083606Y-69414993D01*
X138144693Y-69187014D01*
X138175500Y-68953011D01*
X138175500Y-68716989D01*
X138144693Y-68482986D01*
X138083606Y-68255007D01*
X137993284Y-68036951D01*
X137993282Y-68036948D01*
X137993280Y-68036943D01*
X137924575Y-67917944D01*
X137875273Y-67832550D01*
X137731592Y-67645301D01*
X137731587Y-67645295D01*
X137564704Y-67478412D01*
X137564697Y-67478406D01*
X137377454Y-67334730D01*
X137377453Y-67334729D01*
X137377450Y-67334727D01*
X137295957Y-67287677D01*
X137173056Y-67216719D01*
X137173045Y-67216714D01*
X136954993Y-67126394D01*
X136727010Y-67065306D01*
X136493020Y-67034501D01*
X136493017Y-67034500D01*
X136493011Y-67034500D01*
X136256989Y-67034500D01*
X136256983Y-67034500D01*
X136256979Y-67034501D01*
X136022989Y-67065306D01*
X135795006Y-67126394D01*
X135576954Y-67216714D01*
X135576943Y-67216719D01*
X135372545Y-67334730D01*
X135185302Y-67478406D01*
X135185295Y-67478412D01*
X135018412Y-67645295D01*
X135018406Y-67645302D01*
X134874730Y-67832545D01*
X134756719Y-68036943D01*
X134756714Y-68036954D01*
X134666394Y-68255006D01*
X134605306Y-68482989D01*
X134585192Y-68635772D01*
X134574500Y-68716989D01*
X134574500Y-68953011D01*
X134577411Y-68975131D01*
X134578193Y-68981067D01*
X134579183Y-69001423D01*
X134550622Y-69849121D01*
X134548309Y-69869138D01*
X134529600Y-69963192D01*
X134529600Y-69963195D01*
X134529600Y-70473044D01*
X134525295Y-70600812D01*
X134525088Y-70608855D01*
X134525081Y-70609249D01*
X134527899Y-70672275D01*
X134529600Y-70678938D01*
X134529600Y-81696184D01*
X134518518Y-81747425D01*
X134048661Y-82782836D01*
X134046228Y-82787889D01*
X134022984Y-82833509D01*
X133975010Y-82884305D01*
X133907190Y-82901101D01*
X133841055Y-82878564D01*
X133802014Y-82833509D01*
X133802013Y-82833508D01*
X133787445Y-82804915D01*
X133778747Y-82787844D01*
X133776314Y-82782790D01*
X133774067Y-82777839D01*
X133357594Y-81860061D01*
X133306482Y-81747426D01*
X133295400Y-81696186D01*
X133295400Y-71583192D01*
X133270310Y-71457061D01*
X133270309Y-71457060D01*
X133270309Y-71457056D01*
X133221092Y-71338236D01*
X133149641Y-71231301D01*
X133149639Y-71231298D01*
X133149636Y-71231295D01*
X132328407Y-70410067D01*
X132300261Y-70366658D01*
X132295291Y-70353656D01*
X131774529Y-68991208D01*
X131638672Y-68635772D01*
X131630499Y-68591500D01*
X131630499Y-67734998D01*
X131630498Y-67734981D01*
X131619999Y-67632203D01*
X131619998Y-67632200D01*
X131573955Y-67493253D01*
X131564814Y-67465666D01*
X131472712Y-67316344D01*
X131348656Y-67192288D01*
X131199334Y-67100186D01*
X131032797Y-67045001D01*
X131032795Y-67045000D01*
X130930010Y-67034500D01*
X128729998Y-67034500D01*
X128729981Y-67034501D01*
X128627203Y-67045000D01*
X128627200Y-67045001D01*
X128460668Y-67100185D01*
X128460663Y-67100187D01*
X128311342Y-67192289D01*
X128187289Y-67316342D01*
X128095187Y-67465663D01*
X128095185Y-67465668D01*
X128067349Y-67549670D01*
X128040001Y-67632203D01*
X128040001Y-67632204D01*
X128040000Y-67632204D01*
X128029500Y-67734983D01*
X128029500Y-69935001D01*
X128029501Y-69935018D01*
X128040000Y-70037796D01*
X128040001Y-70037799D01*
X128058563Y-70093814D01*
X128095186Y-70204334D01*
X128187288Y-70353656D01*
X128311344Y-70477712D01*
X128460666Y-70569814D01*
X128627203Y-70624999D01*
X128729991Y-70635500D01*
X129586501Y-70635499D01*
X129630773Y-70643672D01*
X130070338Y-70811685D01*
X131361659Y-71305261D01*
X131405067Y-71333407D01*
X131953281Y-71881621D01*
X131986766Y-71942944D01*
X131989600Y-71969302D01*
X131989600Y-81696184D01*
X131978518Y-81747425D01*
X131508661Y-82782836D01*
X131507349Y-82784356D01*
X131506228Y-82787889D01*
X131482984Y-82833509D01*
X131435010Y-82884305D01*
X131367190Y-82901101D01*
X131301055Y-82878564D01*
X131262014Y-82833509D01*
X131262013Y-82833508D01*
X131247445Y-82804915D01*
X131238747Y-82787844D01*
X131236396Y-82782962D01*
X131236388Y-82782952D01*
X131236386Y-82782940D01*
X131236314Y-82782790D01*
X131234067Y-82777839D01*
X130817594Y-81860061D01*
X130766482Y-81747426D01*
X130755400Y-81696186D01*
X130755400Y-74043192D01*
X130730310Y-73917061D01*
X130730309Y-73917060D01*
X130730309Y-73917056D01*
X130681092Y-73798236D01*
X130609641Y-73691300D01*
X130609639Y-73691298D01*
X130609637Y-73691295D01*
X130609636Y-73691294D01*
X127035673Y-70117332D01*
X127003561Y-70061675D01*
X126997178Y-70037797D01*
X126619401Y-68624652D01*
X126616260Y-68608835D01*
X126599693Y-68482986D01*
X126538606Y-68255007D01*
X126448284Y-68036951D01*
X126448282Y-68036948D01*
X126448280Y-68036943D01*
X126379575Y-67917944D01*
X126330273Y-67832550D01*
X126186592Y-67645301D01*
X126186587Y-67645295D01*
X126019704Y-67478412D01*
X126019697Y-67478406D01*
X125832454Y-67334730D01*
X125832453Y-67334729D01*
X125832450Y-67334727D01*
X125750957Y-67287677D01*
X125628056Y-67216719D01*
X125628045Y-67216714D01*
X125409993Y-67126394D01*
X125182010Y-67065306D01*
X124948020Y-67034501D01*
X124948017Y-67034500D01*
X124948011Y-67034500D01*
X124711989Y-67034500D01*
X124711983Y-67034500D01*
X124711979Y-67034501D01*
X124477989Y-67065306D01*
X124250006Y-67126394D01*
X124031954Y-67216714D01*
X124031943Y-67216719D01*
X123827545Y-67334730D01*
X123640302Y-67478406D01*
X123640295Y-67478412D01*
X123473412Y-67645295D01*
X123473406Y-67645302D01*
X123329730Y-67832545D01*
X123211719Y-68036943D01*
X123211714Y-68036954D01*
X123121394Y-68255006D01*
X123060306Y-68482989D01*
X123029501Y-68716979D01*
X123029500Y-68716995D01*
X123029500Y-68953004D01*
X123029501Y-68953020D01*
X123060306Y-69187010D01*
X123121394Y-69414993D01*
X123211714Y-69633045D01*
X123211719Y-69633056D01*
X123260236Y-69717088D01*
X123329727Y-69837450D01*
X123329729Y-69837453D01*
X123329730Y-69837454D01*
X123473406Y-70024697D01*
X123473412Y-70024704D01*
X123640295Y-70191587D01*
X123640302Y-70191593D01*
X123720465Y-70253104D01*
X123827550Y-70335273D01*
X123957097Y-70410067D01*
X124031943Y-70453280D01*
X124031948Y-70453282D01*
X124031951Y-70453284D01*
X124250007Y-70543606D01*
X124477986Y-70604693D01*
X124603835Y-70621260D01*
X124619652Y-70624401D01*
X125932843Y-70975457D01*
X126056675Y-71008561D01*
X126112332Y-71040673D01*
X129413281Y-74341622D01*
X129446766Y-74402945D01*
X129449600Y-74429303D01*
X129449600Y-81696184D01*
X129438518Y-81747425D01*
X128968661Y-82782836D01*
X128967349Y-82784356D01*
X128966228Y-82787889D01*
X128942984Y-82833509D01*
X128895010Y-82884305D01*
X128827190Y-82901101D01*
X128761055Y-82878564D01*
X128722014Y-82833509D01*
X128722013Y-82833508D01*
X128707445Y-82804915D01*
X128698747Y-82787844D01*
X128696396Y-82782962D01*
X128696388Y-82782952D01*
X128696386Y-82782940D01*
X128696314Y-82782790D01*
X128694067Y-82777839D01*
X128277594Y-81860061D01*
X128226482Y-81747426D01*
X128215400Y-81696186D01*
X128215400Y-76503192D01*
X128190310Y-76377061D01*
X128190309Y-76377060D01*
X128190309Y-76377056D01*
X128153275Y-76287648D01*
X128141093Y-76258237D01*
X128109692Y-76211243D01*
X128109692Y-76211242D01*
X128069641Y-76151301D01*
X128069635Y-76151294D01*
X122035673Y-70117332D01*
X122003561Y-70061675D01*
X121997178Y-70037797D01*
X121619401Y-68624652D01*
X121616260Y-68608835D01*
X121599693Y-68482986D01*
X121538606Y-68255007D01*
X121448284Y-68036951D01*
X121448282Y-68036948D01*
X121448280Y-68036943D01*
X121379575Y-67917944D01*
X121330273Y-67832550D01*
X121186592Y-67645301D01*
X121186587Y-67645295D01*
X121019704Y-67478412D01*
X121019697Y-67478406D01*
X120832454Y-67334730D01*
X120832453Y-67334729D01*
X120832450Y-67334727D01*
X120750957Y-67287677D01*
X120628056Y-67216719D01*
X120628045Y-67216714D01*
X120409993Y-67126394D01*
X120182010Y-67065306D01*
X119948020Y-67034501D01*
X119948017Y-67034500D01*
X119948011Y-67034500D01*
X119711989Y-67034500D01*
X119711983Y-67034500D01*
X119711979Y-67034501D01*
X119477989Y-67065306D01*
X119250006Y-67126394D01*
X119031954Y-67216714D01*
X119031943Y-67216719D01*
X118827545Y-67334730D01*
X118640302Y-67478406D01*
X118640295Y-67478412D01*
X118473412Y-67645295D01*
X118473406Y-67645302D01*
X118329730Y-67832545D01*
X118211719Y-68036943D01*
X118211714Y-68036954D01*
X118121394Y-68255006D01*
X118060306Y-68482989D01*
X118029501Y-68716979D01*
X118029500Y-68716995D01*
X118029500Y-68953004D01*
X118029501Y-68953020D01*
X118060306Y-69187010D01*
X118121394Y-69414993D01*
X118211714Y-69633045D01*
X118211719Y-69633056D01*
X118260236Y-69717088D01*
X118329727Y-69837450D01*
X118329729Y-69837453D01*
X118329730Y-69837454D01*
X118473406Y-70024697D01*
X118473412Y-70024704D01*
X118640295Y-70191587D01*
X118640302Y-70191593D01*
X118720465Y-70253104D01*
X118827550Y-70335273D01*
X118957097Y-70410067D01*
X119031943Y-70453280D01*
X119031948Y-70453282D01*
X119031951Y-70453284D01*
X119250007Y-70543606D01*
X119477986Y-70604693D01*
X119603835Y-70621260D01*
X119619652Y-70624401D01*
X120932843Y-70975457D01*
X121056675Y-71008561D01*
X121112332Y-71040673D01*
X126873281Y-76801621D01*
X126906766Y-76862944D01*
X126909600Y-76889302D01*
X126909600Y-81696184D01*
X126898518Y-81747425D01*
X126428661Y-82782836D01*
X126427349Y-82784356D01*
X126426228Y-82787889D01*
X126402984Y-82833509D01*
X126355010Y-82884305D01*
X126287190Y-82901101D01*
X126221055Y-82878564D01*
X126182014Y-82833509D01*
X126182013Y-82833508D01*
X126167445Y-82804915D01*
X126158747Y-82787844D01*
X126156396Y-82782962D01*
X126156388Y-82782952D01*
X126156386Y-82782940D01*
X126156314Y-82782790D01*
X126154067Y-82777839D01*
X125737594Y-81860061D01*
X125686482Y-81747426D01*
X125675400Y-81696186D01*
X125675400Y-78963192D01*
X125650310Y-78837061D01*
X125650309Y-78837060D01*
X125650309Y-78837056D01*
X125601092Y-78718236D01*
X125529641Y-78611301D01*
X125529639Y-78611298D01*
X117035673Y-70117332D01*
X117003561Y-70061675D01*
X116997178Y-70037797D01*
X116619401Y-68624652D01*
X116616260Y-68608835D01*
X116599693Y-68482986D01*
X116538606Y-68255007D01*
X116448284Y-68036951D01*
X116448282Y-68036948D01*
X116448280Y-68036943D01*
X116379575Y-67917944D01*
X116330273Y-67832550D01*
X116186592Y-67645301D01*
X116186587Y-67645295D01*
X116019704Y-67478412D01*
X116019697Y-67478406D01*
X115832454Y-67334730D01*
X115832453Y-67334729D01*
X115832450Y-67334727D01*
X115750957Y-67287677D01*
X115628056Y-67216719D01*
X115628045Y-67216714D01*
X115409993Y-67126394D01*
X115182010Y-67065306D01*
X114948020Y-67034501D01*
X114948017Y-67034500D01*
X114948011Y-67034500D01*
X114711989Y-67034500D01*
X114711983Y-67034500D01*
X114711979Y-67034501D01*
X114477989Y-67065306D01*
X114250006Y-67126394D01*
X114031954Y-67216714D01*
X114031943Y-67216719D01*
X113827545Y-67334730D01*
X113640302Y-67478406D01*
X113640295Y-67478412D01*
X113473412Y-67645295D01*
X113473406Y-67645302D01*
X113329730Y-67832545D01*
X113211719Y-68036943D01*
X113211714Y-68036954D01*
X113121394Y-68255006D01*
X113060306Y-68482989D01*
X113029501Y-68716979D01*
X113029500Y-68716995D01*
X113029500Y-68953004D01*
X113029501Y-68953020D01*
X113060306Y-69187010D01*
X113121394Y-69414993D01*
X113211714Y-69633045D01*
X113211719Y-69633056D01*
X113260236Y-69717088D01*
X113329727Y-69837450D01*
X113329729Y-69837453D01*
X113329730Y-69837454D01*
X113473406Y-70024697D01*
X113473412Y-70024704D01*
X113640295Y-70191587D01*
X113640302Y-70191593D01*
X113720465Y-70253104D01*
X113827550Y-70335273D01*
X113957097Y-70410067D01*
X114031943Y-70453280D01*
X114031948Y-70453282D01*
X114031951Y-70453284D01*
X114250007Y-70543606D01*
X114477986Y-70604693D01*
X114603835Y-70621260D01*
X114619652Y-70624401D01*
X115932843Y-70975457D01*
X116056675Y-71008561D01*
X116112332Y-71040673D01*
X124333281Y-79261621D01*
X124366766Y-79322944D01*
X124369600Y-79349302D01*
X124369600Y-81696184D01*
X124358518Y-81747425D01*
X123888661Y-82782836D01*
X123887349Y-82784356D01*
X123886228Y-82787889D01*
X123862984Y-82833509D01*
X123815010Y-82884305D01*
X123747190Y-82901101D01*
X123681055Y-82878564D01*
X123642014Y-82833509D01*
X123642013Y-82833508D01*
X123627445Y-82804915D01*
X123618747Y-82787844D01*
X123616396Y-82782962D01*
X123616388Y-82782952D01*
X123616386Y-82782940D01*
X123616314Y-82782790D01*
X123614067Y-82777839D01*
X123197594Y-81860061D01*
X123146482Y-81747426D01*
X123135400Y-81696186D01*
X123135400Y-81423192D01*
X123110310Y-81297061D01*
X123110309Y-81297060D01*
X123110309Y-81297056D01*
X123061092Y-81178236D01*
X123024602Y-81123625D01*
X122989640Y-81071300D01*
X122989638Y-81071297D01*
X112035673Y-70117332D01*
X112003561Y-70061675D01*
X111997178Y-70037797D01*
X111619401Y-68624652D01*
X111616260Y-68608835D01*
X111599693Y-68482986D01*
X111538606Y-68255007D01*
X111448284Y-68036951D01*
X111448282Y-68036948D01*
X111448280Y-68036943D01*
X111379575Y-67917944D01*
X111330273Y-67832550D01*
X111186592Y-67645301D01*
X111186587Y-67645295D01*
X111019704Y-67478412D01*
X111019697Y-67478406D01*
X110832454Y-67334730D01*
X110832453Y-67334729D01*
X110832450Y-67334727D01*
X110750957Y-67287677D01*
X110628056Y-67216719D01*
X110628045Y-67216714D01*
X110409993Y-67126394D01*
X110182010Y-67065306D01*
X109948020Y-67034501D01*
X109948017Y-67034500D01*
X109948011Y-67034500D01*
X109711989Y-67034500D01*
X109711983Y-67034500D01*
X109711979Y-67034501D01*
X109477989Y-67065306D01*
X109250006Y-67126394D01*
X109031954Y-67216714D01*
X109031943Y-67216719D01*
X108827545Y-67334730D01*
X108640302Y-67478406D01*
X108640295Y-67478412D01*
X108473412Y-67645295D01*
X108473406Y-67645302D01*
X108329730Y-67832545D01*
X108211719Y-68036943D01*
X108211714Y-68036954D01*
X108121394Y-68255006D01*
X108060306Y-68482989D01*
X108029501Y-68716979D01*
X108029500Y-68716995D01*
X108029500Y-68953004D01*
X108029501Y-68953020D01*
X108060306Y-69187010D01*
X108121394Y-69414993D01*
X108211714Y-69633045D01*
X108211719Y-69633056D01*
X108260236Y-69717088D01*
X108329727Y-69837450D01*
X108329729Y-69837453D01*
X108329730Y-69837454D01*
X108473406Y-70024697D01*
X108473412Y-70024704D01*
X108640295Y-70191587D01*
X108640302Y-70191593D01*
X108720465Y-70253104D01*
X108827550Y-70335273D01*
X108957097Y-70410067D01*
X109031943Y-70453280D01*
X109031948Y-70453282D01*
X109031951Y-70453284D01*
X109250007Y-70543606D01*
X109477986Y-70604693D01*
X109603835Y-70621260D01*
X109619652Y-70624401D01*
X110932843Y-70975457D01*
X111056675Y-71008561D01*
X111112332Y-71040673D01*
X116448720Y-76377061D01*
X121757972Y-81686312D01*
X121791457Y-81747635D01*
X121786473Y-81817327D01*
X121783209Y-81825234D01*
X121348661Y-82782836D01*
X121346228Y-82787889D01*
X121322984Y-82833509D01*
X121275010Y-82884305D01*
X121207190Y-82901101D01*
X121141055Y-82878564D01*
X121102014Y-82833509D01*
X121076170Y-82782786D01*
X120953535Y-82613995D01*
X120806005Y-82466465D01*
X120637214Y-82343830D01*
X120557944Y-82303440D01*
X120451320Y-82249112D01*
X120258335Y-82186407D01*
X120253042Y-82184553D01*
X119188658Y-81784645D01*
X119144589Y-81756249D01*
X107207634Y-69819293D01*
X107181643Y-69781157D01*
X107123960Y-69648815D01*
X106577658Y-68395431D01*
X106571556Y-68377980D01*
X106538606Y-68255008D01*
X106538606Y-68255007D01*
X106497014Y-68154595D01*
X106448288Y-68036959D01*
X106448280Y-68036943D01*
X106379575Y-67917944D01*
X106330273Y-67832550D01*
X106186592Y-67645301D01*
X106186587Y-67645295D01*
X106019704Y-67478412D01*
X106019697Y-67478406D01*
X105832454Y-67334730D01*
X105832453Y-67334729D01*
X105832450Y-67334727D01*
X105750957Y-67287677D01*
X105628056Y-67216719D01*
X105628045Y-67216714D01*
X105409993Y-67126394D01*
X105182010Y-67065306D01*
X104948020Y-67034501D01*
X104948017Y-67034500D01*
X104948011Y-67034500D01*
X104711989Y-67034500D01*
X104711983Y-67034500D01*
X104711979Y-67034501D01*
X104477989Y-67065306D01*
X104250006Y-67126394D01*
X104031954Y-67216714D01*
X104031943Y-67216719D01*
X103827545Y-67334730D01*
X103640302Y-67478406D01*
X103640295Y-67478412D01*
X103473412Y-67645295D01*
X103473406Y-67645302D01*
X103329730Y-67832545D01*
X103211719Y-68036943D01*
X103211714Y-68036954D01*
X103121394Y-68255006D01*
X103060306Y-68482989D01*
X103029501Y-68716979D01*
X103029500Y-68716995D01*
X103029500Y-68953004D01*
X103029501Y-68953020D01*
X103060306Y-69187010D01*
X103121394Y-69414993D01*
X103211714Y-69633045D01*
X103211719Y-69633056D01*
X103260236Y-69717088D01*
X103329727Y-69837450D01*
X103329729Y-69837453D01*
X103329730Y-69837454D01*
X103473406Y-70024697D01*
X103473412Y-70024704D01*
X103640295Y-70191587D01*
X103640302Y-70191593D01*
X103720465Y-70253104D01*
X103827550Y-70335273D01*
X103957097Y-70410067D01*
X104031943Y-70453280D01*
X104031948Y-70453282D01*
X104031951Y-70453284D01*
X104250007Y-70543606D01*
X104477986Y-70604693D01*
X104711989Y-70635500D01*
X104915471Y-70635500D01*
X104928248Y-70636160D01*
X106278442Y-70776026D01*
X106343094Y-70802513D01*
X106353344Y-70811685D01*
X111918720Y-76377061D01*
X117328735Y-81787075D01*
X117362220Y-81848398D01*
X117357236Y-81918090D01*
X117315364Y-81974023D01*
X117249900Y-81998440D01*
X117197442Y-81990833D01*
X116648658Y-81784645D01*
X116604589Y-81756249D01*
X112786205Y-77937863D01*
X112786204Y-77937862D01*
X112786200Y-77937859D01*
X112679264Y-77866408D01*
X112560444Y-77817191D01*
X112560438Y-77817189D01*
X112434307Y-77792100D01*
X112434305Y-77792100D01*
X109761802Y-77792100D01*
X109694763Y-77772415D01*
X109674121Y-77755781D01*
X102035673Y-70117332D01*
X102003561Y-70061675D01*
X101997178Y-70037797D01*
X101619401Y-68624652D01*
X101616260Y-68608835D01*
X101599693Y-68482986D01*
X101538606Y-68255007D01*
X101448284Y-68036951D01*
X101448282Y-68036948D01*
X101448280Y-68036943D01*
X101379575Y-67917944D01*
X101330273Y-67832550D01*
X101186592Y-67645301D01*
X101186587Y-67645295D01*
X101019704Y-67478412D01*
X101019697Y-67478406D01*
X100832454Y-67334730D01*
X100832453Y-67334729D01*
X100832450Y-67334727D01*
X100750957Y-67287677D01*
X100628056Y-67216719D01*
X100628045Y-67216714D01*
X100409993Y-67126394D01*
X100182010Y-67065306D01*
X99948020Y-67034501D01*
X99948017Y-67034500D01*
X99948011Y-67034500D01*
X99711989Y-67034500D01*
X99711983Y-67034500D01*
X99711979Y-67034501D01*
X99477989Y-67065306D01*
X99250006Y-67126394D01*
X99031954Y-67216714D01*
X99031943Y-67216719D01*
X98827545Y-67334730D01*
X98640302Y-67478406D01*
X98640295Y-67478412D01*
X98473412Y-67645295D01*
X98473406Y-67645302D01*
X98329730Y-67832545D01*
X98211719Y-68036943D01*
X98211714Y-68036954D01*
X98121394Y-68255006D01*
X98060306Y-68482989D01*
X98029501Y-68716979D01*
X98029500Y-68716995D01*
X98029500Y-68953004D01*
X98029501Y-68953020D01*
X98060306Y-69187010D01*
X98121394Y-69414993D01*
X98211714Y-69633045D01*
X98211719Y-69633056D01*
X98260236Y-69717088D01*
X98329727Y-69837450D01*
X98329729Y-69837453D01*
X98329730Y-69837454D01*
X98473406Y-70024697D01*
X98473412Y-70024704D01*
X98640295Y-70191587D01*
X98640302Y-70191593D01*
X98720465Y-70253104D01*
X98827550Y-70335273D01*
X98957097Y-70410067D01*
X99031943Y-70453280D01*
X99031948Y-70453282D01*
X99031951Y-70453284D01*
X99250007Y-70543606D01*
X99477986Y-70604693D01*
X99603835Y-70621260D01*
X99619652Y-70624401D01*
X100932843Y-70975457D01*
X101056675Y-71008561D01*
X101112332Y-71040673D01*
X109023797Y-78952138D01*
X109023800Y-78952140D01*
X109130736Y-79023592D01*
X109249556Y-79072809D01*
X109249560Y-79072809D01*
X109249561Y-79072810D01*
X109375692Y-79097900D01*
X109375695Y-79097900D01*
X112048197Y-79097900D01*
X112115236Y-79117585D01*
X112135878Y-79134219D01*
X113641610Y-80639951D01*
X114788735Y-81787075D01*
X114822220Y-81848398D01*
X114817236Y-81918090D01*
X114775364Y-81974023D01*
X114709900Y-81998440D01*
X114657442Y-81990833D01*
X114108658Y-81784645D01*
X114064589Y-81756249D01*
X112977525Y-80669184D01*
X112955845Y-80639951D01*
X112953590Y-80635733D01*
X112882140Y-80528801D01*
X112882137Y-80528797D01*
X112791202Y-80437862D01*
X112791198Y-80437859D01*
X112684270Y-80366411D01*
X112684261Y-80366406D01*
X112565444Y-80317191D01*
X112565438Y-80317189D01*
X112439307Y-80292100D01*
X112439305Y-80292100D01*
X107261802Y-80292100D01*
X107194763Y-80272415D01*
X107174121Y-80255781D01*
X97035673Y-70117332D01*
X97003561Y-70061675D01*
X96997178Y-70037797D01*
X96619401Y-68624652D01*
X96616260Y-68608835D01*
X96599693Y-68482986D01*
X96538606Y-68255007D01*
X96448284Y-68036951D01*
X96448282Y-68036948D01*
X96448280Y-68036943D01*
X96379575Y-67917944D01*
X96330273Y-67832550D01*
X96186592Y-67645301D01*
X96186587Y-67645295D01*
X96019704Y-67478412D01*
X96019697Y-67478406D01*
X95832454Y-67334730D01*
X95832453Y-67334729D01*
X95832450Y-67334727D01*
X95750957Y-67287677D01*
X95628056Y-67216719D01*
X95628045Y-67216714D01*
X95409993Y-67126394D01*
X95182010Y-67065306D01*
X94948020Y-67034501D01*
X94948017Y-67034500D01*
X94948011Y-67034500D01*
X94711989Y-67034500D01*
X94711983Y-67034500D01*
X94711979Y-67034501D01*
X94477989Y-67065306D01*
X94250006Y-67126394D01*
X94031954Y-67216714D01*
X94031943Y-67216719D01*
X93827545Y-67334730D01*
X93640302Y-67478406D01*
X93640295Y-67478412D01*
X93473412Y-67645295D01*
X93473406Y-67645302D01*
X93329730Y-67832545D01*
X93211719Y-68036943D01*
X93211714Y-68036954D01*
X93121394Y-68255006D01*
X93060306Y-68482989D01*
X93029501Y-68716979D01*
X93029500Y-68716995D01*
X93029500Y-68953004D01*
X93029501Y-68953020D01*
X93060306Y-69187010D01*
X93121394Y-69414993D01*
X93211714Y-69633045D01*
X93211719Y-69633056D01*
X93260236Y-69717088D01*
X93329727Y-69837450D01*
X93329729Y-69837453D01*
X93329730Y-69837454D01*
X93473406Y-70024697D01*
X93473412Y-70024704D01*
X93640295Y-70191587D01*
X93640302Y-70191593D01*
X93720465Y-70253104D01*
X93827550Y-70335273D01*
X93957097Y-70410067D01*
X94031943Y-70453280D01*
X94031948Y-70453282D01*
X94031951Y-70453284D01*
X94250007Y-70543606D01*
X94477986Y-70604693D01*
X94603835Y-70621260D01*
X94619652Y-70624401D01*
X95932843Y-70975457D01*
X96056675Y-71008561D01*
X96112332Y-71040673D01*
X106523797Y-81452138D01*
X106523800Y-81452140D01*
X106625514Y-81520103D01*
X106630734Y-81523591D01*
X106630735Y-81523591D01*
X106630736Y-81523592D01*
X106749556Y-81572809D01*
X106749560Y-81572809D01*
X106749561Y-81572810D01*
X106875692Y-81597900D01*
X106875695Y-81597900D01*
X112008197Y-81597900D01*
X112075236Y-81617585D01*
X112095878Y-81634219D01*
X112401978Y-81940319D01*
X112435463Y-82001642D01*
X112430479Y-82071334D01*
X112388607Y-82127267D01*
X112323143Y-82151684D01*
X112314297Y-82152000D01*
X112218176Y-82152000D01*
X112012109Y-82184638D01*
X112012106Y-82184638D01*
X111813685Y-82249110D01*
X111813684Y-82249110D01*
X111632873Y-82341237D01*
X111627830Y-82343664D01*
X110592423Y-82813518D01*
X110541184Y-82824600D01*
X104794302Y-82824600D01*
X104727263Y-82804915D01*
X104706621Y-82788281D01*
X92035673Y-70117332D01*
X92003561Y-70061675D01*
X91997178Y-70037797D01*
X91619401Y-68624652D01*
X91616260Y-68608835D01*
X91599693Y-68482986D01*
X91538606Y-68255007D01*
X91448284Y-68036951D01*
X91448282Y-68036948D01*
X91448280Y-68036943D01*
X91379575Y-67917944D01*
X91330273Y-67832550D01*
X91186592Y-67645301D01*
X91186587Y-67645295D01*
X91019704Y-67478412D01*
X91019697Y-67478406D01*
X90832454Y-67334730D01*
X90832453Y-67334729D01*
X90832450Y-67334727D01*
X90750957Y-67287677D01*
X90628056Y-67216719D01*
X90628045Y-67216714D01*
X90409993Y-67126394D01*
X90182010Y-67065306D01*
X89948020Y-67034501D01*
X89948017Y-67034500D01*
X89948011Y-67034500D01*
X89711989Y-67034500D01*
X89711983Y-67034500D01*
X89711979Y-67034501D01*
X89477989Y-67065306D01*
X89250006Y-67126394D01*
X89031954Y-67216714D01*
X89031943Y-67216719D01*
X88827545Y-67334730D01*
X88640302Y-67478406D01*
X88640295Y-67478412D01*
X88473412Y-67645295D01*
X88473406Y-67645302D01*
X88329730Y-67832545D01*
X88211719Y-68036943D01*
X88211714Y-68036954D01*
X88121394Y-68255006D01*
X88060306Y-68482989D01*
X88029501Y-68716979D01*
X88029500Y-68716995D01*
X82560000Y-68716995D01*
X82560000Y-62624000D01*
X82579685Y-62556961D01*
X82632489Y-62511206D01*
X82684000Y-62500000D01*
X216316000Y-62500000D01*
X216383039Y-62519685D01*
G37*
%TD.AperFunction*%
%TD*%
%TA.AperFunction,Conductor*%
%TO.N,Net-(J1-Pin_5)*%
G36*
X156366114Y-68833365D02*
G01*
X156374019Y-68837572D01*
X156376634Y-68843886D01*
X156499382Y-70114010D01*
X156496767Y-70122574D01*
X156490758Y-70126438D01*
X154870803Y-70559500D01*
X154861925Y-70558326D01*
X154859508Y-70556470D01*
X154653529Y-70350491D01*
X154650102Y-70342218D01*
X154650498Y-70339199D01*
X155083562Y-68719239D01*
X155089008Y-68712134D01*
X155095987Y-68710617D01*
X156366114Y-68833365D01*
G37*
%TD.AperFunction*%
%TD*%
%TA.AperFunction,Conductor*%
%TO.N,Net-(J1-Pin_5)*%
G36*
X145495634Y-81846779D02*
G01*
X145498015Y-81850217D01*
X146024361Y-83010118D01*
X146024659Y-83019068D01*
X146020217Y-83024675D01*
X145349010Y-83474140D01*
X145340229Y-83475895D01*
X145335990Y-83474140D01*
X144664782Y-83024675D01*
X144659815Y-83017224D01*
X144660637Y-83010120D01*
X145186985Y-81850217D01*
X145193524Y-81844100D01*
X145197639Y-81843352D01*
X145487361Y-81843352D01*
X145495634Y-81846779D01*
G37*
%TD.AperFunction*%
%TD*%
%TA.AperFunction,Conductor*%
%TO.N,Net-(J1-Pin_4)*%
G36*
X148125360Y-81885766D02*
G01*
X148126289Y-81886601D01*
X148330493Y-82090805D01*
X148333447Y-82095784D01*
X148688048Y-83304284D01*
X148687089Y-83313187D01*
X148680115Y-83318805D01*
X148679111Y-83319052D01*
X147886557Y-83477256D01*
X147877775Y-83475515D01*
X147207155Y-83026267D01*
X147202190Y-83018817D01*
X147203948Y-83010036D01*
X147204549Y-83009217D01*
X148108908Y-81887529D01*
X148116768Y-81883241D01*
X148125360Y-81885766D01*
G37*
%TD.AperFunction*%
%TD*%
%TA.AperFunction,Conductor*%
%TO.N,Net-(J1-Pin_4)*%
G36*
X161366114Y-68833365D02*
G01*
X161374019Y-68837572D01*
X161376634Y-68843886D01*
X161499382Y-70114010D01*
X161496767Y-70122574D01*
X161490758Y-70126438D01*
X159870803Y-70559500D01*
X159861925Y-70558326D01*
X159859508Y-70556470D01*
X159653529Y-70350491D01*
X159650102Y-70342218D01*
X159650498Y-70339199D01*
X160083562Y-68719239D01*
X160089008Y-68712134D01*
X160095987Y-68710617D01*
X161366114Y-68833365D01*
G37*
%TD.AperFunction*%
%TD*%
%TA.AperFunction,Conductor*%
%TO.N,Net-(J1-Pin_7)*%
G36*
X140415634Y-81846779D02*
G01*
X140418015Y-81850217D01*
X140944361Y-83010118D01*
X140944659Y-83019068D01*
X140940217Y-83024675D01*
X140269010Y-83474140D01*
X140260229Y-83475895D01*
X140255990Y-83474140D01*
X139584782Y-83024675D01*
X139579815Y-83017224D01*
X139580637Y-83010120D01*
X140106985Y-81850217D01*
X140113524Y-81844100D01*
X140117639Y-81843352D01*
X140407361Y-81843352D01*
X140415634Y-81846779D01*
G37*
%TD.AperFunction*%
%TD*%
%TA.AperFunction,Conductor*%
%TO.N,Net-(J1-Pin_7)*%
G36*
X146366114Y-68833365D02*
G01*
X146374019Y-68837572D01*
X146376634Y-68843886D01*
X146499382Y-70114010D01*
X146496767Y-70122574D01*
X146490758Y-70126438D01*
X144870803Y-70559500D01*
X144861925Y-70558326D01*
X144859508Y-70556470D01*
X144653529Y-70350491D01*
X144650102Y-70342218D01*
X144650498Y-70339199D01*
X145083562Y-68719239D01*
X145089008Y-68712134D01*
X145095987Y-68710617D01*
X146366114Y-68833365D01*
G37*
%TD.AperFunction*%
%TD*%
%TA.AperFunction,Conductor*%
%TO.N,Net-(J1-Pin_3)*%
G36*
X151472146Y-82217169D02*
G01*
X151475584Y-82219550D01*
X151680449Y-82424415D01*
X151683876Y-82432688D01*
X151683128Y-82436803D01*
X151235137Y-83629162D01*
X151229020Y-83635701D01*
X151221914Y-83636524D01*
X150429478Y-83479727D01*
X150422027Y-83474760D01*
X150420272Y-83470521D01*
X150263475Y-82678082D01*
X150265230Y-82669304D01*
X150270835Y-82664863D01*
X151463198Y-82216871D01*
X151472146Y-82217169D01*
G37*
%TD.AperFunction*%
%TD*%
%TA.AperFunction,Conductor*%
%TO.N,Net-(J1-Pin_3)*%
G36*
X165287823Y-68160981D02*
G01*
X166367245Y-68829056D01*
X166372477Y-68836323D01*
X166371896Y-68843485D01*
X165881511Y-70026395D01*
X165875177Y-70032725D01*
X165867474Y-70033160D01*
X164483497Y-69635768D01*
X164478453Y-69632795D01*
X164272480Y-69426822D01*
X164269053Y-69418549D01*
X164271625Y-69411232D01*
X165272544Y-68163607D01*
X165280391Y-68159301D01*
X165287823Y-68160981D01*
G37*
%TD.AperFunction*%
%TD*%
%TA.AperFunction,Conductor*%
%TO.N,Net-(J1-Pin_8)*%
G36*
X141366114Y-68833365D02*
G01*
X141374019Y-68837572D01*
X141376634Y-68843886D01*
X141499382Y-70114010D01*
X141496767Y-70122574D01*
X141490758Y-70126438D01*
X139870803Y-70559500D01*
X139861925Y-70558326D01*
X139859508Y-70556470D01*
X139653529Y-70350491D01*
X139650102Y-70342218D01*
X139650498Y-70339199D01*
X140083562Y-68719239D01*
X140089008Y-68712134D01*
X140095987Y-68710617D01*
X141366114Y-68833365D01*
G37*
%TD.AperFunction*%
%TD*%
%TA.AperFunction,Conductor*%
%TO.N,Net-(J1-Pin_8)*%
G36*
X137875634Y-81846779D02*
G01*
X137878015Y-81850217D01*
X138404361Y-83010118D01*
X138404659Y-83019068D01*
X138400217Y-83024675D01*
X137729010Y-83474140D01*
X137720229Y-83475895D01*
X137715990Y-83474140D01*
X137044782Y-83024675D01*
X137039815Y-83017224D01*
X137040637Y-83010120D01*
X137566985Y-81850217D01*
X137573524Y-81844100D01*
X137577639Y-81843352D01*
X137867361Y-81843352D01*
X137875634Y-81846779D01*
G37*
%TD.AperFunction*%
%TD*%
%TA.AperFunction,Conductor*%
%TO.N,Net-(J1-Pin_6)*%
G36*
X142955634Y-81846779D02*
G01*
X142958015Y-81850217D01*
X143484361Y-83010118D01*
X143484659Y-83019068D01*
X143480217Y-83024675D01*
X142809010Y-83474140D01*
X142800229Y-83475895D01*
X142795990Y-83474140D01*
X142124782Y-83024675D01*
X142119815Y-83017224D01*
X142120637Y-83010120D01*
X142646985Y-81850217D01*
X142653524Y-81844100D01*
X142657639Y-81843352D01*
X142947361Y-81843352D01*
X142955634Y-81846779D01*
G37*
%TD.AperFunction*%
%TD*%
%TA.AperFunction,Conductor*%
%TO.N,Net-(J1-Pin_6)*%
G36*
X151366114Y-68833365D02*
G01*
X151374019Y-68837572D01*
X151376634Y-68843886D01*
X151499382Y-70114010D01*
X151496767Y-70122574D01*
X151490758Y-70126438D01*
X149870803Y-70559500D01*
X149861925Y-70558326D01*
X149859508Y-70556470D01*
X149653529Y-70350491D01*
X149650102Y-70342218D01*
X149650498Y-70339199D01*
X150083562Y-68719239D01*
X150089008Y-68712134D01*
X150095987Y-68710617D01*
X151366114Y-68833365D01*
G37*
%TD.AperFunction*%
%TD*%
%TA.AperFunction,Conductor*%
%TO.N,/SCK*%
G36*
X125830695Y-83320230D02*
G01*
X125835137Y-83325837D01*
X126283128Y-84518196D01*
X126282830Y-84527146D01*
X126280449Y-84530584D01*
X126075584Y-84735449D01*
X126067311Y-84738876D01*
X126063196Y-84738128D01*
X124870837Y-84290137D01*
X124864298Y-84284020D01*
X124863475Y-84276917D01*
X125020272Y-83484477D01*
X125025239Y-83477027D01*
X125029476Y-83475272D01*
X125821916Y-83318475D01*
X125830695Y-83320230D01*
G37*
%TD.AperFunction*%
%TD*%
%TA.AperFunction,Conductor*%
%TO.N,/SCK*%
G36*
X125175634Y-81846779D02*
G01*
X125178015Y-81850217D01*
X125704361Y-83010118D01*
X125704659Y-83019068D01*
X125700217Y-83024675D01*
X125029010Y-83474140D01*
X125020229Y-83475895D01*
X125015990Y-83474140D01*
X124344782Y-83024675D01*
X124339815Y-83017224D01*
X124340637Y-83010120D01*
X124866985Y-81850217D01*
X124873524Y-81844100D01*
X124877639Y-81843352D01*
X125167361Y-81843352D01*
X125175634Y-81846779D01*
G37*
%TD.AperFunction*%
%TD*%
%TA.AperFunction,Conductor*%
%TO.N,/SCK*%
G36*
X116117574Y-68713232D02*
G01*
X116121438Y-68719241D01*
X116554500Y-70339196D01*
X116553326Y-70348074D01*
X116551470Y-70350491D01*
X116345491Y-70556470D01*
X116337218Y-70559897D01*
X116334196Y-70559500D01*
X114714241Y-70126438D01*
X114707134Y-70120991D01*
X114705617Y-70114012D01*
X114828366Y-68843883D01*
X114832572Y-68835980D01*
X114838883Y-68833366D01*
X116109011Y-68710617D01*
X116117574Y-68713232D01*
G37*
%TD.AperFunction*%
%TD*%
%TA.AperFunction,Conductor*%
%TO.N,/SCK*%
G36*
X168033425Y-96397282D02*
G01*
X168482890Y-97068490D01*
X168484645Y-97077271D01*
X168482890Y-97081510D01*
X168033425Y-97752717D01*
X168025974Y-97757684D01*
X168018868Y-97756861D01*
X166858967Y-97230515D01*
X166852850Y-97223976D01*
X166852102Y-97219861D01*
X166852102Y-96930138D01*
X166855529Y-96921865D01*
X166858963Y-96919486D01*
X168018870Y-96393137D01*
X168027818Y-96392840D01*
X168033425Y-96397282D01*
G37*
%TD.AperFunction*%
%TD*%
%TA.AperFunction,Conductor*%
%TO.N,/HALL2_OUT*%
G36*
X115670695Y-83320230D02*
G01*
X115675137Y-83325837D01*
X116123128Y-84518196D01*
X116122830Y-84527146D01*
X116120449Y-84530584D01*
X115915584Y-84735449D01*
X115907311Y-84738876D01*
X115903196Y-84738128D01*
X114710837Y-84290137D01*
X114704298Y-84284020D01*
X114703475Y-84276917D01*
X114860272Y-83484477D01*
X114865239Y-83477027D01*
X114869476Y-83475272D01*
X115661916Y-83318475D01*
X115670695Y-83320230D01*
G37*
%TD.AperFunction*%
%TD*%
%TA.AperFunction,Conductor*%
%TO.N,/HALL2_OUT*%
G36*
X113821800Y-82216870D02*
G01*
X115014162Y-82664862D01*
X115020701Y-82670979D01*
X115021524Y-82678085D01*
X114864727Y-83470521D01*
X114859760Y-83477972D01*
X114855521Y-83479727D01*
X114063085Y-83636524D01*
X114054304Y-83634769D01*
X114049862Y-83629162D01*
X113993717Y-83479727D01*
X113601871Y-82436801D01*
X113602169Y-82427853D01*
X113604547Y-82424418D01*
X113809416Y-82219549D01*
X113817688Y-82216123D01*
X113821800Y-82216870D01*
G37*
%TD.AperFunction*%
%TD*%
%TA.AperFunction,Conductor*%
%TO.N,/HALL2_OUT*%
G36*
X179574725Y-90391985D02*
G01*
X179574744Y-90391998D01*
X180225123Y-90827721D01*
X180230089Y-90835173D01*
X180228331Y-90843953D01*
X180228107Y-90844276D01*
X179423275Y-91962479D01*
X179415661Y-91967192D01*
X179406944Y-91965140D01*
X179405506Y-91963917D01*
X179201631Y-91760042D01*
X179198833Y-91755554D01*
X178789694Y-90558715D01*
X178790261Y-90549778D01*
X178796980Y-90543859D01*
X178798468Y-90543457D01*
X179565942Y-90390244D01*
X179574725Y-90391985D01*
G37*
%TD.AperFunction*%
%TD*%
%TA.AperFunction,Conductor*%
%TO.N,/HALL2_OUT*%
G36*
X96117574Y-68713232D02*
G01*
X96121438Y-68719241D01*
X96554500Y-70339196D01*
X96553326Y-70348074D01*
X96551470Y-70350491D01*
X96345491Y-70556470D01*
X96337218Y-70559897D01*
X96334196Y-70559500D01*
X94714241Y-70126438D01*
X94707134Y-70120991D01*
X94705617Y-70114012D01*
X94828366Y-68843883D01*
X94832572Y-68835980D01*
X94838883Y-68833366D01*
X96109011Y-68710617D01*
X96117574Y-68713232D01*
G37*
%TD.AperFunction*%
%TD*%
%TA.AperFunction,Conductor*%
%TO.N,/HALL2_OUT*%
G36*
X199427436Y-68840126D02*
G01*
X200266435Y-69531250D01*
X200412347Y-69651445D01*
X200416554Y-69659351D01*
X200415037Y-69666332D01*
X199575779Y-71118034D01*
X199568672Y-71123481D01*
X199565650Y-71123878D01*
X199274350Y-71123878D01*
X199266077Y-71120451D01*
X199264221Y-71118034D01*
X198424962Y-69666332D01*
X198423788Y-69657454D01*
X198427651Y-69651446D01*
X199412562Y-68840126D01*
X199421125Y-68837512D01*
X199427436Y-68840126D01*
G37*
%TD.AperFunction*%
%TD*%
%TA.AperFunction,Conductor*%
%TO.N,/HALL2_OUT*%
G36*
X180023472Y-89728878D02*
G01*
X181147727Y-90234496D01*
X181153867Y-90241015D01*
X181154628Y-90245167D01*
X181154628Y-90534832D01*
X181151201Y-90543105D01*
X181147727Y-90545503D01*
X180023473Y-91051120D01*
X180014522Y-91051388D01*
X180008953Y-91046959D01*
X179673137Y-90545503D01*
X179573358Y-90396508D01*
X179571602Y-90387729D01*
X179573357Y-90383492D01*
X180008954Y-89733038D01*
X180016403Y-89728072D01*
X180023472Y-89728878D01*
G37*
%TD.AperFunction*%
%TD*%
%TA.AperFunction,Conductor*%
%TO.N,Net-(J2-Pin_6)*%
G36*
X118901800Y-82216870D02*
G01*
X120094162Y-82664862D01*
X120100701Y-82670979D01*
X120101524Y-82678085D01*
X119944727Y-83470521D01*
X119939760Y-83477972D01*
X119935521Y-83479727D01*
X119143085Y-83636524D01*
X119134304Y-83634769D01*
X119129862Y-83629162D01*
X119073717Y-83479727D01*
X118681871Y-82436801D01*
X118682169Y-82427853D01*
X118684547Y-82424418D01*
X118889416Y-82219549D01*
X118897688Y-82216123D01*
X118901800Y-82216870D01*
G37*
%TD.AperFunction*%
%TD*%
%TA.AperFunction,Conductor*%
%TO.N,Net-(J2-Pin_6)*%
G36*
X106078233Y-68520250D02*
G01*
X106082979Y-68525632D01*
X106757238Y-70072589D01*
X106757403Y-70081542D01*
X106754786Y-70085537D01*
X106548837Y-70291486D01*
X106540564Y-70294913D01*
X106539358Y-70294851D01*
X104898898Y-70124915D01*
X104891022Y-70120654D01*
X104888416Y-70113817D01*
X104829733Y-68843821D01*
X104832775Y-68835399D01*
X104838537Y-68831942D01*
X106069371Y-68518968D01*
X106078233Y-68520250D01*
G37*
%TD.AperFunction*%
%TD*%
%TA.AperFunction,Conductor*%
%TO.N,/CS*%
G36*
X111117574Y-68713232D02*
G01*
X111121438Y-68719241D01*
X111554500Y-70339196D01*
X111553326Y-70348074D01*
X111551470Y-70350491D01*
X111345491Y-70556470D01*
X111337218Y-70559897D01*
X111334196Y-70559500D01*
X109714241Y-70126438D01*
X109707134Y-70120991D01*
X109705617Y-70114012D01*
X109828366Y-68843883D01*
X109832572Y-68835980D01*
X109838883Y-68833366D01*
X111109011Y-68710617D01*
X111117574Y-68713232D01*
G37*
%TD.AperFunction*%
%TD*%
%TA.AperFunction,Conductor*%
%TO.N,/CS*%
G36*
X122635634Y-81846779D02*
G01*
X122638015Y-81850217D01*
X123164361Y-83010118D01*
X123164659Y-83019068D01*
X123160217Y-83024675D01*
X122489010Y-83474140D01*
X122480229Y-83475895D01*
X122475990Y-83474140D01*
X121804782Y-83024675D01*
X121799815Y-83017224D01*
X121800637Y-83010120D01*
X122326985Y-81850217D01*
X122333524Y-81844100D01*
X122337639Y-81843352D01*
X122627361Y-81843352D01*
X122635634Y-81846779D01*
G37*
%TD.AperFunction*%
%TD*%
%TA.AperFunction,Conductor*%
%TO.N,/CS*%
G36*
X123290695Y-83320230D02*
G01*
X123295137Y-83325837D01*
X123743128Y-84518196D01*
X123742830Y-84527146D01*
X123740449Y-84530584D01*
X123535584Y-84735449D01*
X123527311Y-84738876D01*
X123523196Y-84738128D01*
X122330837Y-84290137D01*
X122324298Y-84284020D01*
X122323475Y-84276917D01*
X122480272Y-83484477D01*
X122485239Y-83477027D01*
X122489476Y-83475272D01*
X123281916Y-83318475D01*
X123290695Y-83320230D01*
G37*
%TD.AperFunction*%
%TD*%
%TA.AperFunction,Conductor*%
%TO.N,/CS*%
G36*
X167668723Y-98797464D02*
G01*
X168478961Y-99606722D01*
X168482393Y-99614993D01*
X168478971Y-99623268D01*
X168478961Y-99623278D01*
X167668723Y-100432535D01*
X167660448Y-100435957D01*
X167653062Y-100433325D01*
X166840557Y-99770911D01*
X166836310Y-99763028D01*
X166836250Y-99761843D01*
X166836250Y-99468156D01*
X166839677Y-99459883D01*
X166840549Y-99459094D01*
X167653064Y-98796673D01*
X167661640Y-98794102D01*
X167668723Y-98797464D01*
G37*
%TD.AperFunction*%
%TD*%
%TA.AperFunction,Conductor*%
%TO.N,Net-(J2-Pin_1)*%
G36*
X132795634Y-81846779D02*
G01*
X132798015Y-81850217D01*
X133324361Y-83010118D01*
X133324659Y-83019068D01*
X133320217Y-83024675D01*
X132649010Y-83474140D01*
X132640229Y-83475895D01*
X132635990Y-83474140D01*
X131964782Y-83024675D01*
X131959815Y-83017224D01*
X131960637Y-83010120D01*
X132486985Y-81850217D01*
X132493524Y-81844100D01*
X132497639Y-81843352D01*
X132787361Y-81843352D01*
X132795634Y-81846779D01*
G37*
%TD.AperFunction*%
%TD*%
%TA.AperFunction,Conductor*%
%TO.N,Net-(J2-Pin_1)*%
G36*
X131129745Y-68724248D02*
G01*
X131133151Y-68729032D01*
X131868937Y-70654034D01*
X131868690Y-70662985D01*
X131866281Y-70666484D01*
X131661484Y-70871281D01*
X131653211Y-70874708D01*
X131649034Y-70873937D01*
X129724033Y-70138151D01*
X129717528Y-70131996D01*
X129716554Y-70126205D01*
X129828439Y-68844078D01*
X129832572Y-68836134D01*
X129839077Y-68833439D01*
X131121206Y-68721553D01*
X131129745Y-68724248D01*
G37*
%TD.AperFunction*%
%TD*%
%TA.AperFunction,Conductor*%
%TO.N,/MISO*%
G36*
X130910695Y-83320230D02*
G01*
X130915137Y-83325837D01*
X131363128Y-84518196D01*
X131362830Y-84527146D01*
X131360449Y-84530584D01*
X131155584Y-84735449D01*
X131147311Y-84738876D01*
X131143196Y-84738128D01*
X129950837Y-84290137D01*
X129944298Y-84284020D01*
X129943475Y-84276917D01*
X130100272Y-83484477D01*
X130105239Y-83477027D01*
X130109476Y-83475272D01*
X130901916Y-83318475D01*
X130910695Y-83320230D01*
G37*
%TD.AperFunction*%
%TD*%
%TA.AperFunction,Conductor*%
%TO.N,/MISO*%
G36*
X126117574Y-68713232D02*
G01*
X126121438Y-68719241D01*
X126554500Y-70339196D01*
X126553326Y-70348074D01*
X126551470Y-70350491D01*
X126345491Y-70556470D01*
X126337218Y-70559897D01*
X126334196Y-70559500D01*
X124714241Y-70126438D01*
X124707134Y-70120991D01*
X124705617Y-70114012D01*
X124828366Y-68843883D01*
X124832572Y-68835980D01*
X124838883Y-68833366D01*
X126109011Y-68710617D01*
X126117574Y-68713232D01*
G37*
%TD.AperFunction*%
%TD*%
%TA.AperFunction,Conductor*%
%TO.N,/MISO*%
G36*
X130255634Y-81846779D02*
G01*
X130258015Y-81850217D01*
X130784361Y-83010118D01*
X130784659Y-83019068D01*
X130780217Y-83024675D01*
X130109010Y-83474140D01*
X130100229Y-83475895D01*
X130095990Y-83474140D01*
X129424782Y-83024675D01*
X129419815Y-83017224D01*
X129420637Y-83010120D01*
X129946985Y-81850217D01*
X129953524Y-81844100D01*
X129957639Y-81843352D01*
X130247361Y-81843352D01*
X130255634Y-81846779D01*
G37*
%TD.AperFunction*%
%TD*%
%TA.AperFunction,Conductor*%
%TO.N,/MISO*%
G36*
X168033425Y-91317282D02*
G01*
X168482890Y-91988490D01*
X168484645Y-91997271D01*
X168482890Y-92001510D01*
X168033425Y-92672717D01*
X168025974Y-92677684D01*
X168018868Y-92676861D01*
X166858967Y-92150515D01*
X166852850Y-92143976D01*
X166852102Y-92139861D01*
X166852102Y-91850138D01*
X166855529Y-91841865D01*
X166858963Y-91839486D01*
X168018870Y-91313137D01*
X168027818Y-91312840D01*
X168033425Y-91317282D01*
G37*
%TD.AperFunction*%
%TD*%
%TA.AperFunction,Conductor*%
%TO.N,/HALL1_OUT*%
G36*
X101117574Y-68713232D02*
G01*
X101121438Y-68719241D01*
X101554500Y-70339196D01*
X101553326Y-70348074D01*
X101551470Y-70350491D01*
X101345491Y-70556470D01*
X101337218Y-70559897D01*
X101334196Y-70559500D01*
X99714241Y-70126438D01*
X99707134Y-70120991D01*
X99705617Y-70114012D01*
X99828366Y-68843883D01*
X99832572Y-68835980D01*
X99838883Y-68833366D01*
X101109011Y-68710617D01*
X101117574Y-68713232D01*
G37*
%TD.AperFunction*%
%TD*%
%TA.AperFunction,Conductor*%
%TO.N,/HALL1_OUT*%
G36*
X179563020Y-86337772D02*
G01*
X179570470Y-86342740D01*
X179572227Y-86346979D01*
X179724152Y-87114927D01*
X179722395Y-87123708D01*
X179716826Y-87128137D01*
X178564335Y-87565578D01*
X178555384Y-87565310D01*
X178551910Y-87562912D01*
X178347087Y-87358089D01*
X178343660Y-87349816D01*
X178344421Y-87345664D01*
X178432000Y-87114927D01*
X178781863Y-86193171D01*
X178788002Y-86186654D01*
X178795072Y-86185847D01*
X179563020Y-86337772D01*
G37*
%TD.AperFunction*%
%TD*%
%TA.AperFunction,Conductor*%
%TO.N,/HALL1_OUT*%
G36*
X182911114Y-68833365D02*
G01*
X182919019Y-68837572D01*
X182921634Y-68843886D01*
X183044382Y-70114010D01*
X183041767Y-70122574D01*
X183035758Y-70126438D01*
X181415803Y-70559500D01*
X181406925Y-70558326D01*
X181404508Y-70556470D01*
X181198529Y-70350491D01*
X181195102Y-70342218D01*
X181195498Y-70339199D01*
X181628562Y-68719239D01*
X181634008Y-68712134D01*
X181640987Y-68710617D01*
X182911114Y-68833365D01*
G37*
%TD.AperFunction*%
%TD*%
%TA.AperFunction,Conductor*%
%TO.N,/HALL1_OUT*%
G36*
X118210695Y-83320230D02*
G01*
X118215137Y-83325837D01*
X118663128Y-84518196D01*
X118662830Y-84527146D01*
X118660449Y-84530584D01*
X118455584Y-84735449D01*
X118447311Y-84738876D01*
X118443196Y-84738128D01*
X117250837Y-84290137D01*
X117244298Y-84284020D01*
X117243475Y-84276917D01*
X117400272Y-83484477D01*
X117405239Y-83477027D01*
X117409476Y-83475272D01*
X118201916Y-83318475D01*
X118210695Y-83320230D01*
G37*
%TD.AperFunction*%
%TD*%
%TA.AperFunction,Conductor*%
%TO.N,/HALL1_OUT*%
G36*
X116361800Y-82216870D02*
G01*
X117554162Y-82664862D01*
X117560701Y-82670979D01*
X117561524Y-82678085D01*
X117404727Y-83470521D01*
X117399760Y-83477972D01*
X117395521Y-83479727D01*
X116603085Y-83636524D01*
X116594304Y-83634769D01*
X116589862Y-83629162D01*
X116533717Y-83479727D01*
X116141871Y-82436801D01*
X116142169Y-82427853D01*
X116144547Y-82424418D01*
X116349416Y-82219549D01*
X116357688Y-82216123D01*
X116361800Y-82216870D01*
G37*
%TD.AperFunction*%
%TD*%
%TA.AperFunction,Conductor*%
%TO.N,/HALL1_OUT*%
G36*
X179723106Y-84758799D02*
G01*
X179725504Y-84762273D01*
X180231120Y-85886526D01*
X180231388Y-85895477D01*
X180226959Y-85901046D01*
X179576510Y-86336640D01*
X179567729Y-86338397D01*
X179563490Y-86336640D01*
X178913040Y-85901046D01*
X178908072Y-85893596D01*
X178908878Y-85886528D01*
X179414496Y-84762272D01*
X179421015Y-84756133D01*
X179425167Y-84755372D01*
X179714833Y-84755372D01*
X179723106Y-84758799D01*
G37*
%TD.AperFunction*%
%TD*%
%TA.AperFunction,Conductor*%
%TO.N,/MOSI*%
G36*
X121117574Y-68713232D02*
G01*
X121121438Y-68719241D01*
X121554500Y-70339196D01*
X121553326Y-70348074D01*
X121551470Y-70350491D01*
X121345491Y-70556470D01*
X121337218Y-70559897D01*
X121334196Y-70559500D01*
X119714241Y-70126438D01*
X119707134Y-70120991D01*
X119705617Y-70114012D01*
X119828366Y-68843883D01*
X119832572Y-68835980D01*
X119838883Y-68833366D01*
X121109011Y-68710617D01*
X121117574Y-68713232D01*
G37*
%TD.AperFunction*%
%TD*%
%TA.AperFunction,Conductor*%
%TO.N,/MOSI*%
G36*
X168033425Y-93857282D02*
G01*
X168482890Y-94528490D01*
X168484645Y-94537271D01*
X168482890Y-94541510D01*
X168033425Y-95212717D01*
X168025974Y-95217684D01*
X168018868Y-95216861D01*
X166858967Y-94690515D01*
X166852850Y-94683976D01*
X166852102Y-94679861D01*
X166852102Y-94390138D01*
X166855529Y-94381865D01*
X166858963Y-94379486D01*
X168018870Y-93853137D01*
X168027818Y-93852840D01*
X168033425Y-93857282D01*
G37*
%TD.AperFunction*%
%TD*%
%TA.AperFunction,Conductor*%
%TO.N,/MOSI*%
G36*
X128370695Y-83320230D02*
G01*
X128375137Y-83325837D01*
X128823128Y-84518196D01*
X128822830Y-84527146D01*
X128820449Y-84530584D01*
X128615584Y-84735449D01*
X128607311Y-84738876D01*
X128603196Y-84738128D01*
X127410837Y-84290137D01*
X127404298Y-84284020D01*
X127403475Y-84276917D01*
X127560272Y-83484477D01*
X127565239Y-83477027D01*
X127569476Y-83475272D01*
X128361916Y-83318475D01*
X128370695Y-83320230D01*
G37*
%TD.AperFunction*%
%TD*%
%TA.AperFunction,Conductor*%
%TO.N,/MOSI*%
G36*
X127715634Y-81846779D02*
G01*
X127718015Y-81850217D01*
X128244361Y-83010118D01*
X128244659Y-83019068D01*
X128240217Y-83024675D01*
X127569010Y-83474140D01*
X127560229Y-83475895D01*
X127555990Y-83474140D01*
X126884782Y-83024675D01*
X126879815Y-83017224D01*
X126880637Y-83010120D01*
X127406985Y-81850217D01*
X127413524Y-81844100D01*
X127417639Y-81843352D01*
X127707361Y-81843352D01*
X127715634Y-81846779D01*
G37*
%TD.AperFunction*%
%TD*%
%TA.AperFunction,Conductor*%
%TO.N,/DHT_OUT*%
G36*
X111869675Y-105819782D02*
G01*
X112319140Y-106490990D01*
X112320895Y-106499771D01*
X112319140Y-106504010D01*
X111869675Y-107175217D01*
X111862224Y-107180184D01*
X111855118Y-107179361D01*
X110695217Y-106653015D01*
X110689100Y-106646476D01*
X110688352Y-106642361D01*
X110688352Y-106352638D01*
X110691779Y-106344365D01*
X110695213Y-106341986D01*
X111855120Y-105815637D01*
X111864068Y-105815340D01*
X111869675Y-105819782D01*
G37*
%TD.AperFunction*%
%TD*%
%TA.AperFunction,Conductor*%
%TO.N,/DHT_OUT*%
G36*
X189723020Y-94442772D02*
G01*
X189730470Y-94447740D01*
X189732227Y-94451979D01*
X189884152Y-95219927D01*
X189882395Y-95228708D01*
X189876826Y-95233137D01*
X188724335Y-95670578D01*
X188715384Y-95670310D01*
X188711910Y-95667912D01*
X188507087Y-95463089D01*
X188503660Y-95454816D01*
X188504421Y-95450664D01*
X188592000Y-95219927D01*
X188941863Y-94298171D01*
X188948002Y-94291654D01*
X188955072Y-94290847D01*
X189723020Y-94442772D01*
G37*
%TD.AperFunction*%
%TD*%
%TA.AperFunction,Conductor*%
%TO.N,/DHT_OUT*%
G36*
X91657985Y-118126309D02*
G01*
X91661484Y-118128718D01*
X91866281Y-118333515D01*
X91869708Y-118341788D01*
X91868937Y-118345965D01*
X91133151Y-120270966D01*
X91126996Y-120277471D01*
X91121205Y-120278445D01*
X89839078Y-120166560D01*
X89831134Y-120162427D01*
X89828439Y-120155921D01*
X89716554Y-118873794D01*
X89719249Y-118865254D01*
X89724033Y-118861848D01*
X91073713Y-118345965D01*
X91649035Y-118126062D01*
X91657985Y-118126309D01*
G37*
%TD.AperFunction*%
%TD*%
%TA.AperFunction,Conductor*%
%TO.N,/DHT_OUT*%
G36*
X113372146Y-105237169D02*
G01*
X113375584Y-105239550D01*
X113580449Y-105444415D01*
X113583876Y-105452688D01*
X113583128Y-105456803D01*
X113135137Y-106649162D01*
X113129020Y-106655701D01*
X113121914Y-106656524D01*
X112329478Y-106499727D01*
X112322027Y-106494760D01*
X112320272Y-106490521D01*
X112163475Y-105698082D01*
X112165230Y-105689304D01*
X112170835Y-105684863D01*
X113363198Y-105236871D01*
X113372146Y-105237169D01*
G37*
%TD.AperFunction*%
%TD*%
%TA.AperFunction,Conductor*%
%TO.N,/DHT_OUT*%
G36*
X190183472Y-93783878D02*
G01*
X191307727Y-94289496D01*
X191313867Y-94296015D01*
X191314628Y-94300167D01*
X191314628Y-94589832D01*
X191311201Y-94598105D01*
X191307727Y-94600503D01*
X190183473Y-95106120D01*
X190174522Y-95106388D01*
X190168953Y-95101959D01*
X189833137Y-94600503D01*
X189733358Y-94451508D01*
X189731602Y-94442729D01*
X189733357Y-94438492D01*
X190168954Y-93788038D01*
X190176403Y-93783072D01*
X190183472Y-93783878D01*
G37*
%TD.AperFunction*%
%TD*%
%TA.AperFunction,Conductor*%
%TO.N,/DHT_OUT*%
G36*
X205235965Y-97461062D02*
G01*
X207160966Y-98196848D01*
X207167471Y-98203003D01*
X207168445Y-98208794D01*
X207056560Y-99490921D01*
X207052427Y-99498865D01*
X207045921Y-99501560D01*
X205763794Y-99613445D01*
X205755254Y-99610750D01*
X205751848Y-99605966D01*
X205016062Y-97680965D01*
X205016309Y-97672014D01*
X205018715Y-97668518D01*
X205223516Y-97463717D01*
X205231788Y-97460291D01*
X205235965Y-97461062D01*
G37*
%TD.AperFunction*%
%TD*%
%TA.AperFunction,Conductor*%
%TO.N,Net-(J3-Pin_2)*%
G36*
X96343074Y-118441673D02*
G01*
X96345491Y-118443529D01*
X96551470Y-118649508D01*
X96554897Y-118657781D01*
X96554500Y-118660803D01*
X96121438Y-120280758D01*
X96115991Y-120287865D01*
X96109010Y-120289382D01*
X94838886Y-120166634D01*
X94830980Y-120162427D01*
X94828366Y-120156115D01*
X94705617Y-118885987D01*
X94708232Y-118877425D01*
X94714238Y-118873562D01*
X96334197Y-118440499D01*
X96343074Y-118441673D01*
G37*
%TD.AperFunction*%
%TD*%
%TA.AperFunction,Conductor*%
%TO.N,Net-(J3-Pin_2)*%
G36*
X114855521Y-106495272D02*
G01*
X114862972Y-106500239D01*
X114864727Y-106504478D01*
X115021524Y-107296914D01*
X115019769Y-107305695D01*
X115014162Y-107310137D01*
X113821803Y-107758128D01*
X113812853Y-107757830D01*
X113809415Y-107755449D01*
X113604550Y-107550584D01*
X113601123Y-107542311D01*
X113601870Y-107538200D01*
X114049863Y-106345835D01*
X114055979Y-106339298D01*
X114063082Y-106338475D01*
X114855521Y-106495272D01*
G37*
%TD.AperFunction*%
%TD*%
%TA.AperFunction,Conductor*%
%TO.N,Net-(J3-Pin_6)*%
G36*
X125029010Y-106500859D02*
G01*
X125700217Y-106950324D01*
X125705184Y-106957775D01*
X125704361Y-106964881D01*
X125178015Y-108124783D01*
X125171476Y-108130900D01*
X125167361Y-108131648D01*
X124877639Y-108131648D01*
X124869366Y-108128221D01*
X124866985Y-108124783D01*
X124340638Y-106964881D01*
X124340340Y-106955931D01*
X124344781Y-106950325D01*
X125015990Y-106500858D01*
X125024771Y-106499104D01*
X125029010Y-106500859D01*
G37*
%TD.AperFunction*%
%TD*%
%TA.AperFunction,Conductor*%
%TO.N,Net-(J3-Pin_6)*%
G36*
X116343074Y-118441673D02*
G01*
X116345491Y-118443529D01*
X116551470Y-118649508D01*
X116554897Y-118657781D01*
X116554500Y-118660803D01*
X116121438Y-120280758D01*
X116115991Y-120287865D01*
X116109010Y-120289382D01*
X114838886Y-120166634D01*
X114830980Y-120162427D01*
X114828366Y-120156115D01*
X114705617Y-118885987D01*
X114708232Y-118877425D01*
X114714238Y-118873562D01*
X116334197Y-118440499D01*
X116343074Y-118441673D01*
G37*
%TD.AperFunction*%
%TD*%
%TA.AperFunction,Conductor*%
%TO.N,/SDA*%
G36*
X105372722Y-118983278D02*
G01*
X106761386Y-119459647D01*
X106765863Y-119462441D01*
X106971676Y-119668254D01*
X106975103Y-119676527D01*
X106972151Y-119684296D01*
X105903397Y-120887721D01*
X105895341Y-120891632D01*
X105888045Y-120889610D01*
X105696670Y-120758760D01*
X104837249Y-120171147D01*
X104832355Y-120163650D01*
X104833110Y-120156858D01*
X105339433Y-118983277D01*
X105345857Y-118977039D01*
X105353972Y-118976846D01*
X105372722Y-118983278D01*
G37*
%TD.AperFunction*%
%TD*%
%TA.AperFunction,Conductor*%
%TO.N,/SDA*%
G36*
X191748021Y-123957772D02*
G01*
X191755472Y-123962739D01*
X191757227Y-123966978D01*
X191914024Y-124759414D01*
X191912269Y-124768195D01*
X191906662Y-124772637D01*
X190714303Y-125220628D01*
X190705353Y-125220330D01*
X190701915Y-125217949D01*
X190497050Y-125013084D01*
X190493623Y-125004811D01*
X190494370Y-125000700D01*
X190942363Y-123808335D01*
X190948479Y-123801798D01*
X190955582Y-123800975D01*
X191748021Y-123957772D01*
G37*
%TD.AperFunction*%
%TD*%
%TA.AperFunction,Conductor*%
%TO.N,/SDA*%
G36*
X189736507Y-98443357D02*
G01*
X190386959Y-98878953D01*
X190391927Y-98886403D01*
X190391120Y-98893473D01*
X189885504Y-100017727D01*
X189878985Y-100023867D01*
X189874833Y-100024628D01*
X189585167Y-100024628D01*
X189576894Y-100021201D01*
X189574496Y-100017727D01*
X189068879Y-98893473D01*
X189068611Y-98884522D01*
X189073038Y-98878954D01*
X189723491Y-98443358D01*
X189732271Y-98441602D01*
X189736507Y-98443357D01*
G37*
%TD.AperFunction*%
%TD*%
%TA.AperFunction,Conductor*%
%TO.N,/SDA*%
G36*
X190513708Y-98287604D02*
G01*
X190518137Y-98293173D01*
X190955578Y-99445664D01*
X190955310Y-99454615D01*
X190952912Y-99458089D01*
X190748089Y-99662912D01*
X190739816Y-99666339D01*
X190735664Y-99665578D01*
X189583173Y-99228137D01*
X189576654Y-99221997D01*
X189575847Y-99214927D01*
X189727772Y-98446979D01*
X189732740Y-98439529D01*
X189736976Y-98437772D01*
X190504927Y-98285847D01*
X190513708Y-98287604D01*
G37*
%TD.AperFunction*%
%TD*%
%TA.AperFunction,Conductor*%
%TO.N,/SDA*%
G36*
X208342574Y-117378232D02*
G01*
X208346438Y-117384241D01*
X208779500Y-119004196D01*
X208778326Y-119013074D01*
X208776470Y-119015491D01*
X208570491Y-119221470D01*
X208562218Y-119224897D01*
X208559196Y-119224500D01*
X206939241Y-118791438D01*
X206932134Y-118785991D01*
X206930617Y-118779012D01*
X207053366Y-117508883D01*
X207057572Y-117500980D01*
X207063883Y-117498366D01*
X208334011Y-117375617D01*
X208342574Y-117378232D01*
G37*
%TD.AperFunction*%
%TD*%
%TA.AperFunction,Conductor*%
%TO.N,/SDA*%
G36*
X191908134Y-122329279D02*
G01*
X191910515Y-122332717D01*
X192436861Y-123492618D01*
X192437159Y-123501568D01*
X192432717Y-123507175D01*
X191761510Y-123956640D01*
X191752729Y-123958395D01*
X191748490Y-123956640D01*
X191077282Y-123507175D01*
X191072315Y-123499724D01*
X191073137Y-123492620D01*
X191599485Y-122332717D01*
X191606024Y-122326600D01*
X191610139Y-122325852D01*
X191899861Y-122325852D01*
X191908134Y-122329279D01*
G37*
%TD.AperFunction*%
%TD*%
%TA.AperFunction,Conductor*%
%TO.N,/SDA*%
G36*
X119935521Y-106495272D02*
G01*
X119942972Y-106500239D01*
X119944727Y-106504478D01*
X120101524Y-107296914D01*
X120099769Y-107305695D01*
X120094162Y-107310137D01*
X118901803Y-107758128D01*
X118892853Y-107757830D01*
X118889415Y-107755449D01*
X118684550Y-107550584D01*
X118681123Y-107542311D01*
X118681870Y-107538200D01*
X119129863Y-106345835D01*
X119135979Y-106339298D01*
X119143082Y-106338475D01*
X119935521Y-106495272D01*
G37*
%TD.AperFunction*%
%TD*%
%TA.AperFunction,Conductor*%
%TO.N,/SDA*%
G36*
X120992146Y-105237169D02*
G01*
X120995584Y-105239550D01*
X121200449Y-105444415D01*
X121203876Y-105452688D01*
X121203128Y-105456803D01*
X120755137Y-106649162D01*
X120749020Y-106655701D01*
X120741914Y-106656524D01*
X119949478Y-106499727D01*
X119942027Y-106494760D01*
X119940272Y-106490521D01*
X119783475Y-105698082D01*
X119785230Y-105689304D01*
X119790835Y-105684863D01*
X120983198Y-105236871D01*
X120992146Y-105237169D01*
G37*
%TD.AperFunction*%
%TD*%
%TA.AperFunction,Conductor*%
%TO.N,Net-(J3-Pin_7)*%
G36*
X121343074Y-118441673D02*
G01*
X121345491Y-118443529D01*
X121551470Y-118649508D01*
X121554897Y-118657781D01*
X121554500Y-118660803D01*
X121121438Y-120280758D01*
X121115991Y-120287865D01*
X121109010Y-120289382D01*
X119838886Y-120166634D01*
X119830980Y-120162427D01*
X119828366Y-120156115D01*
X119705617Y-118885987D01*
X119708232Y-118877425D01*
X119714238Y-118873562D01*
X121334197Y-118440499D01*
X121343074Y-118441673D01*
G37*
%TD.AperFunction*%
%TD*%
%TA.AperFunction,Conductor*%
%TO.N,Net-(J3-Pin_7)*%
G36*
X127569010Y-106500859D02*
G01*
X128240217Y-106950324D01*
X128245184Y-106957775D01*
X128244361Y-106964881D01*
X127718015Y-108124783D01*
X127711476Y-108130900D01*
X127707361Y-108131648D01*
X127417639Y-108131648D01*
X127409366Y-108128221D01*
X127406985Y-108124783D01*
X126880638Y-106964881D01*
X126880340Y-106955931D01*
X126884781Y-106950325D01*
X127555990Y-106500858D01*
X127564771Y-106499104D01*
X127569010Y-106500859D01*
G37*
%TD.AperFunction*%
%TD*%
%TA.AperFunction,Conductor*%
%TO.N,Net-(J3-Pin_5)*%
G36*
X111343074Y-118441673D02*
G01*
X111345491Y-118443529D01*
X111551470Y-118649508D01*
X111554897Y-118657781D01*
X111554500Y-118660803D01*
X111121438Y-120280758D01*
X111115991Y-120287865D01*
X111109010Y-120289382D01*
X109838886Y-120166634D01*
X109830980Y-120162427D01*
X109828366Y-120156115D01*
X109705617Y-118885987D01*
X109708232Y-118877425D01*
X109714238Y-118873562D01*
X111334197Y-118440499D01*
X111343074Y-118441673D01*
G37*
%TD.AperFunction*%
%TD*%
%TA.AperFunction,Conductor*%
%TO.N,Net-(J3-Pin_5)*%
G36*
X122487223Y-106499483D02*
G01*
X122728783Y-106661304D01*
X123157110Y-106948240D01*
X123162076Y-106955691D01*
X123160318Y-106964472D01*
X123159201Y-106965890D01*
X122160719Y-108049106D01*
X122152592Y-108052866D01*
X122144186Y-108049779D01*
X122143843Y-108049449D01*
X121939341Y-107844947D01*
X121936194Y-107839216D01*
X121739553Y-106955845D01*
X121675950Y-106670122D01*
X121677497Y-106661304D01*
X121684828Y-106656162D01*
X121685015Y-106656121D01*
X122478444Y-106497743D01*
X122487223Y-106499483D01*
G37*
%TD.AperFunction*%
%TD*%
%TA.AperFunction,Conductor*%
%TO.N,/SCL*%
G36*
X101343074Y-118441673D02*
G01*
X101345491Y-118443529D01*
X101551470Y-118649508D01*
X101554897Y-118657781D01*
X101554500Y-118660803D01*
X101121438Y-120280758D01*
X101115991Y-120287865D01*
X101109010Y-120289382D01*
X99838886Y-120166634D01*
X99830980Y-120162427D01*
X99828366Y-120156115D01*
X99705617Y-118885987D01*
X99708232Y-118877425D01*
X99714238Y-118873562D01*
X101334197Y-118440499D01*
X101343074Y-118441673D01*
G37*
%TD.AperFunction*%
%TD*%
%TA.AperFunction,Conductor*%
%TO.N,/SCL*%
G36*
X188724335Y-101264421D02*
G01*
X189168924Y-101433169D01*
X189876827Y-101701862D01*
X189883345Y-101708002D01*
X189884152Y-101715072D01*
X189732227Y-102483020D01*
X189727259Y-102490470D01*
X189723020Y-102492227D01*
X188955072Y-102644152D01*
X188946291Y-102642395D01*
X188941863Y-102636827D01*
X188504421Y-101484335D01*
X188504689Y-101475384D01*
X188507084Y-101471913D01*
X188711911Y-101267086D01*
X188720183Y-101263660D01*
X188724335Y-101264421D01*
G37*
%TD.AperFunction*%
%TD*%
%TA.AperFunction,Conductor*%
%TO.N,/SCL*%
G36*
X188174300Y-122699370D02*
G01*
X189366662Y-123147362D01*
X189373201Y-123153479D01*
X189374024Y-123160585D01*
X189217227Y-123953021D01*
X189212260Y-123960472D01*
X189208021Y-123962227D01*
X188415585Y-124119024D01*
X188406804Y-124117269D01*
X188402362Y-124111662D01*
X188346217Y-123962227D01*
X187954371Y-122919301D01*
X187954669Y-122910353D01*
X187957047Y-122906918D01*
X188161916Y-122702049D01*
X188170188Y-122698623D01*
X188174300Y-122699370D01*
G37*
%TD.AperFunction*%
%TD*%
%TA.AperFunction,Conductor*%
%TO.N,/SCL*%
G36*
X189880186Y-122509120D02*
G01*
X189883543Y-122516118D01*
X190022981Y-123788404D01*
X190020476Y-123797002D01*
X190013647Y-123801151D01*
X189222681Y-123959462D01*
X189213896Y-123957726D01*
X189210652Y-123954484D01*
X189108347Y-123801151D01*
X188762161Y-123282291D01*
X188760421Y-123273508D01*
X188763898Y-123267258D01*
X189566461Y-122516118D01*
X189574226Y-122508851D01*
X189582221Y-122505693D01*
X189871913Y-122505693D01*
X189880186Y-122509120D01*
G37*
%TD.AperFunction*%
%TD*%
%TA.AperFunction,Conductor*%
%TO.N,/SCL*%
G36*
X189736507Y-102493357D02*
G01*
X190386959Y-102928953D01*
X190391927Y-102936403D01*
X190391120Y-102943473D01*
X189885504Y-104067727D01*
X189878985Y-104073867D01*
X189874833Y-104074628D01*
X189585167Y-104074628D01*
X189576894Y-104071201D01*
X189574496Y-104067727D01*
X189068879Y-102943473D01*
X189068611Y-102934522D01*
X189073038Y-102928954D01*
X189723491Y-102493358D01*
X189732271Y-102491602D01*
X189736507Y-102493357D01*
G37*
%TD.AperFunction*%
%TD*%
%TA.AperFunction,Conductor*%
%TO.N,/SCL*%
G36*
X205235965Y-120461062D02*
G01*
X207160966Y-121196848D01*
X207167471Y-121203003D01*
X207168445Y-121208794D01*
X207056560Y-122490921D01*
X207052427Y-122498865D01*
X207045921Y-122501560D01*
X205763794Y-122613445D01*
X205755254Y-122610750D01*
X205751848Y-122605966D01*
X205016062Y-120680965D01*
X205016309Y-120672014D01*
X205018715Y-120668518D01*
X205223516Y-120463717D01*
X205231788Y-120460291D01*
X205235965Y-120461062D01*
G37*
%TD.AperFunction*%
%TD*%
%TA.AperFunction,Conductor*%
%TO.N,/SCL*%
G36*
X118452146Y-105237169D02*
G01*
X118455584Y-105239550D01*
X118660449Y-105444415D01*
X118663876Y-105452688D01*
X118663128Y-105456803D01*
X118215137Y-106649162D01*
X118209020Y-106655701D01*
X118201914Y-106656524D01*
X117409478Y-106499727D01*
X117402027Y-106494760D01*
X117400272Y-106490521D01*
X117243475Y-105698082D01*
X117245230Y-105689304D01*
X117250835Y-105684863D01*
X118443198Y-105236871D01*
X118452146Y-105237169D01*
G37*
%TD.AperFunction*%
%TD*%
%TA.AperFunction,Conductor*%
%TO.N,/SCL*%
G36*
X117395521Y-106495272D02*
G01*
X117402972Y-106500239D01*
X117404727Y-106504478D01*
X117561524Y-107296914D01*
X117559769Y-107305695D01*
X117554162Y-107310137D01*
X116361803Y-107758128D01*
X116352853Y-107757830D01*
X116349415Y-107755449D01*
X116144550Y-107550584D01*
X116141123Y-107542311D01*
X116141870Y-107538200D01*
X116589863Y-106345835D01*
X116595979Y-106339298D01*
X116603082Y-106338475D01*
X117395521Y-106495272D01*
G37*
%TD.AperFunction*%
%TD*%
%TA.AperFunction,Conductor*%
%TO.N,Net-(J3-Pin_8)*%
G36*
X126343074Y-118441673D02*
G01*
X126345491Y-118443529D01*
X126551470Y-118649508D01*
X126554897Y-118657781D01*
X126554500Y-118660803D01*
X126121438Y-120280758D01*
X126115991Y-120287865D01*
X126109010Y-120289382D01*
X124838886Y-120166634D01*
X124830980Y-120162427D01*
X124828366Y-120156115D01*
X124705617Y-118885987D01*
X124708232Y-118877425D01*
X124714238Y-118873562D01*
X126334197Y-118440499D01*
X126343074Y-118441673D01*
G37*
%TD.AperFunction*%
%TD*%
%TA.AperFunction,Conductor*%
%TO.N,Net-(J3-Pin_8)*%
G36*
X130109010Y-106500859D02*
G01*
X130780217Y-106950324D01*
X130785184Y-106957775D01*
X130784361Y-106964881D01*
X130258015Y-108124783D01*
X130251476Y-108130900D01*
X130247361Y-108131648D01*
X129957639Y-108131648D01*
X129949366Y-108128221D01*
X129946985Y-108124783D01*
X129420638Y-106964881D01*
X129420340Y-106955931D01*
X129424781Y-106950325D01*
X130095990Y-106500858D01*
X130104771Y-106499104D01*
X130109010Y-106500859D01*
G37*
%TD.AperFunction*%
%TD*%
%TA.AperFunction,Conductor*%
%TO.N,Net-(J4-Pin_6)*%
G36*
X148689838Y-106340400D02*
G01*
X148694586Y-106346938D01*
X149056412Y-107626149D01*
X149055367Y-107635042D01*
X149053427Y-107637606D01*
X148848558Y-107842475D01*
X148840285Y-107845902D01*
X148835320Y-107844796D01*
X147436466Y-107189231D01*
X147430429Y-107182618D01*
X147430837Y-107173672D01*
X147431695Y-107172148D01*
X147879098Y-106500835D01*
X147886536Y-106495854D01*
X148681058Y-106338645D01*
X148689838Y-106340400D01*
G37*
%TD.AperFunction*%
%TD*%
%TA.AperFunction,Conductor*%
%TO.N,Net-(J4-Pin_6)*%
G36*
X159870801Y-118440498D02*
G01*
X161490759Y-118873561D01*
X161497865Y-118879008D01*
X161499382Y-118885989D01*
X161376634Y-120156113D01*
X161372427Y-120164019D01*
X161366113Y-120166634D01*
X160095989Y-120289382D01*
X160087425Y-120286767D01*
X160083561Y-120280759D01*
X159650499Y-118660802D01*
X159651673Y-118651925D01*
X159653525Y-118649512D01*
X159859509Y-118443528D01*
X159867781Y-118440102D01*
X159870801Y-118440498D01*
G37*
%TD.AperFunction*%
%TD*%
%TA.AperFunction,Conductor*%
%TO.N,Net-(J4-Pin_4)*%
G36*
X149870801Y-118440498D02*
G01*
X151490759Y-118873561D01*
X151497865Y-118879008D01*
X151499382Y-118885989D01*
X151376634Y-120156113D01*
X151372427Y-120164019D01*
X151366113Y-120166634D01*
X150095989Y-120289382D01*
X150087425Y-120286767D01*
X150083561Y-120280759D01*
X149650499Y-118660802D01*
X149651673Y-118651925D01*
X149653525Y-118649512D01*
X149859509Y-118443528D01*
X149867781Y-118440102D01*
X149870801Y-118440498D01*
G37*
%TD.AperFunction*%
%TD*%
%TA.AperFunction,Conductor*%
%TO.N,Net-(J4-Pin_4)*%
G36*
X142809010Y-106500859D02*
G01*
X143480217Y-106950324D01*
X143485184Y-106957775D01*
X143484361Y-106964881D01*
X142958015Y-108124783D01*
X142951476Y-108130900D01*
X142947361Y-108131648D01*
X142657639Y-108131648D01*
X142649366Y-108128221D01*
X142646985Y-108124783D01*
X142120638Y-106964881D01*
X142120340Y-106955931D01*
X142124781Y-106950325D01*
X142795990Y-106500858D01*
X142804771Y-106499104D01*
X142809010Y-106500859D01*
G37*
%TD.AperFunction*%
%TD*%
%TA.AperFunction,Conductor*%
%TO.N,Net-(J4-Pin_2)*%
G36*
X137729010Y-106500859D02*
G01*
X138400217Y-106950324D01*
X138405184Y-106957775D01*
X138404361Y-106964881D01*
X137878015Y-108124783D01*
X137871476Y-108130900D01*
X137867361Y-108131648D01*
X137577639Y-108131648D01*
X137569366Y-108128221D01*
X137566985Y-108124783D01*
X137040638Y-106964881D01*
X137040340Y-106955931D01*
X137044781Y-106950325D01*
X137715990Y-106500858D01*
X137724771Y-106499104D01*
X137729010Y-106500859D01*
G37*
%TD.AperFunction*%
%TD*%
%TA.AperFunction,Conductor*%
%TO.N,Net-(J4-Pin_2)*%
G36*
X139870801Y-118440498D02*
G01*
X141490759Y-118873561D01*
X141497865Y-118879008D01*
X141499382Y-118885989D01*
X141376634Y-120156113D01*
X141372427Y-120164019D01*
X141366113Y-120166634D01*
X140095989Y-120289382D01*
X140087425Y-120286767D01*
X140083561Y-120280759D01*
X139650499Y-118660802D01*
X139651673Y-118651925D01*
X139653525Y-118649512D01*
X139859509Y-118443528D01*
X139867781Y-118440102D01*
X139870801Y-118440498D01*
G37*
%TD.AperFunction*%
%TD*%
%TA.AperFunction,Conductor*%
%TO.N,Net-(J4-Pin_3)*%
G36*
X144870801Y-118440498D02*
G01*
X146490759Y-118873561D01*
X146497865Y-118879008D01*
X146499382Y-118885989D01*
X146376634Y-120156113D01*
X146372427Y-120164019D01*
X146366113Y-120166634D01*
X145095989Y-120289382D01*
X145087425Y-120286767D01*
X145083561Y-120280759D01*
X144650499Y-118660802D01*
X144651673Y-118651925D01*
X144653525Y-118649512D01*
X144859509Y-118443528D01*
X144867781Y-118440102D01*
X144870801Y-118440498D01*
G37*
%TD.AperFunction*%
%TD*%
%TA.AperFunction,Conductor*%
%TO.N,Net-(J4-Pin_3)*%
G36*
X140269010Y-106500859D02*
G01*
X140940217Y-106950324D01*
X140945184Y-106957775D01*
X140944361Y-106964881D01*
X140418015Y-108124783D01*
X140411476Y-108130900D01*
X140407361Y-108131648D01*
X140117639Y-108131648D01*
X140109366Y-108128221D01*
X140106985Y-108124783D01*
X139580638Y-106964881D01*
X139580340Y-106955931D01*
X139584781Y-106950325D01*
X140255990Y-106500858D01*
X140264771Y-106499104D01*
X140269010Y-106500859D01*
G37*
%TD.AperFunction*%
%TD*%
%TA.AperFunction,Conductor*%
%TO.N,Net-(J4-Pin_8)*%
G36*
X153770695Y-106340230D02*
G01*
X153775137Y-106345837D01*
X154223128Y-107538196D01*
X154222830Y-107547146D01*
X154220449Y-107550584D01*
X154015584Y-107755449D01*
X154007311Y-107758876D01*
X154003196Y-107758128D01*
X152810837Y-107310137D01*
X152804298Y-107304020D01*
X152803475Y-107296917D01*
X152960272Y-106504477D01*
X152965239Y-106497027D01*
X152969476Y-106495272D01*
X153761916Y-106338475D01*
X153770695Y-106340230D01*
G37*
%TD.AperFunction*%
%TD*%
%TA.AperFunction,Conductor*%
%TO.N,Net-(J4-Pin_8)*%
G36*
X169870801Y-118440498D02*
G01*
X171490759Y-118873561D01*
X171497865Y-118879008D01*
X171499382Y-118885989D01*
X171376634Y-120156113D01*
X171372427Y-120164019D01*
X171366113Y-120166634D01*
X170095989Y-120289382D01*
X170087425Y-120286767D01*
X170083561Y-120280759D01*
X169650499Y-118660802D01*
X169651673Y-118651925D01*
X169653525Y-118649512D01*
X169859509Y-118443528D01*
X169867781Y-118440102D01*
X169870801Y-118440498D01*
G37*
%TD.AperFunction*%
%TD*%
%TA.AperFunction,Conductor*%
%TO.N,Net-(J4-Pin_1)*%
G36*
X135337433Y-118120019D02*
G01*
X136765805Y-118860508D01*
X136771573Y-118867358D01*
X136771605Y-118874329D01*
X136378071Y-120155998D01*
X136372366Y-120162901D01*
X136364719Y-120164062D01*
X135084293Y-119922713D01*
X135076798Y-119917813D01*
X135074764Y-119911506D01*
X135030399Y-118130697D01*
X135033618Y-118122341D01*
X135041804Y-118118710D01*
X135042095Y-118118706D01*
X135332048Y-118118706D01*
X135337433Y-118120019D01*
G37*
%TD.AperFunction*%
%TD*%
%TA.AperFunction,Conductor*%
%TO.N,Net-(J4-Pin_1)*%
G36*
X135189010Y-106500859D02*
G01*
X135860217Y-106950324D01*
X135865184Y-106957775D01*
X135864361Y-106964881D01*
X135338015Y-108124783D01*
X135331476Y-108130900D01*
X135327361Y-108131648D01*
X135037639Y-108131648D01*
X135029366Y-108128221D01*
X135026985Y-108124783D01*
X134500638Y-106964881D01*
X134500340Y-106955931D01*
X134504781Y-106950325D01*
X135175990Y-106500858D01*
X135184771Y-106499104D01*
X135189010Y-106500859D01*
G37*
%TD.AperFunction*%
%TD*%
%TA.AperFunction,Conductor*%
%TO.N,Net-(J4-Pin_7)*%
G36*
X164870801Y-118440498D02*
G01*
X166490759Y-118873561D01*
X166497865Y-118879008D01*
X166499382Y-118885989D01*
X166376634Y-120156113D01*
X166372427Y-120164019D01*
X166366113Y-120166634D01*
X165095989Y-120289382D01*
X165087425Y-120286767D01*
X165083561Y-120280759D01*
X164650499Y-118660802D01*
X164651673Y-118651925D01*
X164653525Y-118649512D01*
X164859509Y-118443528D01*
X164867781Y-118440102D01*
X164870801Y-118440498D01*
G37*
%TD.AperFunction*%
%TD*%
%TA.AperFunction,Conductor*%
%TO.N,Net-(J4-Pin_7)*%
G36*
X151230695Y-106340230D02*
G01*
X151235137Y-106345837D01*
X151683128Y-107538196D01*
X151682830Y-107547146D01*
X151680449Y-107550584D01*
X151475584Y-107755449D01*
X151467311Y-107758876D01*
X151463196Y-107758128D01*
X150270837Y-107310137D01*
X150264298Y-107304020D01*
X150263475Y-107296917D01*
X150420272Y-106504477D01*
X150425239Y-106497027D01*
X150429476Y-106495272D01*
X151221916Y-106338475D01*
X151230695Y-106340230D01*
G37*
%TD.AperFunction*%
%TD*%
%TA.AperFunction,Conductor*%
%TO.N,Net-(J4-Pin_9)*%
G36*
X174870801Y-118440498D02*
G01*
X176490759Y-118873561D01*
X176497865Y-118879008D01*
X176499382Y-118885989D01*
X176376634Y-120156113D01*
X176372427Y-120164019D01*
X176366113Y-120166634D01*
X175095989Y-120289382D01*
X175087425Y-120286767D01*
X175083561Y-120280759D01*
X174650499Y-118660802D01*
X174651673Y-118651925D01*
X174653525Y-118649512D01*
X174859509Y-118443528D01*
X174867781Y-118440102D01*
X174870801Y-118440498D01*
G37*
%TD.AperFunction*%
%TD*%
%TA.AperFunction,Conductor*%
%TO.N,Net-(J4-Pin_9)*%
G36*
X155969879Y-105815637D02*
G01*
X157129784Y-106341985D01*
X157135900Y-106348523D01*
X157136648Y-106352638D01*
X157136648Y-106642361D01*
X157133221Y-106650634D01*
X157129783Y-106653015D01*
X155969881Y-107179361D01*
X155960931Y-107179659D01*
X155955324Y-107175217D01*
X155604044Y-106650634D01*
X155505858Y-106504009D01*
X155504104Y-106495229D01*
X155505859Y-106490990D01*
X155955324Y-105819781D01*
X155962775Y-105814815D01*
X155969879Y-105815637D01*
G37*
%TD.AperFunction*%
%TD*%
%TA.AperFunction,Conductor*%
%TO.N,Net-(J3-Pin_9)*%
G36*
X131343074Y-118441673D02*
G01*
X131345491Y-118443529D01*
X131551470Y-118649508D01*
X131554897Y-118657781D01*
X131554500Y-118660803D01*
X131121438Y-120280758D01*
X131115991Y-120287865D01*
X131109010Y-120289382D01*
X129838886Y-120166634D01*
X129830980Y-120162427D01*
X129828366Y-120156115D01*
X129705617Y-118885987D01*
X129708232Y-118877425D01*
X129714238Y-118873562D01*
X131334197Y-118440499D01*
X131343074Y-118441673D01*
G37*
%TD.AperFunction*%
%TD*%
%TA.AperFunction,Conductor*%
%TO.N,Net-(J3-Pin_9)*%
G36*
X132649010Y-106500859D02*
G01*
X133320217Y-106950324D01*
X133325184Y-106957775D01*
X133324361Y-106964881D01*
X132798015Y-108124783D01*
X132791476Y-108130900D01*
X132787361Y-108131648D01*
X132497639Y-108131648D01*
X132489366Y-108128221D01*
X132486985Y-108124783D01*
X131960638Y-106964881D01*
X131960340Y-106955931D01*
X131964781Y-106950325D01*
X132635990Y-106500858D01*
X132644771Y-106499104D01*
X132649010Y-106500859D01*
G37*
%TD.AperFunction*%
%TD*%
%TA.AperFunction,Conductor*%
%TO.N,Net-(J1-Pin_9)*%
G36*
X135335634Y-81846779D02*
G01*
X135338015Y-81850217D01*
X135864361Y-83010118D01*
X135864659Y-83019068D01*
X135860217Y-83024675D01*
X135189010Y-83474140D01*
X135180229Y-83475895D01*
X135175990Y-83474140D01*
X134504782Y-83024675D01*
X134499815Y-83017224D01*
X134500637Y-83010120D01*
X135026985Y-81850217D01*
X135033524Y-81844100D01*
X135037639Y-81843352D01*
X135327361Y-81843352D01*
X135335634Y-81846779D01*
G37*
%TD.AperFunction*%
%TD*%
%TA.AperFunction,Conductor*%
%TO.N,Net-(J1-Pin_9)*%
G36*
X136374037Y-68837545D02*
G01*
X136377836Y-68843166D01*
X136753393Y-70056745D01*
X136752565Y-70065662D01*
X136746523Y-70071083D01*
X135456425Y-70581818D01*
X135343557Y-70626502D01*
X135336974Y-70629108D01*
X135332667Y-70629929D01*
X135042201Y-70629929D01*
X135033928Y-70626502D01*
X135030501Y-70618229D01*
X135030508Y-70617835D01*
X135057606Y-69813586D01*
X135085778Y-68977480D01*
X135089481Y-68969329D01*
X135096264Y-68966239D01*
X136365455Y-68834987D01*
X136374037Y-68837545D01*
G37*
%TD.AperFunction*%
%TD*%
%TA.AperFunction,Conductor*%
%TO.N,Net-(J2-Pin_9)*%
G36*
X111869675Y-82799782D02*
G01*
X112319140Y-83470990D01*
X112320895Y-83479771D01*
X112319140Y-83484010D01*
X111869675Y-84155217D01*
X111862224Y-84160184D01*
X111855118Y-84159361D01*
X110695217Y-83633015D01*
X110689100Y-83626476D01*
X110688352Y-83622361D01*
X110688352Y-83332638D01*
X110691779Y-83324365D01*
X110695213Y-83321986D01*
X111855120Y-82795637D01*
X111864068Y-82795340D01*
X111869675Y-82799782D01*
G37*
%TD.AperFunction*%
%TD*%
%TA.AperFunction,Conductor*%
%TO.N,Net-(J2-Pin_9)*%
G36*
X91117574Y-68713232D02*
G01*
X91121438Y-68719241D01*
X91554500Y-70339196D01*
X91553326Y-70348074D01*
X91551470Y-70350491D01*
X91345491Y-70556470D01*
X91337218Y-70559897D01*
X91334196Y-70559500D01*
X89714241Y-70126438D01*
X89707134Y-70120991D01*
X89705617Y-70114012D01*
X89828366Y-68843883D01*
X89832572Y-68835980D01*
X89838883Y-68833366D01*
X91109011Y-68710617D01*
X91117574Y-68713232D01*
G37*
%TD.AperFunction*%
%TD*%
%TA.AperFunction,Conductor*%
%TO.N,/VCC*%
G36*
X207781100Y-66617733D02*
G01*
X209527303Y-67531384D01*
X209533045Y-67538256D01*
X209533535Y-67542768D01*
X209421560Y-68825921D01*
X209417427Y-68833865D01*
X209410921Y-68836560D01*
X208127768Y-68948535D01*
X208119228Y-68945840D01*
X208116385Y-68942304D01*
X207202733Y-67196101D01*
X207201935Y-67187183D01*
X207204826Y-67182407D01*
X207767406Y-66619827D01*
X207775678Y-66616401D01*
X207781100Y-66617733D01*
G37*
%TD.AperFunction*%
%TD*%
%TA.AperFunction,Conductor*%
%TO.N,/VCC*%
G36*
X192927130Y-68843922D02*
G01*
X192929276Y-68846068D01*
X193915168Y-70128714D01*
X193917493Y-70137362D01*
X193915953Y-70141816D01*
X193329800Y-71129272D01*
X193322630Y-71134637D01*
X193319739Y-71135000D01*
X192520261Y-71135000D01*
X192511988Y-71131573D01*
X192510200Y-71129272D01*
X191924046Y-70141816D01*
X191922770Y-70132953D01*
X191924829Y-70128716D01*
X192910724Y-68846067D01*
X192918482Y-68841597D01*
X192927130Y-68843922D01*
G37*
%TD.AperFunction*%
%TD*%
%TA.AperFunction,Conductor*%
%TO.N,/VCC*%
G36*
X193327005Y-74837350D02*
G01*
X193329460Y-74840954D01*
X193806278Y-75936588D01*
X193806437Y-75945542D01*
X193802060Y-75950978D01*
X193149039Y-76388294D01*
X193140258Y-76390050D01*
X193140248Y-76390048D01*
X193140232Y-76390045D01*
X192370870Y-76236029D01*
X192363431Y-76231045D01*
X192361536Y-76223286D01*
X192512459Y-74844350D01*
X192516766Y-74836499D01*
X192524090Y-74833923D01*
X193318732Y-74833923D01*
X193327005Y-74837350D01*
G37*
%TD.AperFunction*%
%TD*%
%TA.AperFunction,Conductor*%
%TO.N,/VCC*%
G36*
X168322088Y-88650282D02*
G01*
X168327575Y-88657359D01*
X168327761Y-88658148D01*
X168486790Y-89452704D01*
X168486790Y-89457296D01*
X168327761Y-90251851D01*
X168322778Y-90259291D01*
X168313993Y-90261027D01*
X168313204Y-90260841D01*
X166860717Y-89863755D01*
X166853640Y-89858268D01*
X166852102Y-89852469D01*
X166852102Y-89057530D01*
X166855529Y-89049257D01*
X166860714Y-89046245D01*
X168313206Y-88649158D01*
X168322088Y-88650282D01*
G37*
%TD.AperFunction*%
%TD*%
%TA.AperFunction,Conductor*%
%TO.N,/VCC*%
G36*
X153836963Y-82040930D02*
G01*
X154399069Y-82603036D01*
X154402496Y-82611309D01*
X154400958Y-82617108D01*
X153654677Y-83924952D01*
X153647600Y-83930439D01*
X153638716Y-83929315D01*
X153638026Y-83928889D01*
X152963741Y-83479505D01*
X152960494Y-83476258D01*
X152511110Y-82801973D01*
X152509374Y-82793188D01*
X152514357Y-82785748D01*
X152515029Y-82785332D01*
X153822891Y-82039040D01*
X153831775Y-82037917D01*
X153836963Y-82040930D01*
G37*
%TD.AperFunction*%
%TD*%
%TA.AperFunction,Conductor*%
%TO.N,/VCC*%
G36*
X210050544Y-74808799D02*
G01*
X210053620Y-74814226D01*
X210406641Y-76222019D01*
X210405329Y-76230877D01*
X210398138Y-76236214D01*
X210397589Y-76236337D01*
X209627297Y-76390540D01*
X209622703Y-76390540D01*
X208852729Y-76236401D01*
X208845290Y-76231417D01*
X208843554Y-76222632D01*
X208843756Y-76221787D01*
X209236132Y-74814226D01*
X209236214Y-74813929D01*
X209241736Y-74806881D01*
X209247484Y-74805372D01*
X210042271Y-74805372D01*
X210050544Y-74808799D01*
G37*
%TD.AperFunction*%
%TD*%
%TA.AperFunction,Conductor*%
%TO.N,/VCC*%
G36*
X209427768Y-68843407D02*
G01*
X209430010Y-68845379D01*
X210545257Y-70113133D01*
X210548148Y-70121608D01*
X210546974Y-70126019D01*
X210054613Y-71128458D01*
X210047890Y-71134373D01*
X210044111Y-71135000D01*
X209244711Y-71135000D01*
X209236438Y-71131573D01*
X209235109Y-71129985D01*
X208547028Y-70141581D01*
X208545113Y-70132833D01*
X208546929Y-70128355D01*
X209411525Y-68846563D01*
X209418993Y-68841622D01*
X209427768Y-68843407D01*
G37*
%TD.AperFunction*%
%TD*%
%TA.AperFunction,Conductor*%
%TO.N,/VCC*%
G36*
X172711688Y-66934726D02*
G01*
X173275273Y-67498311D01*
X173278700Y-67506584D01*
X173277773Y-67511148D01*
X172667227Y-68952427D01*
X172660845Y-68958708D01*
X172655329Y-68959509D01*
X171383886Y-68836634D01*
X171375980Y-68832427D01*
X171373366Y-68826115D01*
X171250490Y-67554669D01*
X171253105Y-67546106D01*
X171257572Y-67542772D01*
X171342999Y-67506584D01*
X172698854Y-66932225D01*
X172707806Y-66932154D01*
X172711688Y-66934726D01*
G37*
%TD.AperFunction*%
%TD*%
%TA.AperFunction,Conductor*%
%TO.N,/VCC*%
G36*
X205731144Y-110597225D02*
G01*
X206748277Y-111028096D01*
X207172427Y-111207772D01*
X207178708Y-111214154D01*
X207179509Y-111219670D01*
X207056634Y-112491113D01*
X207052427Y-112499019D01*
X207046113Y-112501634D01*
X205774670Y-112624509D01*
X205766106Y-112621894D01*
X205762772Y-112617427D01*
X205170663Y-111219670D01*
X205152225Y-111176145D01*
X205152154Y-111167193D01*
X205154724Y-111163313D01*
X205718312Y-110599725D01*
X205726584Y-110596299D01*
X205731144Y-110597225D01*
G37*
%TD.AperFunction*%
%TD*%
%TA.AperFunction,Conductor*%
%TO.N,/VCC*%
G36*
X205731144Y-92597225D02*
G01*
X206748277Y-93028096D01*
X207172427Y-93207772D01*
X207178708Y-93214154D01*
X207179509Y-93219670D01*
X207056634Y-94491113D01*
X207052427Y-94499019D01*
X207046113Y-94501634D01*
X205774670Y-94624509D01*
X205766106Y-94621894D01*
X205762772Y-94617427D01*
X205170663Y-93219670D01*
X205152225Y-93176145D01*
X205152154Y-93167193D01*
X205154724Y-93163313D01*
X205718312Y-92599725D01*
X205726584Y-92596299D01*
X205731144Y-92597225D01*
G37*
%TD.AperFunction*%
%TD*%
%TA.AperFunction,Conductor*%
%TO.N,/VCC*%
G36*
X190135668Y-88808799D02*
G01*
X190138705Y-88814077D01*
X190511444Y-90221902D01*
X190510249Y-90230777D01*
X190503129Y-90236207D01*
X190502431Y-90236369D01*
X189732297Y-90390540D01*
X189727703Y-90390540D01*
X188957568Y-90236369D01*
X188950129Y-90231385D01*
X188948393Y-90222600D01*
X188948547Y-90221933D01*
X189321295Y-88814076D01*
X189326725Y-88806957D01*
X189332605Y-88805372D01*
X190127395Y-88805372D01*
X190135668Y-88808799D01*
G37*
%TD.AperFunction*%
%TD*%
%TA.AperFunction,Conductor*%
%TO.N,/VCC*%
G36*
X190502431Y-86493630D02*
G01*
X190509870Y-86498614D01*
X190511606Y-86507399D01*
X190511444Y-86508097D01*
X190138705Y-87915923D01*
X190133275Y-87923043D01*
X190127395Y-87924628D01*
X189332605Y-87924628D01*
X189324332Y-87921201D01*
X189321295Y-87915923D01*
X188948555Y-86508095D01*
X188949750Y-86499222D01*
X188956870Y-86493792D01*
X188957551Y-86493633D01*
X189727707Y-86339459D01*
X189732293Y-86339459D01*
X190502431Y-86493630D01*
G37*
%TD.AperFunction*%
%TD*%
%TA.AperFunction,Conductor*%
%TO.N,/VCC*%
G36*
X153654251Y-83029357D02*
G01*
X153654677Y-83030047D01*
X154400958Y-84337891D01*
X154402082Y-84346775D01*
X154399069Y-84351963D01*
X153836963Y-84914069D01*
X153828690Y-84917496D01*
X153822891Y-84915958D01*
X152515047Y-84169677D01*
X152509560Y-84162600D01*
X152510684Y-84153716D01*
X152511110Y-84153026D01*
X152960496Y-83478738D01*
X152963738Y-83475496D01*
X153638026Y-83026109D01*
X153646811Y-83024374D01*
X153654251Y-83029357D01*
G37*
%TD.AperFunction*%
%TD*%
%TA.AperFunction,Conductor*%
%TO.N,/VCC*%
G36*
X190569500Y-84938498D02*
G01*
X191131501Y-85500499D01*
X191134928Y-85508772D01*
X191133343Y-85514652D01*
X190401427Y-86773701D01*
X190394307Y-86779131D01*
X190385432Y-86777936D01*
X190384824Y-86777557D01*
X189731242Y-86342005D01*
X189727994Y-86338757D01*
X189292442Y-85685175D01*
X189290706Y-85676390D01*
X189295690Y-85668951D01*
X189296287Y-85668578D01*
X190555349Y-84936655D01*
X190564222Y-84935461D01*
X190569500Y-84938498D01*
G37*
%TD.AperFunction*%
%TD*%
%TA.AperFunction,Conductor*%
%TO.N,/VCC*%
G36*
X189898073Y-89608549D02*
G01*
X191305923Y-89981295D01*
X191313043Y-89986725D01*
X191314628Y-89992605D01*
X191314628Y-90787394D01*
X191311201Y-90795667D01*
X191305923Y-90798704D01*
X189898097Y-91171444D01*
X189889222Y-91170249D01*
X189883792Y-91163129D01*
X189883630Y-91162431D01*
X189729459Y-90392292D01*
X189729459Y-90387707D01*
X189883630Y-89617566D01*
X189888614Y-89610129D01*
X189897399Y-89608393D01*
X189898073Y-89608549D01*
G37*
%TD.AperFunction*%
%TD*%
%TA.AperFunction,Conductor*%
%TO.N,/VCC*%
G36*
X195169463Y-122523430D02*
G01*
X195731569Y-123085536D01*
X195734996Y-123093809D01*
X195733458Y-123099608D01*
X194987177Y-124407452D01*
X194980100Y-124412939D01*
X194971216Y-124411815D01*
X194970526Y-124411389D01*
X194296241Y-123962005D01*
X194292994Y-123958758D01*
X193843610Y-123284473D01*
X193841874Y-123275688D01*
X193846857Y-123268248D01*
X193847529Y-123267832D01*
X195155391Y-122521540D01*
X195164275Y-122520417D01*
X195169463Y-122523430D01*
G37*
%TD.AperFunction*%
%TD*%
%TA.AperFunction,Conductor*%
%TO.N,/VCC*%
G36*
X179738073Y-93663549D02*
G01*
X181145923Y-94036295D01*
X181153043Y-94041725D01*
X181154628Y-94047605D01*
X181154628Y-94842394D01*
X181151201Y-94850667D01*
X181145923Y-94853704D01*
X179738097Y-95226444D01*
X179729222Y-95225249D01*
X179723792Y-95218129D01*
X179723630Y-95217431D01*
X179569459Y-94447292D01*
X179569459Y-94442707D01*
X179723630Y-93672566D01*
X179728614Y-93665129D01*
X179737399Y-93663393D01*
X179738073Y-93663549D01*
G37*
%TD.AperFunction*%
%TD*%
%TA.AperFunction,Conductor*%
%TO.N,/VCC*%
G36*
X189074567Y-85902063D02*
G01*
X189075175Y-85902442D01*
X189728757Y-86337994D01*
X189732005Y-86341242D01*
X190167557Y-86994824D01*
X190169293Y-87003609D01*
X190164309Y-87011048D01*
X190163701Y-87011427D01*
X188904652Y-87743343D01*
X188895777Y-87744538D01*
X188890499Y-87741501D01*
X188328498Y-87179500D01*
X188325071Y-87171227D01*
X188326654Y-87165350D01*
X189058572Y-85906297D01*
X189065692Y-85900868D01*
X189074567Y-85902063D01*
G37*
%TD.AperFunction*%
%TD*%
%TA.AperFunction,Conductor*%
%TO.N,/VCC*%
G36*
X179975668Y-100908799D02*
G01*
X179978705Y-100914077D01*
X180351444Y-102321902D01*
X180350249Y-102330777D01*
X180343129Y-102336207D01*
X180342431Y-102336369D01*
X179572297Y-102490540D01*
X179567703Y-102490540D01*
X178797568Y-102336369D01*
X178790129Y-102331385D01*
X178788393Y-102322600D01*
X178788547Y-102321933D01*
X179161295Y-100914076D01*
X179166725Y-100906957D01*
X179172605Y-100905372D01*
X179967395Y-100905372D01*
X179975668Y-100908799D01*
G37*
%TD.AperFunction*%
%TD*%
%TA.AperFunction,Conductor*%
%TO.N,/VCC*%
G36*
X180342431Y-98593630D02*
G01*
X180349870Y-98598614D01*
X180351606Y-98607399D01*
X180351444Y-98608097D01*
X179978705Y-100015923D01*
X179973275Y-100023043D01*
X179967395Y-100024628D01*
X179172605Y-100024628D01*
X179164332Y-100021201D01*
X179161295Y-100015923D01*
X178788555Y-98608095D01*
X178789750Y-98599222D01*
X178796870Y-98593792D01*
X178797551Y-98593633D01*
X179567707Y-98439459D01*
X179572293Y-98439459D01*
X180342431Y-98593630D01*
G37*
%TD.AperFunction*%
%TD*%
%TA.AperFunction,Conductor*%
%TO.N,/VCC*%
G36*
X171366114Y-68833365D02*
G01*
X171374019Y-68837572D01*
X171376634Y-68843886D01*
X171499509Y-70115329D01*
X171496894Y-70123893D01*
X171492427Y-70127227D01*
X170051148Y-70737773D01*
X170042193Y-70737845D01*
X170038311Y-70735273D01*
X169474726Y-70171688D01*
X169471299Y-70163415D01*
X169472224Y-70158856D01*
X170082772Y-68717571D01*
X170089154Y-68711291D01*
X170094669Y-68710490D01*
X171366114Y-68833365D01*
G37*
%TD.AperFunction*%
%TD*%
%TA.AperFunction,Conductor*%
%TO.N,/VCC*%
G36*
X208343893Y-112378105D02*
G01*
X208347227Y-112382572D01*
X208817253Y-113492135D01*
X208944376Y-113792227D01*
X208957773Y-113823851D01*
X208957845Y-113832806D01*
X208955273Y-113836688D01*
X208391688Y-114400273D01*
X208383415Y-114403700D01*
X208378852Y-114402773D01*
X208047135Y-114262253D01*
X206937572Y-113792227D01*
X206931291Y-113785845D01*
X206930490Y-113780329D01*
X207053366Y-112508883D01*
X207057572Y-112500980D01*
X207063883Y-112498366D01*
X208335329Y-112375490D01*
X208343893Y-112378105D01*
G37*
%TD.AperFunction*%
%TD*%
%TA.AperFunction,Conductor*%
%TO.N,/VCC*%
G36*
X189074567Y-89952063D02*
G01*
X189075175Y-89952442D01*
X189728757Y-90387994D01*
X189732005Y-90391242D01*
X190167557Y-91044824D01*
X190169293Y-91053609D01*
X190164309Y-91061048D01*
X190163701Y-91061427D01*
X188904652Y-91793343D01*
X188895777Y-91794538D01*
X188890499Y-91791501D01*
X188328498Y-91229500D01*
X188325071Y-91221227D01*
X188326654Y-91215350D01*
X189058572Y-89956297D01*
X189065692Y-89950868D01*
X189074567Y-89952063D01*
G37*
%TD.AperFunction*%
%TD*%
%TA.AperFunction,Conductor*%
%TO.N,/VCC*%
G36*
X208343893Y-94378105D02*
G01*
X208347227Y-94382572D01*
X208817253Y-95492135D01*
X208944376Y-95792227D01*
X208957773Y-95823851D01*
X208957845Y-95832806D01*
X208955273Y-95836688D01*
X208391688Y-96400273D01*
X208383415Y-96403700D01*
X208378852Y-96402773D01*
X208047135Y-96262253D01*
X206937572Y-95792227D01*
X206931291Y-95785845D01*
X206930490Y-95780329D01*
X207053366Y-94508883D01*
X207057572Y-94500980D01*
X207063883Y-94498366D01*
X208335329Y-94375490D01*
X208343893Y-94378105D01*
G37*
%TD.AperFunction*%
%TD*%
%TA.AperFunction,Conductor*%
%TO.N,/VCC*%
G36*
X179738073Y-97658549D02*
G01*
X181145923Y-98031295D01*
X181153043Y-98036725D01*
X181154628Y-98042605D01*
X181154628Y-98837394D01*
X181151201Y-98845667D01*
X181145923Y-98848704D01*
X179738097Y-99221444D01*
X179729222Y-99220249D01*
X179723792Y-99213129D01*
X179723630Y-99212431D01*
X179569459Y-98442292D01*
X179569459Y-98437707D01*
X179723630Y-97667566D01*
X179728614Y-97660129D01*
X179737399Y-97658393D01*
X179738073Y-97658549D01*
G37*
%TD.AperFunction*%
%TD*%
%TA.AperFunction,Conductor*%
%TO.N,/VCC*%
G36*
X194863640Y-66534856D02*
G01*
X194864854Y-66540046D01*
X194864854Y-67331764D01*
X194864030Y-67336077D01*
X194223241Y-68951844D01*
X194217006Y-68958271D01*
X194211246Y-68959177D01*
X192928774Y-68835939D01*
X192920866Y-68831737D01*
X192918229Y-68825211D01*
X192817289Y-67542892D01*
X192820056Y-67534376D01*
X192823763Y-67531488D01*
X194837265Y-66534856D01*
X194847964Y-66529559D01*
X194856899Y-66528961D01*
X194863640Y-66534856D01*
G37*
%TD.AperFunction*%
%TD*%
%TA.AperFunction,Conductor*%
%TO.N,Net-(J4-Pin_5)*%
G36*
X154870801Y-118440498D02*
G01*
X156490759Y-118873561D01*
X156497865Y-118879008D01*
X156499382Y-118885989D01*
X156376634Y-120156113D01*
X156372427Y-120164019D01*
X156366113Y-120166634D01*
X155095989Y-120289382D01*
X155087425Y-120286767D01*
X155083561Y-120280759D01*
X154650499Y-118660802D01*
X154651673Y-118651925D01*
X154653525Y-118649512D01*
X154859509Y-118443528D01*
X154867781Y-118440102D01*
X154870801Y-118440498D01*
G37*
%TD.AperFunction*%
%TD*%
%TA.AperFunction,Conductor*%
%TO.N,Net-(J4-Pin_5)*%
G36*
X145349010Y-106500859D02*
G01*
X146020217Y-106950324D01*
X146025184Y-106957775D01*
X146024361Y-106964881D01*
X145498015Y-108124783D01*
X145491476Y-108130900D01*
X145487361Y-108131648D01*
X145197639Y-108131648D01*
X145189366Y-108128221D01*
X145186985Y-108124783D01*
X144660638Y-106964881D01*
X144660340Y-106955931D01*
X144664781Y-106950325D01*
X145335990Y-106500858D01*
X145344771Y-106499104D01*
X145349010Y-106500859D01*
G37*
%TD.AperFunction*%
%TD*%
M02*
